<?xml version="1.0" encoding="utf-8"?>
<!-- Generator: Adobe Illustrator 23.0.0, SVG Export Plug-In . SVG Version: 6.00 Build 0)  -->
<svg version="1.1" id="图层_1" xmlns="http://www.w3.org/2000/svg" xmlns:xlink="http://www.w3.org/1999/xlink" x="0px" y="0px"
	 viewBox="0 0 32 32" style="enable-background:new 0 0 32 32;" xml:space="preserve">
<style type="text/css">
	.st0{fill-rule:evenodd;clip-rule:evenodd;fill:#FF5569;}
	.st1{fill-rule:evenodd;clip-rule:evenodd;fill:#FF5768;}
</style>
<g transform="translate(6 6.722924592294021)  rotate(0 10.000183560919485 9.274746899179316)">
	<g transform="translate(0 0.009493798358633398)  rotate(0 9.56 9.27)">
		<g>
			<path class="st0" d="M1.5,0.9c0-0.5,0-1,0.1-1.5S1.8-1.6,2-2c0.2-0.5,0.4-0.9,0.6-1.3c0.3-0.5,0.6-0.9,1-1.3
				C2.4-4.1,1.2-3.4,0.2-2.5c-2.7,2.2-4.6,5.3-5.4,8.7c-0.3,1.2-0.4,2.5-0.4,3.7c0,2.7,0.7,5.3,1.9,7.7c0.1-0.8,0.3-1.5,0.6-2.2
				c1,2.3,2.5,4.4,4.5,6c2,1.6,4.3,2.7,6.8,3.2c-0.4-0.6-0.8-1.2-1.1-1.8c1.3,0.4,2.7,0.7,4.1,0.7c0.1,0,0.3,0,0.4,0
				c2.2,0,4.4-0.5,6.4-1.5c-0.3-0.2-0.6-0.4-0.9-0.6c2.2-0.8,4.2-2.2,5.7-4.1c0.7-0.8,1.3-1.8,1.8-2.7c-0.8,0.3-1.5,0.4-2.3,0.5
				c-0.2,0-0.3,0-0.5,0c0,0-0.1,0-0.2,0c0.1-0.4,0.2-0.8,0.2-1.2c0-0.3,0-0.6,0-0.8c0-0.3,0-0.6,0-0.9c-0.8,0.4-1.7,0.7-2.5,0.8
				c-0.3,0-0.5,0.1-0.8,0.1c0.1-0.4,0.1-0.8,0.2-1.2c0-0.1,0-0.3,0-0.4c0-0.6-0.1-1.2-0.2-1.7c-0.6,0.4-1.3,0.7-2,0.8
				c-0.3,0.1-0.5,0.1-0.8,0.2l0,0c0.1-0.4,0.1-0.8,0.2-1.1c0-0.2,0-0.3,0-0.5c0-0.5,0-1-0.1-1.5c-0.9,0.9-1.9,1.6-3,2.1
				c-1.2,0.5-2.4,0.8-3.6,0.8c-1.5,0-2.9-0.4-4.3-1C5.1,9,5.7,8.7,6.2,8.3c-1.4-0.7-2.6-1.7-3.4-3S1.5,2.4,1.5,0.9z"/>
		</g>
	</g>
	<g transform="translate(13.87036712183897 0)  rotate(0 3.0649999999999995 5.86)">
		<g>
			<path class="st1" d="M5.5,10.3c0,0.4,0,0.8-0.1,1.2c0.7-0.1,1.4-0.2,2.1-0.5c0.4-0.1,0.7-0.3,1-0.5c0,0.3,0.1,0.6,0.1,0.8
				s0,0.4,0,0.6c0,0.6-0.1,1.1-0.2,1.7c0.8,0,1.7-0.2,2.5-0.5c0.6-1.5,0.9-3.2,0.9-4.8c0-0.3,0-0.7,0-1.1c-0.1-1-0.3-2.1-0.6-3.1
				c-0.1,0.3-0.3,0.7-0.5,1C10.4,3.5,9.9,1.9,9,0.5C8.2-0.8,7.1-2,5.7-2.9c-0.9-0.7-2-1.2-3-1.6c-0.1,0-0.3-0.1-0.4-0.1
				c1,1.3,1.7,2.9,1.9,4.5c0,0.1,0,0.1,0,0.2l0,0c0,0.1,0,0.1,0,0.2l0,0c0,0,0,0.1,0,0.2s0,0.1,0,0.2v0.1l0,0c0,0,0,0,0,0.1V1
				c0,1.9-0.6,3.7-1.7,5.3C2.6,6.9,2.7,7.4,2.7,8c0,0.4,0,0.8-0.1,1.2c0.5-0.1,1-0.3,1.5-0.5c0.4-0.2,0.7-0.4,1.1-0.6
				c0.1,0.2,0.1,0.5,0.2,0.7C5.4,9.3,5.5,9.8,5.5,10.3z"/>
		</g>
	</g>
</g>
</svg>
