<?xml version="1.0" encoding="utf-8"?>
<!-- Generator: Adobe Illustrator 24.0.1, SVG Export Plug-In . SVG Version: 6.00 Build 0)  -->
<svg version="1.1" id="Layer_1" xmlns="http://www.w3.org/2000/svg" xmlns:xlink="http://www.w3.org/1999/xlink" x="0px" y="0px"
	 viewBox="0 0 512 512" style="enable-background:new 0 0 512 512;" xml:space="preserve">
<style type="text/css">
	.st0{fill:none;}
	.st1{fill:#7097D6;}
</style>
<polygon class="st0" points="157.18,255.79 203.71,255.79 180.44,194.14 "/>
<polygon class="st0" points="358.49,327.23 365.8,327.23 362.14,317.55 "/>
<path d="M329.07,336.62l-8.13-12.48l7.62-11.6l0.01-0.02c0.34-0.6,0.56-1.06,0.68-1.44c0.27-0.85-0.18-1.34-0.39-1.51
	c-0.33-0.27-0.84-0.43-1.54-0.48c-0.55-0.04-1.29-0.06-2.22-0.06c-0.83,0-1.5,0.01-1.98,0.05c-0.53,0.03-0.93,0.09-1.24,0.17
	c-0.41,0.1-0.72,0.27-0.94,0.49c-0.16,0.16-0.31,0.35-0.45,0.58l-5.38,8.66l-5.52-8.65c-0.14-0.23-0.29-0.43-0.45-0.59
	c-0.23-0.23-0.55-0.39-1-0.5c-0.34-0.08-0.77-0.14-1.32-0.17c-0.52-0.03-1.21-0.05-2.08-0.05c-1.05,0-1.88,0.02-2.46,0.06
	c-0.74,0.05-1.24,0.2-1.59,0.45c-0.23,0.17-0.72,0.67-0.39,1.57c0.14,0.38,0.38,0.85,0.75,1.46l7.61,11.65l-8.21,12.42
	c-0.38,0.59-0.63,1.06-0.76,1.44c-0.28,0.81,0.08,1.29,0.31,1.51c0.32,0.29,0.82,0.46,1.52,0.52c0.54,0.05,1.3,0.07,2.27,0.07
	c0.83,0,1.51-0.01,2.03-0.05c0.55-0.03,0.98-0.09,1.31-0.17c0.42-0.1,0.74-0.26,0.97-0.48c0.17-0.17,0.34-0.37,0.47-0.6l5.95-9.53
	l5.96,9.51c0.13,0.24,0.28,0.46,0.46,0.63c0.23,0.22,0.54,0.38,0.97,0.48c0.33,0.08,0.76,0.14,1.3,0.17
	c0.51,0.03,1.21,0.05,2.07,0.05c1.04,0,1.86-0.02,2.45-0.07c0.74-0.06,1.26-0.22,1.6-0.48c0.23-0.17,0.72-0.66,0.44-1.54
	C329.66,337.69,329.43,337.21,329.07,336.62z"/>
<path d="M339.78,310.54c-0.53,0.24-1.14,0.52-1.77,0.84c-1.63,0.83-2.75,1.62-3.45,2.42c-0.11,0.14-0.27,0.22-0.45,0.24v24.39
	c0,0.34,0.14,0.67,0.39,0.92c0.22,0.23,0.53,0.39,0.94,0.5c0.32,0.09,0.73,0.15,1.24,0.21c0.49,0.05,1.1,0.07,1.82,0.07
	c0.74,0,1.35-0.02,1.83-0.07c0.51-0.05,0.91-0.12,1.23-0.21c0.41-0.12,0.72-0.28,0.94-0.5c0.25-0.26,0.39-0.58,0.39-0.92v-29.88
	C342.26,309.42,341.17,309.92,339.78,310.54z"/>
<path class="st1" d="M282.18,316.46l-65.5-165.62c-0.87-2.39-1.97-4.36-3.29-5.88c-1.58-1.82-3.85-3.08-6.96-3.82
	c-2.48-0.6-5.68-0.99-9.86-1.14c-3.88-0.15-9.14-0.21-15.56-0.21c-5.62,0-10.19,0.06-13.62,0.21c-3.76,0.15-6.69,0.54-8.96,1.16
	c-2.84,0.78-4.96,2.03-6.45,3.76c-1.22,1.4-2.27,3.2-3.14,5.35L83.43,316.19c-1.46,3.73-2.33,6.69-2.72,9.08
	c-0.78,4.78,1.22,7.62,2.48,8.9c1.88,1.91,4.75,3.05,8.72,3.46c2.99,0.3,7.11,0.45,12.25,0.45c4.75,0,8.69-0.09,11.68-0.3
	c3.32-0.21,5.88-0.66,7.86-1.31c2.45-0.81,4.36-2.09,5.65-3.73c1.05-1.34,1.88-2.99,2.45-4.69l12.31-33.45h73.24L230.39,329
	c0.63,1.82,1.49,3.35,2.51,4.57c1.31,1.52,3.2,2.6,5.79,3.29c1.97,0.51,4.6,0.84,8.06,1.02c3.17,0.15,7.62,0.21,13.23,0.21
	c5.44,0,9.8-0.12,12.96-0.39c4.06-0.33,7.02-1.28,8.99-2.96c1.46-1.22,3.76-4.03,2.96-9.05
	C284.54,323.33,283.64,320.31,282.18,316.46z M157.18,255.79l23.27-61.65l23.27,61.65H157.18z"/>
<path d="M442.71,327.07c-0.48-0.95-1.11-1.79-1.89-2.49c-0.76-0.68-1.63-1.28-2.6-1.77c-0.93-0.47-1.89-0.9-2.86-1.27
	c-0.94-0.36-1.88-0.71-2.8-1.04c-0.87-0.31-1.66-0.65-2.35-1c-0.63-0.33-1.14-0.7-1.5-1.1c-0.3-0.34-0.45-0.72-0.45-1.2
	c0-0.32,0.07-0.64,0.21-0.93c0.14-0.28,0.34-0.52,0.63-0.73c0.31-0.23,0.72-0.41,1.21-0.54c0.51-0.14,1.13-0.21,1.84-0.21
	c0.93,0,1.8,0.09,2.57,0.28c0.8,0.19,1.51,0.41,2.11,0.65c0.61,0.24,1.14,0.46,1.56,0.67c0.57,0.28,0.97,0.4,1.3,0.4
	c0.38,0,0.7-0.1,0.96-0.3c0.24-0.19,0.42-0.45,0.53-0.8c0.08-0.25,0.14-0.55,0.17-0.91c0.03-0.32,0.04-0.72,0.04-1.18
	c0-0.4-0.01-0.75-0.03-1.04c-0.02-0.3-0.06-0.57-0.12-0.79c-0.06-0.24-0.14-0.45-0.24-0.61c-0.11-0.18-0.28-0.37-0.53-0.58
	c-0.25-0.21-0.66-0.42-1.33-0.69c-0.6-0.24-1.29-0.46-2.04-0.65c-0.76-0.19-1.58-0.34-2.44-0.45c-0.87-0.11-1.75-0.16-2.61-0.16
	c-1.68,0-3.29,0.18-4.79,0.54c-1.53,0.37-2.89,0.93-4.02,1.68c-1.16,0.76-2.09,1.74-2.78,2.9c-0.69,1.18-1.05,2.55-1.05,4.08
	c0,1.33,0.24,2.5,0.73,3.48c0.47,0.96,1.11,1.8,1.87,2.5c0.75,0.68,1.61,1.28,2.56,1.77c0.91,0.47,1.87,0.9,2.84,1.27
	c0.95,0.37,1.89,0.71,2.77,1.04c0.86,0.31,1.63,0.65,2.29,1c0.62,0.33,1.13,0.7,1.5,1.11c0.31,0.34,0.46,0.73,0.46,1.21
	c0,0.45-0.1,0.86-0.29,1.21c-0.2,0.36-0.48,0.67-0.86,0.91c-0.41,0.27-0.92,0.48-1.52,0.63c-0.62,0.15-1.35,0.23-2.15,0.23
	c-1.26,0-2.38-0.12-3.32-0.35c-0.97-0.24-1.81-0.51-2.5-0.79c-0.7-0.29-1.28-0.56-1.72-0.79c-0.6-0.32-1.06-0.47-1.46-0.47
	c-0.33,0-0.63,0.08-0.89,0.24c-0.28,0.17-0.49,0.43-0.63,0.77c-0.11,0.27-0.19,0.58-0.23,0.97c-0.04,0.34-0.06,0.76-0.06,1.26
	c0,0.77,0.06,1.36,0.17,1.79c0.14,0.52,0.39,0.94,0.75,1.23c0.29,0.24,0.72,0.5,1.32,0.78c0.57,0.27,1.29,0.54,2.13,0.78
	c0.83,0.24,1.8,0.45,2.87,0.62c1.08,0.17,2.27,0.26,3.53,0.26c1.86,0,3.63-0.21,5.28-0.61c1.66-0.41,3.15-1.04,4.4-1.87
	c1.28-0.84,2.3-1.9,3.05-3.16c0.76-1.28,1.14-2.77,1.14-4.44C443.45,329.16,443.21,328.02,442.71,327.07z"/>
<path d="M412.32,310.54c-0.53,0.24-1.14,0.52-1.77,0.84c-1.63,0.83-2.75,1.62-3.45,2.42c-0.11,0.14-0.27,0.22-0.45,0.24v24.39
	c0,0.34,0.14,0.67,0.39,0.92c0.22,0.23,0.53,0.39,0.94,0.5c0.32,0.09,0.73,0.15,1.24,0.21c0.49,0.05,1.1,0.07,1.82,0.07
	c0.74,0,1.35-0.02,1.83-0.07c0.51-0.05,0.91-0.12,1.23-0.21c0.41-0.12,0.72-0.28,0.94-0.5c0.25-0.26,0.39-0.58,0.39-0.92v-29.88
	C414.81,309.42,413.71,309.92,412.32,310.54z"/>
<path d="M402.64,334.55c-0.15-0.32-0.37-0.57-0.63-0.73s-0.56-0.24-0.89-0.24h-10.7v-22.87c0-0.34-0.13-0.66-0.39-0.92
	c-0.22-0.23-0.53-0.39-0.94-0.5c-0.32-0.09-0.72-0.15-1.23-0.21c-0.48-0.05-0.75-0.07-1.48-0.07c-0.72,0-1.33,0.02-1.82,0.07
	c-0.52,0.05-0.92,0.12-1.24,0.21c-0.41,0.12-0.72,0.28-0.94,0.5c-0.25,0.26-0.39,0.58-0.39,0.92v26.66c0,0.91,0.31,1.6,0.93,2.04
	c0.54,0.39,1.21,0.59,1.98,0.59h16.21c0.34,0,0.65-0.09,0.92-0.27c0.26-0.17,0.46-0.43,0.61-0.76c0.12-0.26,0.21-0.59,0.26-0.96
	c0.05-0.35,0.08-0.76,0.08-1.25c0-0.49-0.02-0.91-0.08-1.25C402.85,335.12,402.76,334.81,402.64,334.55z"/>
<path d="M378.14,336.75l-10.29-26.01c-0.14-0.38-0.31-0.68-0.52-0.92c-0.25-0.29-0.6-0.48-1.09-0.6c-0.39-0.09-0.9-0.15-1.55-0.18
	c-0.61-0.02-1.44-0.03-2.45-0.03c-0.88,0-1.6,0.01-2.14,0.03c-0.59,0.02-1.05,0.08-1.41,0.18c-0.45,0.12-0.78,0.32-1.01,0.59
	c-0.19,0.22-0.36,0.5-0.49,0.84l-10.28,26.05c-0.23,0.59-0.37,1.05-0.43,1.43c-0.12,0.75,0.19,1.2,0.39,1.4
	c0.3,0.3,0.75,0.48,1.37,0.54c0.47,0.05,1.12,0.07,1.93,0.07c0.75,0,1.36-0.01,1.84-0.05c0.52-0.03,0.92-0.1,1.23-0.21
	c0.38-0.13,0.68-0.33,0.89-0.59c0.16-0.21,0.3-0.47,0.38-0.74l1.93-5.25h11.51l2.05,5.4c0.1,0.29,0.23,0.53,0.39,0.72
	c0.21,0.24,0.5,0.41,0.91,0.52c0.31,0.08,0.73,0.13,1.27,0.16c0.5,0.02,1.2,0.03,2.08,0.03c0.85,0,1.54-0.02,2.04-0.06
	c0.64-0.05,1.1-0.2,1.41-0.46c0.23-0.19,0.59-0.63,0.46-1.42C378.51,337.83,378.37,337.36,378.14,336.75z M358.49,327.23l3.66-9.68
	l3.66,9.68H358.49z"/>
<path class="st1" d="M341.59,301.34c-1.47-1.03-3.38-0.76-4.13-0.43c-0.79,0.36-2.51,1.26-3.25,3.93c-0.58,2.08-0.61,4.57-0.48,5.92
	c0.02,0.24,0.36,0.28,0.53,0.09c0.54-0.62,1.49-1.45,3.57-2.51c2.7-1.37,4.64-1.8,5.11-3.48
	C343.4,303.18,342.96,302.3,341.59,301.34z"/>
<path class="st1" d="M414.14,301.33c-1.47-1.03-3.38-0.76-4.13-0.43c-0.79,0.36-2.51,1.27-3.25,3.93c-0.59,2.09-0.61,4.58-0.48,5.92
	c0.02,0.23,0.36,0.28,0.53,0.09c0.54-0.62,1.49-1.45,3.57-2.51c2.7-1.37,4.64-1.8,5.11-3.48S415.51,302.3,414.14,301.33z"/>
</svg>
