<?xml version="1.0" standalone="no"?><!DOCTYPE svg PUBLIC "-//W3C//DTD SVG 1.1//EN" "http://www.w3.org/Graphics/SVG/1.1/DTD/svg11.dtd"><svg t="1622693535281" class="icon" viewBox="0 0 1024 1024" version="1.1" xmlns="http://www.w3.org/2000/svg" p-id="2392" xmlns:xlink="http://www.w3.org/1999/xlink" width="24" height="24"><defs><style type="text/css"></style></defs><path d="M531.5072 417.9456c0-56.0128-1.9968-112.0768 0.512-167.9872 3.072-67.328 25.0368-130.7136 48.5376-193.3312a13.824 13.824 0 0 1 11.008-6.656c65.8432 3.8912 141.9264 48.896 143.872 140.4416 1.0752 49.92-12.7488 96.768-34.048 140.8-22.1184 46.08-47.616 90.112-72.8576 134.4-24.1152 42.2912-49.7664 83.6608-74.752 125.4912a34.5088 34.5088 0 0 1-5.12 7.5776 47.104 47.104 0 0 1-8.3968 5.12 28.5184 28.5184 0 0 1-4.0448-8.6016c-0.8704-10.7008-1.1264-21.4528-1.4848-32.1536l-5.12-144.9472zM493.312 420.096c-1.9968 56.7296-3.8912 113.4592-6.0928 170.1888a50.2272 50.2272 0 0 1-4.2496 13.2096c-3.6864-2.8672-8.704-5.12-10.8544-8.6528C422.8096 509.5424 372.5824 424.96 325.3248 338.3296a307.2 307.2 0 0 1-37.376-137.728c-3.072-93.44 64.512-138.24 128-149.1968 24.32-4.1472 24.3712-3.4304 33.1776 19.968 33.024 87.9616 49.6128 178.5344 45.056 272.7424-1.1776 25.2928 0 50.6368 0 75.9296zM441.088 632.2176c-12.4416-5.6832-25.1904-10.7008-37.2224-17.152a1946.0608 1946.0608 0 0 1-233.2672-144.7936 283.7504 283.7504 0 0 1-47.2064-43.4688c-38.8096-45.0048-42.3424-95.9488-20.736-149.6576 12.1856-30.3616 31.6928-55.9616 54.016-79.4624 10.24-10.9056 14.4896-11.5712 23.7568 0.4096C207.8208 233.5232 235.52 268.8512 260.7616 305.92a2744.32 2744.32 0 0 1 166.5024 284.672c6.4 12.3904 11.52 25.6 17.2032 38.2464zM578.56 628.8384c6.7584-14.7968 12.9024-30.0032 20.48-44.3904 64-122.4704 133.12-241.7664 215.9616-352.6656 9.6256-12.9024 20.48-24.8832 30.72-37.2736 5.12-6.2976 10.6496-6.6048 16.4864-0.7168 34.1504 34.4064 62.0544 72.448 69.632 121.7536 8.1408 53.7088-10.8032 98.1504-51.6608 131.7888a1014.1184 1014.1184 0 0 1-105.1648 76.032c-54.8864 34.3552-111.616 65.7408-167.7312 98.048a204.8 204.8 0 0 1-25.1392 10.24zM604.16 666.0096c9.1136-6.144 18.1248-12.3392 27.2896-18.3808 111.9744-73.3696 229.3248-137.472 346.9824-201.0112 17.7664-9.5744 17.6128-9.0112 20.9408 11.52 6.2464 39.2704 3.584 77.7728-13.312 113.6128-26.88 57.0368-75.264 86.272-135.9872 95.6416a480.1024 480.1024 0 0 1-73.3184 4.6592c-53.6064 0-107.264-1.3312-160.9216-2.2016-3.6352 0-7.2192-0.8192-10.8544-1.2288zM422.2464 668.0064a125.7984 125.7984 0 0 1-14.2848 1.9456c-71.68 0.256-143.36 1.9968-215.04 0a183.2448 183.2448 0 0 1-125.9008-54.7328c-37.632-37.2224-47.5648-84.48-45.2608-135.3216 0.5632-13.1584 3.1232-26.2656 5.12-42.9056 135.5264 73.0112 267.4176 144.9984 395.3664 231.0144zM913.1008 703.0784c-23.2448 40.6528-48.5376 75.3152-92.16 90.6752-23.04 8.0896-46.08 2.2528-68.7104-5.376-40.4992-13.7216-75.2128-37.5296-108.1856-64.1024l-37.2736-29.8496zM416.1024 694.784c-49.5104 40.1408-95.3344 78.9504-154.624 96.6656-39.1168 11.7248-73.3696 4.3008-102.9632-24.064a229.0688 229.0688 0 0 1-47.616-64.3584zM529.152 842.0864a19.7632 19.7632 0 0 1 3.6352-0.8704c28.7232-1.3824 28.6208-1.3824 35.84 26.0096 5.12 19.2 10.5984 38.3488 16.896 60.9792 2.56-6.4512 4.0448-9.6768 5.12-13.056 7.424-22.1696 14.4896-44.4416 22.4768-66.56a14.08 14.08 0 0 1 10.24-7.3728c30.4128-1.6384 30.3616-1.3824 39.424 27.392 5.8368 18.6368 11.8784 37.2224 17.8688 55.808 0 0.6144 0.9216 1.1264 2.1504 2.56 6.9632-25.6 14.08-49.9712 20.48-74.8032 2.0992-8.6016 5.12-12.4928 14.592-11.4176a179.5584 179.5584 0 0 0 21.0944 0 67.7888 67.7888 0 0 1-1.4336 7.936c-11.3664 37.8368-22.9888 75.52-34.0992 113.408a11.0592 11.0592 0 0 1-12.7488 9.5232c-24.5248 0-24.576 0-32.512-23.4496s-15.36-46.4384-25.6-69.8368c-4.5568 13.9776-9.216 27.9552-13.7216 41.9328s-9.3184 28.416-13.5168 42.752a10.24 10.24 0 0 1-11.3152 8.6016c-27.4944 0.5632-27.2896 0.7168-34.9184-25.6-8.9088-30.72-18.1248-61.7984-27.1872-92.672-0.8704-3.4304-1.6896-7.0656-2.7648-11.264zM232.2432 841.8304H266.24c0 3.9936 0.5632 8.0384 0.6144 12.0832 0 22.9888 0 46.08 0.5632 69.0176 0 10.8032 2.6624 21.1456 14.592 24.8832 13.8752 4.3008 28.416 6.0416 40.3456-4.1472a26.368 26.368 0 0 0 6.7072-17.5104c0.8704-23.7056 0.6144-47.5136 0.768-71.2704v-13.1072h39.2704c0 32.3584 2.0992 64.256-0.8192 95.6416-1.7408 18.7904-20.992 26.5216-37.0176 32.0512a107.9808 107.9808 0 0 1-66.816-0.512c-14.6944-4.4032-26.2144-13.824-27.4944-29.2864-2.816-32.256-3.2768-64.6656-4.7104-97.8432zM165.9904 890.88v-49.2032h32.6144v129.0752h-32.4608v-56.32c-20.0192 0-38.656-0.256-57.2928 0.4096-2.0992 0-5.5808 5.4272-5.7344 8.4992-0.6656 13.0048-0.5632 26.0608 0 39.0656 0 7.1168-2.56 9.3696-9.4208 9.1648-28.4672-0.7168-22.9888 3.5328-23.2448-22.7328-0.3584-31.7952 0-63.6416 0-95.4368v-11.8784h32.6144V890.88zM536.6784 971.3152a77.9264 77.9264 0 0 0-8.448 0.4608c-18.2784 3.0208-32-1.0752-37.0688-21.504a13.312 13.312 0 0 0-10.24-6.8608c-16.8448-1.024-33.7408-1.3312-50.5856-0.9216a12.7488 12.7488 0 0 0-9.7792 6.7584c-4.3008 22.4256-19.3536 25.344-38.144 22.4768l-5.7856-0.6144c1.28-3.584 2.1504-6.7584 3.5328-9.6768 18.176-37.9904 36.352-76.032 54.9888-113.8176a14.1824 14.1824 0 0 1 10.24-6.2976c27.136-1.5872 27.0848-1.3312 39.168 23.296q23.808 48.5376 47.6672 96.9728c1.536 2.6624 2.6112 5.4784 4.4544 9.728z m-81.408-100.2496c-7.8848 17.664-14.4384 32.4096-21.5552 48.2816h43.2128zM884.0192 865.9456h-58.3168c-16.9472 0.3072-25.6 8.2432-27.392 25.6h85.9648v23.552h-87.3984c1.4848 22.0672 11.3664 31.7952 31.1296 31.8976h56.32v21.8624c-25.6 0-51.2 2.9696-76.2368-0.7168-30.4128-4.5056-48.7424-34.5088-46.3872-67.4304 2.304-31.6416 23.1424-54.5792 54.3232-56.832 22.1184-1.5872 44.3904-0.3072 68.0448-0.3072zM921.2928 971.0592v-129.28h31.4368v129.28z" fill="#ED1D25" p-id="2393"></path></svg>