<?xml version="1.0" encoding="utf-8"?>
<!-- Generator: Adobe Illustrator 16.0.0, SVG Export Plug-In . SVG Version: 6.00 Build 0)  -->
<!DOCTYPE svg PUBLIC "-//W3C//DTD SVG 1.1//EN" "http://www.w3.org/Graphics/SVG/1.1/DTD/svg11.dtd">
<svg version="1.1" id="图层_1" xmlns="http://www.w3.org/2000/svg" xmlns:xlink="http://www.w3.org/1999/xlink" x="0px" y="0px"
	 width="1024px" height="1024px" viewBox="0 0 1024 1024" enable-background="new 0 0 1024 1024" xml:space="preserve">
<g>
	<path fill="#999999" d="M238.989,503.648c-2.707,13.446-4.19,27.299-4.19,41.371c0,132.472,124.103,239.766,277.214,239.766
		c153.094,0,277.22-107.312,277.22-239.766c0-14.072-1.501-27.925-4.208-41.371c-57.548-58.991-158.27-98.207-273.012-98.207
		C397.253,405.441,296.525,444.657,238.989,503.648z M643.324,565.937c0,72.548-58.782,131.302-131.313,131.302
		c-72.513,0-131.313-58.754-131.313-131.302c0-18.152,3.686-35.453,10.375-51.201c7.459,21.353,27.757,36.613,51.636,36.613
		c30.237,0,54.713-24.459,54.713-54.714c0-23.879-15.295-44.177-36.619-51.653c15.736-6.653,33.048-10.369,51.207-10.369
		C584.525,434.63,643.324,493.441,643.324,565.937z"/>
	<path fill="#999999" d="M512.012,6.78C195.838,122.386-30.563,483.009,27.837,847.242c0,0,188.947,169.978,484.163,169.978
		c295.211,0,484.158-169.978,484.158-169.978C1054.575,483.009,828.175,122.386,512.012,6.78z M928.995,806.688
		c0,0-69.303,58.8-173.855,91.46c-3.981,1.264-8.63,1.356-12.792-1.084c-6.108-3.553-7.743-10.711-4.114-16.982
		c0.591-1.014,2.289-3.048,3.906-4.381c25.097-20.646,46.095-46.351,63.303-76.159c30.8-53.375,42.079-112.604,36.045-169.543
		l-0.04-0.121c-17.893,92.039-74.061,176.115-161.626,226.696C493.662,964.02,259.049,935.787,95.058,806.724
		c0,0-16.287-89.443,7.697-196.309c0.91-4.058,3.153-8.144,7.355-10.508c6.138-3.536,13.14-1.397,16.75,4.903
		c0.608,1.014,1.513,3.506,1.854,5.575c5.303,32.034,17.058,63.06,34.283,92.897c30.817,53.363,76.495,92.741,128.786,115.994
		c-27.328-23.764-51.265-52.396-70.392-85.548c-32.243-55.838-46.582-117.061-44.861-177.106
		C180.56,345.547,321.013,160.83,512,84.469c0,0,85.571,30.637,166.152,104.813c3.078,2.84,5.454,6.839,5.442,11.65
		c-0.046,7.076-5.379,12.066-12.646,12.066c-1.188,0-3.791-0.458-5.768-1.171c-30.417-11.446-63.152-16.79-97.592-16.79
		c-61.622,0-118.579,19.88-164.836,53.565l-0.058,0.059c96.85-33.507,202.307-20.061,286.708,32.364
		C869.129,390.332,958.281,603.709,928.995,806.688z"/>
</g>
</svg>
