<?xml version="1.0" encoding="utf-8"?>
<!-- Generator: Adobe Illustrator 24.0.1, SVG Export Plug-In . SVG Version: 6.00 Build 0)  -->
<svg version="1.1" id="Layer_1" xmlns="http://www.w3.org/2000/svg" xmlns:xlink="http://www.w3.org/1999/xlink" x="0px" y="0px"
	 viewBox="0 0 144 144" style="enable-background:new 0 0 144 144;" xml:space="preserve">
<style type="text/css">
	.st0{fill:#E5322D;}
	.st1{fill:#FFFFFF;}
</style>
<g>
	<path class="st0" d="M97.85,16.67c-3.67,1.77-6.43,4.76-8.44,8.14c-3.23-5.44-8.37-9.84-16.16-9.84c-7.79,0-17.34,6.61-17.34,17.78
		c0,11.3,9.43,16.66,14.11,19.69c4.99,3.23,13.52,9.11,19.39,19.98c5.88-10.87,14.4-16.75,19.39-19.98
		c3.51-2.28,9.71-5.87,12.57-12.31L97.85,16.67z M97.57,40.76V19.52l21.24,21.24L97.57,40.76L97.57,40.76z"/>
	<path d="M25.83,60.12h2.63c0.83,0,1.8-1.16,1.8-1.93V30.25c0-0.77-0.96-1.86-1.8-1.86h-2.63v-6.74h21.13v6.74h-2.7
		c-0.83,0-1.73,1.09-1.73,1.86v27.94c0,0.77,0.9,1.93,1.73,1.93h2.7v6.49H25.83V60.12z"/>
	<path d="M8.24,122.8h2.18c0.9,0,1.86-1.11,1.86-1.85V94.13c0-0.74-0.96-1.79-1.86-1.79H8.24v-6.48h20.43
		c12.01,0,18.57,4.07,18.57,13.69c0,9.37-6.94,13.63-19.02,13.63H24.5v9.62h5.2v6.23H8.24V122.8z M28.03,106.83
		c5.4,0,6.81-2.96,6.81-7.09c0-4.07-1.41-6.97-6.81-6.97H24.3v14.06L28.03,106.83L28.03,106.83z"/>
	<path d="M51.16,122.8h2.18c0.9,0,1.86-1.11,1.86-1.85V94.13c0-0.74-0.96-1.79-1.86-1.79h-2.18v-6.48h19.59
		c16,0,24.35,6.66,24.35,21.34c0,14.43-8.48,21.83-24.67,21.83H51.16V122.8z M70.43,122.5c8.09,0,12.08-4.62,12.08-14.98
		c0-10.3-3.92-14.74-12.08-14.74h-3.02v29.72L70.43,122.5L70.43,122.5z"/>
	<path d="M99.2,122.8h2.18c0.9,0,1.86-1.11,1.86-1.85V94.13c0-0.74-0.96-1.79-1.86-1.79H99.2v-6.48h36.55v13.32h-7.19l-1.09-6.35
		h-12.01v12.09h5.85l0.51-4.07h6.62v14.98h-6.62l-0.51-4.26h-5.85v11.22h5.2v6.23H99.21L99.2,122.8L99.2,122.8z"/>
	<polygon class="st1" points="97.57,40.76 97.57,19.52 118.81,40.76 	"/>
</g>
</svg>
