<?xml version="1.0" encoding="utf-8"?>
<!-- Generator: Adobe Illustrator 24.0.1, SVG Export Plug-In . SVG Version: 6.00 Build 0)  -->
<svg version="1.1" id="Layer_1" xmlns="http://www.w3.org/2000/svg" xmlns:xlink="http://www.w3.org/1999/xlink" x="0px" y="0px"
	 viewBox="0 0 144 144" style="enable-background:new 0 0 144 144;" xml:space="preserve">
<style type="text/css">
	.st0{fill:#E5322D;}
	.st1{fill:#FFFFFF;}
</style>
<path class="st0" d="M97.85,16.67c-3.67,1.77-6.43,4.76-8.44,8.14c-3.23-5.44-8.37-9.84-16.16-9.84s-17.34,6.61-17.34,17.78
	c0,11.3,9.43,16.66,14.11,19.69c4.99,3.23,13.52,9.11,19.39,19.98c5.88-10.87,14.4-16.75,19.39-19.98
	c3.51-2.28,9.71-5.87,12.57-12.31L97.85,16.67z M97.57,40.76V19.52l21.24,21.24L97.57,40.76L97.57,40.76z"/>
<path d="M25.83,60.12h2.63c0.83,0,1.8-1.16,1.8-1.93V30.25c0-0.77-0.96-1.86-1.8-1.86h-2.63v-6.74h21.13v6.74h-2.7
	c-0.83,0-1.73,1.09-1.73,1.86v27.94c0,0.77,0.9,1.93,1.73,1.93h2.7v6.49H25.83V60.12z"/>
<polygon class="st1" points="97.57,40.76 97.57,19.52 118.81,40.76 "/>
<path d="M10.72,125.23h2.65c0.84,0,1.81-1.17,1.81-1.94V95.12c0-0.78-0.97-1.88-1.81-1.88h-2.65v-6.8h21.3v6.8H29.3
	c-0.84,0-1.75,1.1-1.75,1.88v28.17c0,0.78,0.91,1.94,1.75,1.94h2.72v6.54h-21.3V125.23z"/>
<path d="M36.49,125.23h2.2c0.91,0,1.88-1.17,1.88-1.94V95.12c0-0.78-0.97-1.88-1.88-1.88h-2.2v-6.8h21.5l7.06,26.29h0.19l7.12-26.29
	H93.8v6.8h-2.27c-0.84,0-1.81,1.1-1.81,1.88v28.17c0,0.78,0.97,1.94,1.81,1.94h2.27v6.54H73.47v-6.54h4.08V95.64h-0.19l-10.04,36.13
	h-7.77l-9.91-36.13h-0.19v29.59h4.27v6.54H36.49V125.23z"/>
<path d="M94.71,109.37c0-15.09,8.55-23.51,22.54-23.51c3.3,0,5.96,0.32,7.38,0.58h8.68v14.89h-8.03l-1.23-6.61
	c-1.23-0.45-3.17-0.84-5.5-0.84c-6.28,0-10.75,4.21-10.75,14.96c0,10.3,3.04,15.8,9.58,15.8c2.27,0,3.5-0.19,4.79-0.58v-7.96h-3.89
	v-6.61h18.91v6.67h-1.3c-0.91,0-1.81,1.17-1.81,1.94v13.66h-6.28c0,0-0.58-1.36-1.81-1.36c-2.33,1.17-5.44,1.94-9.39,1.94
	C102.41,132.35,94.71,124.26,94.71,109.37L94.71,109.37z"/>
</svg>
