<?xml version="1.0" encoding="utf-8"?>
<!-- Generator: Adobe Illustrator 23.0.0, SVG Export Plug-In . SVG Version: 6.00 Build 0)  -->
<svg version="1.1" id="图层_1" xmlns="http://www.w3.org/2000/svg" xmlns:xlink="http://www.w3.org/1999/xlink" x="0px" y="0px"
	 viewBox="0 0 28.3 28.3" style="enable-background:new 0 0 28.3 28.3;" xml:space="preserve">
<style type="text/css">
	.st0{fill-rule:evenodd;clip-rule:evenodd;fill:#F277FF;}
	.st1{fill-rule:evenodd;clip-rule:evenodd;fill:url(#SVGID_1_);}
	.st2{fill-rule:evenodd;clip-rule:evenodd;fill:url(#SVGID_2_);}
	.st3{fill-rule:evenodd;clip-rule:evenodd;fill:url(#SVGID_3_);}
</style>
<path class="st0" d="M23.2,7.1c0,1.6-1.3,2.9-2.9,2.9c-1.6,0-2.9-1.3-2.9-2.9s1.3-2.9,2.9-2.9C21.9,4.2,23.2,5.5,23.2,7.1z"/>
<linearGradient id="SVGID_1_" gradientUnits="userSpaceOnUse" x1="12.551" y1="23.906" x2="12.551" y2="3.5945" gradientTransform="matrix(1 0 0 -1 0 28.0787)">
	<stop  offset="0" style="stop-color:#52FFF0"/>
	<stop  offset="1" style="stop-color:#4256ED"/>
</linearGradient>
<path class="st1" d="M21,18.2c0.1,0.8-0.5,1.6-1.4,1.6c-0.6,0-1.1-0.4-1.3-0.9l-4.3-12l0,0c-0.6-1.6-2.1-2.7-3.9-2.7
	c-1.7,0-3.2,1.1-3.8,2.6l-2.4,6c0.5-1.2,1.7-2.1,3.1-2.1c1.4,0,2.6,0.8,3.1,2l0,0l3.5,10.1c0.4,1.1,1.5,1.8,2.6,1.8l0.3,0
	c2.6,0,4.8-2.2,4.8-4.8C21.2,19.2,21.1,18.7,21,18.2z"/>
<linearGradient id="SVGID_2_" gradientUnits="userSpaceOnUse" x1="2.5346" y1="3.6662" x2="8.0346" y2="17.1662" gradientTransform="matrix(1 0 0 -1 0 28.0787)">
	<stop  offset="0" style="stop-color:#EF71FF"/>
	<stop  offset="1" style="stop-color:#4238FF"/>
</linearGradient>
<path class="st2" d="M1.4,20.5C0.8,22,1.5,23.7,3,24.3c1.5,0.6,3.1-0.1,3.7-1.6l3.4-10.1c-0.5-1.2-1.7-2-3.1-2
	c-1.4,0-2.6,0.8-3.1,2.1"/>
<linearGradient id="SVGID_3_" gradientUnits="userSpaceOnUse" x1="21.5279" y1="16.4457" x2="21.5279" y2="3.6008" gradientTransform="matrix(1 0 0 -1 0 28.0787)">
	<stop  offset="0" style="stop-color:#F277FF"/>
	<stop  offset="1" style="stop-color:#C56DF7"/>
</linearGradient>
<path class="st3" d="M25,13.4c-0.6-1.5-2.2-2.2-3.7-1.6l-0.1,0c-1.4,0.6-2.1,2.3-1.6,3.7l0.6,2.3c0,0.1,0.1,0.2,0.1,0.4
	c0.2,0.5,0.3,1,0.3,1.5c0,2.7-2.1,4.8-4.8,4.8h6.9l0.1,0c1.5,0.1,2.9-0.6,3.7-2c0.7-1.2,0.8-2.5,0.3-3.7l0,0L25,13.4z"/>
</svg>
