<?xml version="1.0" encoding="utf-8"?>
<!-- Generator: Adobe Illustrator 23.0.0, SVG Export Plug-In . SVG Version: 6.00 Build 0)  -->
<svg version="1.1" id="图层_1" xmlns="http://www.w3.org/2000/svg" xmlns:xlink="http://www.w3.org/1999/xlink" x="0px" y="0px"
	 viewBox="0 0 280.1 288.9" style="enable-background:new 0 0 280.1 288.9;" xml:space="preserve">
<style type="text/css">
	.st0{fill:url(#SVGID_1_);}
	.st1{fill:url(#SVGID_2_);}
	.st2{fill:url(#SVGID_3_);}
	.st3{fill:url(#SVGID_4_);}
	.st4{fill:url(#SVGID_5_);}
</style>
<g>
	
		<linearGradient id="SVGID_1_" gradientUnits="userSpaceOnUse" x1="80.1072" y1="1.2112" x2="129.0216" y2="48.375" gradientTransform="matrix(1 0 0 -1 0 290.9291)">
		<stop  offset="0" style="stop-color:#FF951A"/>
		<stop  offset="1" style="stop-color:#EE5601"/>
	</linearGradient>
	<path class="st0" d="M116.4,245.6c-2.5-1.5-5.8-0.7-7.3,1.9l-19.2,32.7c-1.5,2.6-0.7,5.8,1.9,7.3c2.5,1.5,5.8,0.7,7.3-1.9
		l19.2-32.7C119.8,250.3,118.9,247.1,116.4,245.6z"/>
	
		<linearGradient id="SVGID_2_" gradientUnits="userSpaceOnUse" x1="45.8742" y1="-1.1698" x2="114.7329" y2="65.2244" gradientTransform="matrix(1 0 0 -1 0 290.9291)">
		<stop  offset="0" style="stop-color:#FF951A"/>
		<stop  offset="1" style="stop-color:#EE5601"/>
	</linearGradient>
	<path class="st1" d="M98,230.8c-2.5-1.6-5.7-0.8-7.3,1.6l-30.9,48.4c-1.6,2.5-0.8,5.7,1.6,7.3c2.5,1.6,5.7,0.8,7.3-1.6l30.9-48.4
		C101.1,235.7,100.4,232.4,98,230.8z"/>
	
		<linearGradient id="SVGID_3_" gradientUnits="userSpaceOnUse" x1="38.3871" y1="26.5007" x2="84.9935" y2="71.439" gradientTransform="matrix(1 0 0 -1 0 290.9291)">
		<stop  offset="0" style="stop-color:#FF951A"/>
		<stop  offset="1" style="stop-color:#EE5601"/>
	</linearGradient>
	<path class="st2" d="M76.7,227.4c-0.2-1.4-1-2.7-2.1-3.5c-1.1-0.8-2.6-1.1-4-0.9c-1.4,0.2-2.6,1-3.4,2.2l-20.4,28.2
		c-0.9,1.2-1.2,2.6-1,3.9s1,2.7,2.1,3.5s2.6,1.1,4,0.9s2.6-1,3.4-2.2l20.4-28.2C76.6,230.2,76.9,228.8,76.7,227.4z"/>
	
		<linearGradient id="SVGID_4_" gradientUnits="userSpaceOnUse" x1="-2.5332" y1="12.8629" x2="288.4827" y2="293.4633" gradientTransform="matrix(1 0 0 -1 0 290.9291)">
		<stop  offset="0" style="stop-color:#FF951A"/>
		<stop  offset="1" style="stop-color:#EE5601"/>
	</linearGradient>
	<path class="st3" d="M242.1,236.8c0.2-0.2,0.4-0.4,0.6-0.6c0.9-1,1.8-2,2.7-3c0.2-0.2,0.4-0.5,0.6-0.7c1-1.1,2-2.3,2.9-3.5
		c0.2-0.2,0.4-0.5,0.6-0.7c0.8-1,1.7-2.1,2.5-3.2c0.2-0.2,0.3-0.4,0.5-0.6c0.9-1.2,1.8-2.4,2.7-3.7c0.2-0.3,0.4-0.6,0.6-0.9
		c0.8-1.2,1.6-2.3,2.3-3.5c0.1-0.1,0.2-0.3,0.3-0.4c0.8-1.3,1.6-2.6,2.4-3.9c0.2-0.3,0.4-0.6,0.5-0.9c0.8-1.3,1.5-2.6,2.2-4
		c0,0,0-0.1,0.1-0.1c0.7-1.4,1.4-2.7,2.1-4.1c0.2-0.3,0.3-0.7,0.5-1c0.7-1.4,1.3-2.8,2-4.2c0.1-0.1,0.1-0.2,0.1-0.3
		c0.6-1.3,1.2-2.7,1.7-4c0.1-0.3,0.3-0.7,0.4-1c0.6-1.4,1.1-2.9,1.7-4.3c0.1-0.2,0.2-0.4,0.2-0.6c0.5-1.3,0.9-2.6,1.3-3.9
		c0.1-0.3,0.2-0.6,0.3-1c0.5-1.5,0.9-3,1.3-4.4c0.1-0.3,0.2-0.6,0.2-0.9c0.4-1.3,0.7-2.7,1-4c0.1-0.3,0.1-0.6,0.2-0.9
		c0.4-1.5,0.7-3,1-4.6c0.1-0.3,0.1-0.7,0.2-1c0.3-1.4,0.5-2.8,0.7-4.1c0-0.3,0.1-0.5,0.1-0.8c0.2-1.6,0.5-3.1,0.6-4.7
		c0-0.4,0.1-0.7,0.1-1.1c0.2-1.5,0.3-2.9,0.4-4.4c0-0.2,0-0.3,0-0.5c0.1-1.6,0.2-3.2,0.3-4.8c0-0.4,0-0.8,0-1.2
		c0.1-1.6,0.1-3.3,0.1-5C280.6,62.9,217.8,0,140.3,0S0,62.9,0,140.3c0,1.4,0,2.9,0.1,4.3c0,0.4,0,0.9,0.1,1.3c0,1,0.1,2,0.1,3
		c0,0.5,0.1,1,0.1,1.5c0.1,1,0.2,2,0.2,3c0,0.4,0.1,0.9,0.1,1.3c0.1,1.4,0.3,2.8,0.5,4.2l0,0l0,0c4.4,32.8,20.1,62.1,43.1,83.7
		l7.2-12.4c-20.5-20.3-34.1-47.5-37-77.9l137.8-68.4c11.2-5.6,24.5,2,25.5,14.5l12,158.3c-15.2,6.5-31.9,10.1-49.5,10.1
		c-5.2,0-10.3-0.3-15.3-0.9l-7.5,13c7.4,1.2,15,1.8,22.8,1.8c17.8,0,34.9-3.3,50.6-9.4l0,0c0.1,0,0.2-0.1,0.3-0.1
		c1.4-0.6,2.9-1.1,4.3-1.7c0.3-0.1,0.6-0.2,0.8-0.4c1.3-0.5,2.5-1.1,3.7-1.7c0.2-0.1,0.5-0.2,0.7-0.3c1.4-0.7,2.8-1.3,4.1-2.1
		c0.3-0.2,0.6-0.3,0.9-0.5c1.2-0.7,2.5-1.3,3.7-2c0.2-0.1,0.3-0.2,0.5-0.3c1.3-0.8,2.6-1.6,4-2.4c0.3-0.2,0.6-0.4,0.9-0.6
		c1.3-0.8,2.5-1.6,3.8-2.4l0.1-0.1c1.3-0.9,2.5-1.8,3.8-2.7c0.3-0.2,0.6-0.4,0.9-0.6c1.2-0.9,2.5-1.8,3.7-2.8
		c0.1-0.1,0.1-0.1,0.2-0.2c1.2-0.9,2.3-1.8,3.4-2.8c0.3-0.2,0.5-0.4,0.8-0.7c1.2-1,2.3-2,3.4-3c0.1-0.1,0.3-0.3,0.4-0.4
		c1-0.9,2-1.9,3-2.8c0.2-0.2,0.5-0.5,0.7-0.7C240,239,241.1,237.9,242.1,236.8z"/>
	
		<linearGradient id="SVGID_5_" gradientUnits="userSpaceOnUse" x1="103.0466" y1="99.6742" x2="150.5175" y2="145.4462" gradientTransform="matrix(1 0 0 -1 0 290.9291)">
		<stop  offset="0" style="stop-color:#FF951A"/>
		<stop  offset="1" style="stop-color:#EE5601"/>
	</linearGradient>
	<circle class="st4" cx="126.3" cy="168.8" r="22.9"/>
</g>
</svg>
