<svg width="40" height="40" viewBox="0 0 40 40" fill="none" xmlns="http://www.w3.org/2000/svg">
<rect width="40" height="40" fill="white"/>
<path fill-rule="evenodd" clip-rule="evenodd" d="M8.74131 20.1974L16.1136 12.6482C18.08 10.6346 21.3065 10.5963 23.3202 12.5628C23.349 12.5909 23.3775 12.6194 23.4056 12.6482L23.4858 12.7304C25.4687 14.7608 25.4687 18.0027 23.4859 20.0331L16.1136 27.5823C14.1471 29.596 10.9206 29.6342 8.90699 27.6678C8.87817 27.6396 8.84969 27.6111 8.82154 27.5823L8.74131 27.5002C6.75845 25.4697 6.75845 22.2279 8.74131 20.1974Z" fill="#12D2AC"/>
<path fill-rule="evenodd" clip-rule="evenodd" d="M23.4116 12.6482L30.7037 20.1153C32.7312 22.1914 32.7312 25.5062 30.7037 27.5823C28.7372 29.596 25.5107 29.6342 23.4971 27.6678C23.4683 27.6396 23.4398 27.6112 23.4116 27.5823L16.1196 20.1153C14.0921 18.0392 14.0921 14.7244 16.1196 12.6482C18.0861 10.6346 21.3126 10.5963 23.3262 12.5628C23.355 12.5909 23.3835 12.6194 23.4116 12.6482Z" fill="#307AF2"/>
<path fill-rule="evenodd" clip-rule="evenodd" d="M23.496 12.7395L27.0491 16.3778L19.757 23.8449L12.465 16.3778L16.018 12.7395C18.0346 10.6745 21.3434 10.6353 23.4084 12.6519C23.4379 12.6808 23.4672 12.71 23.496 12.7395Z" fill="#0057FE"/>
</svg>
