<?xml version="1.0" encoding="utf-8"?>
<!-- Generator: Adobe Illustrator 23.0.0, SVG Export Plug-In . SVG Version: 6.00 Build 0)  -->
<svg version="1.1" id="图层_1" xmlns="http://www.w3.org/2000/svg" xmlns:xlink="http://www.w3.org/1999/xlink" x="0px" y="0px"
	 viewBox="0 0 40 40" style="enable-background:new 0 0 40 40;" xml:space="preserve">
<style type="text/css">
	.st0{fill:#F08BD2;filter:url(#Adobe_OpacityMaskFilter);}
	.st1{mask:url(#mask0_2400_9173_1_);}
	.st2{fill:#5EA9FE;}
	.st3{fill:url(#SVGID_1_);}
	.st4{fill:#F51896;}
	.st5{fill:#FC66FB;}
	.st6{fill:#695EE9;}
	.st7{fill:none;}
	.st8{fill:url(#SVGID_2_);}
	.st9{fill:#3128CD;}
	.st10{fill:url(#SVGID_3_);}
	.st11{fill:url(#SVGID_4_);}
</style>
<defs>
	<filter id="Adobe_OpacityMaskFilter" filterUnits="userSpaceOnUse" x="-205.9" y="-9.9" width="257.2" height="55.4">
		<feColorMatrix  type="matrix" values="1 0 0 0 0  0 1 0 0 0  0 0 1 0 0  0 0 0 1 0"/>
	</filter>
</defs>
<mask maskUnits="userSpaceOnUse" x="-205.9" y="-9.9" width="257.2" height="55.4" id="mask0_2400_9173_1_">
	<path class="st0" d="M22.7,4.9c0-0.7,0.5-1.2,1.2-1.2h14.6c0.7,0,1.2,0.5,1.2,1.2v29.8c0,0.7-0.5,1.2-1.2,1.2h-0.7
		c-5.3,0-9.2-1-11.5-2.9c-2.4-1.9-3.5-5.1-3.5-9.6V4.9z M0.5,20.2c0-2.3,0.3-4.5,0.9-6.4c0.6-2,1.5-3.7,2.8-5.2
		c2.7-3.2,6.6-4.8,11.6-4.8H17c0.7,0,1.2,0.5,1.2,1.2v29.8c0,0.7-0.5,1.2-1.2,1.2h-0.4c-5.2,0-9.2-1.5-12-4.4
		C1.8,28.8,0.5,25,0.5,20.2z"/>
</mask>
<g class="st1">
	<ellipse class="st2" cx="34.4" cy="32.2" rx="13.3" ry="13.3"/>
	
		<linearGradient id="SVGID_1_" gradientUnits="userSpaceOnUse" x1="11.3119" y1="44.3263" x2="11.3119" y2="13.3269" gradientTransform="matrix(1 0 0 -1 0 34.4162)">
		<stop  offset="0" style="stop-color:#3C2EE5"/>
		<stop  offset="1" style="stop-color:#5630FE"/>
	</linearGradient>
	<ellipse class="st3" cx="11.3" cy="5.6" rx="13.8" ry="15.5"/>
	<ellipse class="st4" cx="8.5" cy="26.2" rx="13.3" ry="14.3"/>
	<ellipse class="st5" cx="31.5" cy="11.3" rx="11.7" ry="13.2"/>
	<ellipse class="st6" cx="19.7" cy="18.8" rx="11.7" ry="12.2"/>
	<rect x="-205.9" y="-4.9" class="st7" width="257.2" height="41.4"/>
	
		<radialGradient id="SVGID_2_" cx="-204.8528" cy="130.9895" r="1" gradientTransform="matrix(-15.3686 -6.8519 -12.7549 28.6091 -1452.3112 -5137.1582)" gradientUnits="userSpaceOnUse">
		<stop  offset="0" style="stop-color:#382AE2"/>
		<stop  offset="0.9509" style="stop-color:#5EA9FE"/>
	</radialGradient>
	<rect x="-205.9" y="-4.9" class="st8" width="257.2" height="41.4"/>
	<path class="st9" d="M32.6,18.7c6.1-6.2,5.6-11.7,5.6-15.2h6.7l-5.4,32.5C34.7,32.8,26.5,25,32.6,18.7z"/>
	
		<linearGradient id="SVGID_3_" gradientUnits="userSpaceOnUse" x1="32.938" y1="13.885" x2="32.938" y2="-1.7958" gradientTransform="matrix(1 0 0 -1 0 34.4162)">
		<stop  offset="0" style="stop-color:#181B41"/>
		<stop  offset="0.9679" style="stop-color:#263299"/>
	</linearGradient>
	<path class="st10" d="M39.7,15.1c0,0-13.6,3.2-13.6,18c0,12.5,13.6,2.8,13.6,2.8V15.1z"/>
	
		<linearGradient id="SVGID_4_" gradientUnits="userSpaceOnUse" x1="0.9833" y1="15.36" x2="15.8492" y2="12.3351" gradientTransform="matrix(1 0 0 -1 0 34.4162)">
		<stop  offset="0" style="stop-color:#EE1AA8"/>
		<stop  offset="1" style="stop-color:#5D37C2"/>
	</linearGradient>
	<path class="st11" d="M0.2,21.7c0,13.6,10.8,14.2,18.3,14.2c-10.3,0-16.3-19-14.7-26.5C6-1.3,0.2,12,0.2,21.7z"/>
</g>
</svg>
