<?xml version="1.0" encoding="utf-8"?>
<!-- Generator: Adobe Illustrator 23.0.0, SVG Export Plug-In . SVG Version: 6.00 Build 0)  -->
<svg version="1.1" id="图层_1" xmlns="http://www.w3.org/2000/svg" xmlns:xlink="http://www.w3.org/1999/xlink" x="0px" y="0px"
	 viewBox="0 0 113.4 113.4" style="enable-background:new 0 0 113.4 113.4;" xml:space="preserve">
<style type="text/css">
	.st0{fill:none;}
	.st1{fill:url(#SVGID_1_);}
	.st2{fill:url(#SVGID_2_);}
	.st3{opacity:0.7;fill:url(#SVGID_3_);enable-background:new    ;}
	.st4{fill:#FFFFFF;filter:url(#Adobe_OpacityMaskFilter);}
	.st5{mask:url(#mask0_1428_1730_1_);}
	.st6{fill:url(#SVGID_4_);}
	.st7{fill:url(#SVGID_5_);}
	.st8{fill:url(#SVGID_6_);}
	.st9{opacity:0.16;fill:url(#SVGID_7_);enable-background:new    ;}
	.st10{opacity:0.5;fill:url(#SVGID_8_);enable-background:new    ;}
	.st11{fill:url(#SVGID_9_);}
	.st12{fill:url(#SVGID_10_);}
	.st13{fill:url(#SVGID_11_);}
	.st14{opacity:0.25;fill:url(#SVGID_12_);enable-background:new    ;}
	.st15{fill:url(#SVGID_13_);}
	.st16{fill:url(#SVGID_14_);}
	.st17{fill:url(#SVGID_15_);}
	.st18{fill:url(#SVGID_16_);}
	.st19{fill:url(#SVGID_17_);}
</style>
<rect x="1.8" y="7.6" class="st0" width="406" height="100"/>
<g>
	
		<linearGradient id="SVGID_1_" gradientUnits="userSpaceOnUse" x1="20.8524" y1="34.3969" x2="112.5542" y2="45.0883" gradientTransform="matrix(1 0 0 -1 0 97.6116)">
		<stop  offset="0" style="stop-color:#C62522"/>
		<stop  offset="0.416" style="stop-color:#E77056"/>
		<stop  offset="0.6995" style="stop-color:#E77056"/>
		<stop  offset="1" style="stop-color:#C1483F"/>
	</linearGradient>
	<path class="st1" d="M109.8,83.2L94.4,67.4c-0.7-0.8-1.6-0.8-1.6-0.8c-1.1,0-1.7,1-1.7,1c-6.4,10-18.6,10.4-20.5,10.4h-0.8
		c-11.3,0-20.4-9.2-20.4-20.6s9.2-20.6,20.4-20.6c0,0,0.1,0,0.3,0c1.9,0,11.5,0.5,19.6,9.1c0.5,0.5,1,1.1,1.4,1.6
		c0,0,0.5,0.6,1.4,0.6c0.8,0,1.4-0.7,1.4-0.7l14.9-17.3c0.4-0.4,0.6-1.1,0.5-1.7c-0.1-0.7-0.4-1.1-0.4-1.1
		c-4.5-5.9-10.2-10.7-16.9-14.1c-6.7-3.4-14.2-5.3-22.2-5.3c-27.2,0-49.2,22.2-49.2,49.6c0,13.8,5.6,26.2,14.5,35.2
		c8.9,8.9,21.2,14.4,34.7,14.4c16.1,0,30.3-7.8,39.3-19.9c0,0,0.5-0.8,1-1.5C111,84.3,109.8,83.2,109.8,83.2z"/>
</g>
<linearGradient id="SVGID_2_" gradientUnits="userSpaceOnUse" x1="27.0798" y1="70.4488" x2="77.7814" y2="-12.5098" gradientTransform="matrix(1 0 0 -1 0 97.6116)">
	<stop  offset="3.720240e-03" style="stop-color:#CB2D29"/>
	<stop  offset="0.3251" style="stop-color:#D53736"/>
	<stop  offset="1" style="stop-color:#CB2D29"/>
</linearGradient>
<path class="st2" d="M67.3,78c-9.7-1.2-17.3-9.2-17.9-19.2C42,48.2,36.9,35.9,34.7,22.7c-8.8,9-14.2,21.3-14.2,34.8
	c0,27.4,22,49.6,49.2,49.6c12.4,0,23.7-4.7,32.4-12.3C89.2,91.8,77.4,86,67.3,78z"/>
<linearGradient id="SVGID_3_" gradientUnits="userSpaceOnUse" x1="65.0556" y1="20.2083" x2="58.606" y2="-8.1465" gradientTransform="matrix(1 0 0 -1 0 97.6116)">
	<stop  offset="0" style="stop-color:#D14C3D;stop-opacity:1.000000e-02"/>
	<stop  offset="0.4922" style="stop-color:#A72520;stop-opacity:0.6369"/>
	<stop  offset="0.7728" style="stop-color:#941313"/>
</linearGradient>
<path class="st3" d="M77.5,85c-3.6-2.1-7-4.5-10.3-7c-0.3,0-0.6-0.1-0.9-0.1c0,0,0,0-0.1,0c-0.3,0-0.5-0.1-0.8-0.2c0,0-0.1,0-0.1,0
	c-0.2,0-0.5-0.1-0.7-0.2c-0.1,0-0.1,0-0.2-0.1c-0.2-0.1-0.4-0.1-0.6-0.2c-0.1,0-0.2-0.1-0.3-0.1C63.4,77.1,63.2,77,63,77
	c-0.1,0-0.2-0.1-0.3-0.1c-0.1,0-0.2-0.1-0.3-0.1C56.7,92.1,50.2,98,47.3,99.9c-0.5,0.4-1.1,0.6-1.7,0.9c0.9,0.5,1.8,1,2.7,1.4
	c8.4-1.6,16.1-5.5,23.3-11.7C73.8,88.5,75.9,86.6,77.5,85z"/>
<defs>
	<filter id="Adobe_OpacityMaskFilter" filterUnits="userSpaceOnUse" x="-2" y="-36.3" width="158.2" height="156.7">
		<feColorMatrix  type="matrix" values="1 0 0 0 0  0 1 0 0 0  0 0 1 0 0  0 0 0 1 0"/>
	</filter>
</defs>
<mask maskUnits="userSpaceOnUse" x="-2" y="-36.3" width="158.2" height="156.7" id="mask0_1428_1730_1_">
	<path class="st4" d="M109.8,83.2L94.4,67.4c-0.7-0.8-1.6-0.8-1.6-0.8c-1.1,0-1.7,1-1.7,1c-6.4,10-18.6,10.4-20.5,10.4h-0.8
		c-11.3,0-20.4-9.2-20.4-20.6s9.2-20.6,20.4-20.6c0,0,0.1,0,0.3,0c1.9,0,11.5,0.5,19.6,9.1c0.5,0.5,1,1.1,1.4,1.6
		c0,0,0.5,0.6,1.4,0.6c0.8,0,1.4-0.7,1.4-0.7l14.8-17.3c0.4-0.4,0.6-1.1,0.5-1.7c-0.1-0.7-0.4-1.1-0.4-1.1
		c-4.5-5.9-10.2-10.7-16.9-14.1c-6.7-3.4-14.2-5.3-22.2-5.3c-27.2,0-49.2,22.2-49.2,49.6c0,13.8,5.6,26.2,14.5,35.2
		c8.9,8.9,21.2,14.4,34.7,14.4c16.1,0,30.3-7.8,39.3-19.9c0,0,0.5-0.8,1-1.5C111,84.3,109.8,83.2,109.8,83.2z"/>
</mask>
<g class="st5">
	
		<radialGradient id="SVGID_4_" cx="154.3772" cy="91.2817" r="1" gradientTransform="matrix(29.6258 0 0 -29.9847 -4545.9561 2761.709)" gradientUnits="userSpaceOnUse">
		<stop  offset="0" style="stop-color:#D84540"/>
		<stop  offset="0.982" style="stop-color:#E77056;stop-opacity:1.000000e-02"/>
	</radialGradient>
	<ellipse class="st6" cx="27.6" cy="24.7" rx="29.6" ry="30"/>
	
		<radialGradient id="SVGID_5_" cx="156.666" cy="94.3554" r="1.0002" gradientTransform="matrix(25.8542 -26.1674 -26.1656 -25.8524 -1471.0457 6613.1914)" gradientUnits="userSpaceOnUse">
		<stop  offset="0.1238" style="stop-color:#C93E35"/>
		<stop  offset="0.982" style="stop-color:#E77056;stop-opacity:1.000000e-02"/>
	</radialGradient>
	<path class="st7" d="M136.5,48.1c20.7,21,25.9,49.7,11.7,64.1c-14.3,14.5-42.7,9.2-63.4-11.8c-20.7-21-25.9-49.7-11.7-64.1
		S115.8,27.1,136.5,48.1z"/>
	
		<radialGradient id="SVGID_6_" cx="154.9224" cy="91.2859" r="1" gradientTransform="matrix(32.9986 0 0 -33.3984 -5001.8145 3074.415)" gradientUnits="userSpaceOnUse">
		<stop  offset="0" style="stop-color:#BE463F"/>
		<stop  offset="0.982" style="stop-color:#E77056;stop-opacity:1.000000e-02"/>
	</radialGradient>
	<ellipse class="st8" cx="110.4" cy="25.6" rx="33" ry="33.4"/>
	
		<radialGradient id="SVGID_7_" cx="153.382" cy="90.93" r="0.999" gradientTransform="matrix(24.5654 3.0363 6.3856 -51.6636 -4277.1006 4249.8745)" gradientUnits="userSpaceOnUse">
		<stop  offset="0" style="stop-color:#FFFFFF"/>
		<stop  offset="0.982" style="stop-color:#E77056;stop-opacity:1.000000e-02"/>
	</radialGradient>
	<path class="st9" d="M95.9,20.8c-3.6,29.8-17.5,52.7-31.1,51c-13.6-1.7-21.6-27.2-18-57.1c3.6-29.8,17.5-52.7,31.1-51
		C91.4-34.5,99.5-9,95.9,20.8z"/>
	
		<radialGradient id="SVGID_8_" cx="155.3638" cy="91.2895" r="1.0001" gradientTransform="matrix(36.3486 0 0 -36.7681 -5561.1602 3429.0205)" gradientUnits="userSpaceOnUse">
		<stop  offset="0" style="stop-color:#D02C25"/>
		<stop  offset="0.982" style="stop-color:#E77056;stop-opacity:1.000000e-02"/>
	</radialGradient>
	<ellipse class="st10" cx="86.1" cy="72.5" rx="36.4" ry="36.8"/>
</g>
<g>
	
		<linearGradient id="SVGID_9_" gradientUnits="userSpaceOnUse" x1="18.9382" y1="41.2294" x2="50.3337" y2="1.8342" gradientTransform="matrix(1 0 0 -1 0 97.6116)">
		<stop  offset="0" style="stop-color:#F8E6C9"/>
		<stop  offset="0.3801" style="stop-color:#F6E0BE"/>
		<stop  offset="0.7875" style="stop-color:#F0C789"/>
		<stop  offset="1" style="stop-color:#EDBC73"/>
	</linearGradient>
	<path class="st11" d="M54.4,68.6c0,0-0.5,0-1-0.5C53,67.8,36.4,57.2,33,55c0,0-10.1,15.7-30,19.8c0,0-0.4,0.1-0.2,1
		C3,76.6,5,83.2,11.2,89.5c0,0,1.5,1.6,3.4,2.1c1.9,0.5,5.4,0.4,7.4,0c0,0-0.9,0.8-4.2,2.9c-0.2,0.1-0.3,0.3-0.2,0.5
		c0.1,0.3,0.4,0.6,1.1,1.1c1.3,0.9,5.6,3.6,8.3,4.6c0,0,1,0.7,5,0.7h3.7l2.9-1.6l-1.3,1.6c0,0,4.1,0.1,7.4-0.6
		c1-0.2,1.9-0.6,2.8-1.1c3.2-2.2,11.2-9.2,17.3-29.3L54.4,68.6z"/>
</g>
<linearGradient id="SVGID_10_" gradientUnits="userSpaceOnUse" x1="38.2155" y1="51.8687" x2="65.4482" y2="28.8268" gradientTransform="matrix(1 0 0 -1 0 97.6116)">
	<stop  offset="0" style="stop-color:#7EC0E5"/>
	<stop  offset="0.19" style="stop-color:#63B3DF"/>
	<stop  offset="0.4779" style="stop-color:#178CCB"/>
	<stop  offset="0.6748" style="stop-color:#0269B0"/>
	<stop  offset="1" style="stop-color:#025596"/>
</linearGradient>
<path class="st12" d="M66.4,55.9c0,0-23.7-9.9-25.2-10.5c-0.4-0.1-0.7-0.2-1-0.2c-0.9,0-1.2,0.5-1.2,0.5l-6.6,8.9
	c0,0,20.5,13.1,21,13.5s1,0.5,1,0.5l11.4,2.2c0,0,1.4-10.7,1.6-12.6C67.8,56.2,66.4,55.9,66.4,55.9z"/>
<linearGradient id="SVGID_11_" gradientUnits="userSpaceOnUse" x1="48.2143" y1="30.1044" x2="43.3452" y2="-6.2835" gradientTransform="matrix(1 0 0 -1 0 97.6116)">
	<stop  offset="0" style="stop-color:#EFC586;stop-opacity:1.000000e-02"/>
	<stop  offset="0.4493" style="stop-color:#EBB667"/>
	<stop  offset="0.8301" style="stop-color:#CF9A59"/>
	<stop  offset="1" style="stop-color:#BC864F"/>
</linearGradient>
<path class="st13" d="M54.4,68.6c0,0-0.1,0-0.3-0.1C41.7,93.8,27,100.8,27,100.8s1,0.7,5,0.7h3.7l2.9-1.6l-1.3,1.6
	c0,0,4.1,0.1,7.4-0.6c1-0.2,1.9-0.6,2.8-1.1c3.2-2.2,11.2-9.2,17.3-29.3L54.4,68.6z"/>
<linearGradient id="SVGID_12_" gradientUnits="userSpaceOnUse" x1="36.2325" y1="17.5252" x2="55.9573" y2="5.9529" gradientTransform="matrix(1 0 0 -1 0 97.6116)">
	<stop  offset="0.536" style="stop-color:#EFC586;stop-opacity:1.000000e-02"/>
	<stop  offset="1" style="stop-color:#BC864F"/>
</linearGradient>
<path class="st14" d="M54.4,68.6c0,0-0.1,0-0.3-0.1C41.7,93.8,27,100.8,27,100.8s1,0.7,5,0.7h3.7l2.9-1.6l-1.3,1.6
	c0,0,4.1,0.1,7.4-0.6c1-0.2,1.9-0.6,2.8-1.1c3.2-2.2,11.2-9.2,17.3-29.3L54.4,68.6z"/>
<linearGradient id="SVGID_13_" gradientUnits="userSpaceOnUse" x1="58.7427" y1="66.7662" x2="66.239" y2="63.9083" gradientTransform="matrix(1 0 0 -1 0 97.6116)">
	<stop  offset="0.1573" style="stop-color:#2D93CF"/>
	<stop  offset="0.6911" style="stop-color:#025C9F"/>
	<stop  offset="0.8927" style="stop-color:#026EB6"/>
</linearGradient>
<path class="st15" d="M50.2,49.1l16.1-34.3c0,0,1.1-2.5,4.2-1.4c3,1.3,1.3,4.4,1.3,4.4L58,52.4L50.2,49.1z"/>
<linearGradient id="SVGID_14_" gradientUnits="userSpaceOnUse" x1="70.1391" y1="63.4752" x2="31.5365" y2="71.535" gradientTransform="matrix(1 0 0 -1 0 97.6116)">
	<stop  offset="0.3348" style="stop-color:#459CD2"/>
	<stop  offset="0.4722" style="stop-color:#519CCF;stop-opacity:1.000000e-02"/>
</linearGradient>
<path class="st16" d="M53.5,49.6l13.9-32.3c0,0,0.7-1.5,0.6-2.4c-0.1-0.7-0.9-1-1.4-0.5c0,0-0.1,0.1-0.1,0.1
	c-0.1,0.2-0.2,0.4-0.2,0.4L50.2,49.1l2.7,0.8C52.9,49.9,53.4,50.1,53.5,49.6z"/>
<linearGradient id="SVGID_15_" gradientUnits="userSpaceOnUse" x1="38.4437" y1="28.2061" x2="43.5959" y2="36.1213" gradientTransform="matrix(1 0 0 -1 0 97.6116)">
	<stop  offset="0.8253" style="stop-color:#EDC483;stop-opacity:1.000000e-02"/>
	<stop  offset="0.8531" style="stop-color:#E4B979;stop-opacity:0.1128"/>
	<stop  offset="0.9486" style="stop-color:#C8955A;stop-opacity:0.5"/>
	<stop  offset="1" style="stop-color:#BF894F;stop-opacity:0.8"/>
</linearGradient>
<path class="st17" d="M49.1,77.5c1.7-2.7,3.3-5.7,4.9-9c-0.2-0.1-0.4-0.2-0.7-0.4C53,67.8,36.4,57.2,33,55c0,0-1.7,2.7-5.1,6.1
	L49.1,77.5z"/>
<linearGradient id="SVGID_16_" gradientUnits="userSpaceOnUse" x1="54.0727" y1="35.1482" x2="67.4958" y2="35.1482" gradientTransform="matrix(1 0 0 -1 0 97.6116)">
	<stop  offset="2.450000e-02" style="stop-color:#4199CF"/>
	<stop  offset="9.570000e-02" style="stop-color:#2282C5"/>
	<stop  offset="0.7111" style="stop-color:#025596;stop-opacity:1.000000e-02"/>
</linearGradient>
<path class="st18" d="M66.4,55.9c0,0-1.2-0.5-3.1-1.3c-2.8-1.2-3.3,0.4-3.3,0.4c0,0.1,0,0.1-0.1,0.2c0,0,0,0,0,0
	c0,0.1,0,0.1-0.1,0.2c0,0.1,0,0.1-0.1,0.2c-1.8,5.5-5.7,12.9-5.7,13c0.2,0.1,0.3,0.1,0.3,0.1l11.4,2.2c0,0,1.4-10.7,1.6-12.6
	C67.7,56.2,66.4,55.9,66.4,55.9z"/>
<linearGradient id="SVGID_17_" gradientUnits="userSpaceOnUse" x1="56.1479" y1="19.3645" x2="58.1578" y2="28.962" gradientTransform="matrix(1 0 0 -1 0 97.6116)">
	<stop  offset="0.7804" style="stop-color:#EDC483;stop-opacity:1.000000e-02"/>
	<stop  offset="0.8108" style="stop-color:#E4B979;stop-opacity:0.1128"/>
	<stop  offset="0.9151" style="stop-color:#C8955A;stop-opacity:0.5"/>
	<stop  offset="1" style="stop-color:#BF894F;stop-opacity:0.9"/>
</linearGradient>
<path class="st19" d="M61.8,78.5c0.9-2.4,1.9-5,2.8-7.9l-10.2-1.9c0,0-0.1,0-0.3-0.1c-1.5,3-2.9,5.7-4.4,8.2L61.8,78.5z"/>
</svg>
