<?xml version="1.0" encoding="utf-8"?>
<!-- Generator: Adobe Illustrator 23.0.0, SVG Export Plug-In . SVG Version: 6.00 Build 0)  -->
<svg version="1.1" id="图层_1" xmlns="http://www.w3.org/2000/svg" xmlns:xlink="http://www.w3.org/1999/xlink" x="0px" y="0px"
	 viewBox="0 0 412 411.6" style="enable-background:new 0 0 412 411.6;" xml:space="preserve">
<style type="text/css">
	.st0{fill:none;stroke:#A6A6A6;stroke-width:10.24;stroke-linecap:round;}
	.st1{fill:#FF6934;}
	.st2{fill:#EBEBEB;}
</style>
<title>Dark</title>
<desc>Created with Sketch.</desc>
<g id="Design">
	<g id="social" transform="translate(-50.000000, -206.000000)">
		<g id="Dark" transform="translate(52.480000, 205.720000)">
			<path id="Path" class="st0" d="M58.4,146.6L5.1,194.2c-2.3,2-2.5,5.5-0.4,7.8c0.2,0.2,0.4,0.4,0.6,0.5l53.2,45"/>
			<path class="st0" d="M348.7,146.6l53.3,47.6c2.3,2,2.5,5.5,0.4,7.8c-0.2,0.2-0.4,0.4-0.6,0.5l-53.2,45"/>
			<g id="cdnjs" transform="translate(73.262791, 0.892608)">
				<path id="cdn" class="st1" d="M0.3,196.6c0-4.3,0.7-8.3,2-12c1.3-3.7,3.2-6.9,5.7-9.7s5.5-4.9,9-6.4s7.5-2.3,11.9-2.3
					c5.5,0,10.6,1,15.5,3l-2.9,10.9c-1.5-0.7-3.3-1.2-5.3-1.7s-4-0.7-6.2-0.7c-5.2,0-9.2,1.6-11.9,4.9c-2.7,3.3-4.1,7.9-4.1,13.9
					c0,5.8,1.3,10.3,3.9,13.7c2.6,3.4,6.9,5,13,5c2.3,0,4.5-0.2,6.7-0.7c2.2-0.4,4.1-1,5.8-1.7l1.9,11.1c-1.5,0.7-3.7,1.4-6.7,2
					c-3,0.6-6.1,0.9-9.2,0.9c-4.9,0-9.2-0.8-12.9-2.3s-6.7-3.6-9.1-6.3s-4.2-5.9-5.4-9.6S0.3,200.9,0.3,196.6z M66,196.4
					c0,5.9,1.4,10.5,4.2,13.9c2.8,3.4,6.7,5,11.6,5c2.1,0,4-0.1,5.5-0.3c1.5-0.2,2.7-0.4,3.7-0.6v-33.2c-1.2-0.8-2.7-1.6-4.7-2.3
					c-2-0.7-4-1.1-6.2-1.1c-4.9,0-8.4,1.7-10.7,5C67.2,186.2,66,190.7,66,196.4z M104.4,223.7c-2.7,0.8-6,1.5-10,2.2s-8.2,1-12.7,1
					c-4.6,0-8.7-0.7-12.3-2.1c-3.6-1.4-6.7-3.4-9.2-6c-2.5-2.6-4.5-5.8-5.9-9.5c-1.4-3.7-2-7.9-2-12.6c0-4.6,0.6-8.7,1.7-12.4
					c1.1-3.7,2.8-6.9,5-9.6c2.2-2.7,4.9-4.7,8.1-6.1c3.2-1.4,6.8-2.2,10.9-2.2c2.8,0,5.3,0.3,7.4,1s4,1.4,5.5,2.2v-27.8l13.4-2.2
					V223.7z M122.4,169.5c2.6-0.7,5.9-1.4,10.1-2.1s8.7-1,13.7-1c4.7,0,8.7,0.6,11.8,1.9s5.7,3.1,7.6,5.4c1.9,2.3,3.2,5.1,4,8.4
					c0.8,3.3,1.2,6.9,1.2,10.8v32.5h-13.4V195c0-3.1-0.2-5.7-0.6-7.9s-1.1-3.9-2-5.3c-0.9-1.4-2.2-2.4-3.8-3
					c-1.6-0.6-3.5-0.9-5.8-0.9c-1.7,0-3.5,0.1-5.3,0.3c-1.8,0.2-3.2,0.4-4.1,0.6v46.7h-13.4V169.5z"/>
				<path id="js" class="st2" d="M180.6,246c-1,0-2.3-0.1-4-0.3c-1.7-0.2-3.3-0.5-4.6-1.1l1.8-10.9c1.6,0.5,3.6,0.8,5.9,0.8
					c3.1,0,5.3-0.9,6.5-2.7s1.9-4.5,1.9-8.1v-56.1h13.4v56.3c0,7.5-1.8,13.1-5.4,16.7C192.4,244.2,187.3,246,180.6,246z
					 M202.8,150.7c0,2.5-0.8,4.5-2.4,6c-1.6,1.5-3.5,2.2-5.8,2.2c-2.3,0-4.2-0.7-5.9-2.2c-1.6-1.5-2.4-3.5-2.4-6
					c0-2.6,0.8-4.6,2.4-6.1s3.6-2.2,5.9-2.2c2.2,0,4.1,0.7,5.8,2.2S202.8,148.1,202.8,150.7z M233.8,215.8c3.5,0,6.1-0.4,7.7-1.3
					c1.6-0.8,2.4-2.3,2.4-4.4c0-1.9-0.9-3.5-2.6-4.8s-4.6-2.6-8.6-4.1c-2.4-0.9-4.7-1.8-6.7-2.8c-2-1-3.8-2.2-5.3-3.5
					c-1.5-1.3-2.6-2.9-3.5-4.8c-0.8-1.9-1.3-4.2-1.3-6.9c0-5.3,2-9.5,5.9-12.6c3.9-3.1,9.2-4.6,15.9-4.6c3.4,0,6.6,0.3,9.7,0.9
					c3.1,0.6,5.4,1.2,7,1.8l-2.4,10.8c-1.5-0.7-3.4-1.3-5.6-1.8s-4.9-0.8-8-0.8c-2.7,0-4.9,0.5-6.6,1.4s-2.5,2.3-2.5,4.3
					c0,1,0.2,1.8,0.5,2.5c0.3,0.7,0.9,1.4,1.7,2c0.8,0.6,1.9,1.3,3.2,1.9c1.3,0.6,2.9,1.3,4.9,1.9c3.2,1.2,5.9,2.3,8.1,3.5
					c2.2,1.1,4,2.4,5.5,3.9s2.5,3.1,3.2,4.9c0.7,1.8,1,4.1,1,6.6c0,5.5-2,9.7-6.1,12.6c-4.1,2.8-9.9,4.3-17.5,4.3
					c-5.1,0-9.2-0.4-12.3-1.3c-3.1-0.8-5.3-1.5-6.5-2l2.3-11.2c2,0.8,4.4,1.6,7.1,2.3C227.1,215.4,230.3,215.8,233.8,215.8z"/>
			</g>
		</g>
	</g>
</g>
</svg>
