<?xml version="1.0" encoding="utf-8"?>
<!-- Generator: Adobe Illustrator 23.0.0, SVG Export Plug-In . SVG Version: 6.00 Build 0)  -->
<svg version="1.1" id="图层_1" xmlns="http://www.w3.org/2000/svg" xmlns:xlink="http://www.w3.org/1999/xlink" x="0px" y="0px"
	 viewBox="0 0 56.7 56.7" style="enable-background:new 0 0 56.7 56.7;" xml:space="preserve">
<style type="text/css">
	.st0{fill:#375FF5;}
	.st1{fill:#FFFFFF;}
</style>
<title>资源 1</title>
<path class="st0" d="M0.2,24.2c0-8.4,0-12.6,1.6-15.8c1.4-2.8,3.7-5.1,6.6-6.6c3.2-1.6,7.4-1.6,15.8-1.6h8.3c8.4,0,12.6,0,15.9,1.6
	c2.8,1.4,5.1,3.7,6.6,6.6c1.6,3.2,1.6,7.4,1.6,15.8v8.3c0,8.4,0,12.6-1.6,15.8c-1.4,2.8-3.7,5.1-6.6,6.6c-3.2,1.6-7.4,1.6-15.8,1.6
	h-8.3c-8.4,0-12.6,0-15.8-1.6c-2.8-1.4-5.1-3.7-6.6-6.6c-1.6-3.2-1.6-7.4-1.6-15.8V24.2z"/>
<path class="st1" d="M41.6,38.2c-2.9,5.4-11.6,6.5-19.4,2.2L22,40.3c-0.2-0.1-0.2-0.3-0.1-0.5c0,0,0,0,0,0l0,0
	c0.1-0.2,0.3-0.2,0.5-0.1c2.4,1.2,5.3,0.4,6.8-1.9c1.3-2.4,0.1-5.5-2.6-7c-1.5-0.9-3.4-1-5-0.4c4.2-3.7,9.3-6.3,14.8-7.4
	C41.7,27.4,44.1,33.6,41.6,38.2L41.6,38.2z"/>
<path class="st1" d="M47.6,17.7c-12-6.9-27.7-5.3-39,7.6c-0.5,0.5-0.5,1.3,0.1,1.8c0.1,0.1,0.2,0.1,0.2,0.2l0.8,0.5
	c-2.8,0.8-4.8,2.7-4.8,4.8c0,2.7,3,4.8,7,5.2c0.1,0,0.2-0.1,0.2-0.2c0,0,0-0.1,0-0.1c-0.8-0.7-1.3-1.8-1.1-2.9
	c0.4-2,3.2-2.1,5.1-1.9c1,0.1,2.1-0.3,2.8-1.1c0.5-0.5,1.1-1.1,1.6-1.6c7.6-6.9,18-9.9,28.1-8.1c0.7,0.1,1.3,0.2,2,0.4
	c0.6,0.2,1.2-0.2,1.4-0.7c0.1-0.4,0-0.9-0.4-1.2c-1.2-1-2.5-1.9-3.8-2.7L47.6,17.7z"/>
</svg>
