<?xml version="1.0" encoding="utf-8"?>
<!-- Generator: Adobe Illustrator 23.0.0, SVG Export Plug-In . SVG Version: 6.00 Build 0)  -->
<svg version="1.1" id="图层_1" xmlns="http://www.w3.org/2000/svg" xmlns:xlink="http://www.w3.org/1999/xlink" x="0px" y="0px"
	 viewBox="0 0 212.6 212.6" style="enable-background:new 0 0 212.6 212.6;" xml:space="preserve">
<style type="text/css">
	.st0{fill:#454F61;}
	.st1{fill:#8E7766;}
	.st2{display:none;fill:#FFFFFF;}
</style>
<g>
	<path class="st0" d="M189.2,106.3c0,2.4-0.1,4.8-0.3,7.1c-0.1,1.1-0.2,2.2-0.4,3.3c0,0.3-0.1,0.6-0.1,0.9c-0.1,1.1,0.2-1,0,0.2
		c-0.1,0.7-0.2,1.3-0.3,1.9c-0.8,4.5-1.7,8.9-3.1,13.1c-0.8,2.1-1.4,4.3-2.3,6.4c-0.3,0.8,0,0,0.1-0.2c-0.1,0.3-0.3,0.6-0.4,0.9
		c-0.2,0.5-0.4,1-0.7,1.4c-0.5,1-0.9,2-1.4,3c-2,4-4.3,7.9-6.9,11.5c-0.6,0.9-1.1,1.7-1.7,2.4c0.7-1-0.3,0.4-0.5,0.6
		c-0.4,0.5-0.8,1-1,1.4c-1.3,1.7-2.9,3.3-4.4,5c-1.5,1.6-3.1,3.1-4.8,4.7c-0.8,0.7-1.4,1.3-2.3,1.9c-0.4,0.3-0.8,0.7-1.1,1
		c-0.3,0.2-0.5,0.4-0.8,0.6c-0.4,0.3-0.7,0.5-0.1,0.1c-3.5,2.7-7.1,5.2-11,7.3c-1.8,1-3.7,2-5.6,2.9c-0.6,0.3-1,0.5-1.6,0.8
		c-0.2,0.1-0.4,0.2-0.6,0.3c1-0.4,0,0-0.2,0.1c-1,0.5-2.1,0.9-3.1,1.2c-4.1,1.6-8.4,2.8-12.7,3.6c-1,0.2-2.3,0.5-3.3,0.7
		c-0.6,0.1-1,0.2-1.5,0.3c-1,0.2,1-0.1-0.2,0c-0.3,0-0.7,0.1-0.9,0.1c-2.3,0.3-4.7,0.5-7,0.6c-4.6,0.2-9.1,0-13.6-0.6
		c-0.3,0-0.7-0.1-0.9-0.1c0.1,0,0.9,0.1,0.2,0c-0.6-0.1-1-0.2-1.7-0.3c-1.1-0.2-2.4-0.4-3.5-0.7c-2.1-0.5-4.2-1-6.3-1.6
		c-2.2-0.7-4.3-1.3-6.4-2.1c-1-0.4-2-0.8-3-1.2s-0.2-0.1,0,0c-0.3-0.1-0.6-0.3-0.9-0.4c-0.6-0.3-1.1-0.5-1.6-0.8
		c-3.9-1.9-7.6-4-11.2-6.4c-0.9-0.6-1.7-1.2-2.6-1.8c-0.5-0.3-1-0.7-1.3-1c-0.2-0.1-0.4-0.3-0.5-0.4c-0.2-0.1-1.2-1-0.4-0.3
		c-1.7-1.3-3.3-2.7-5-4.2c-3.1-3-6.2-6.1-9-9.5c-0.3-0.4-0.7-0.8-0.9-1.2c-0.2-0.2-1.1-1.5-0.5-0.6c-0.8-1-1.3-1.9-2-2.8
		c-1.2-1.8-2.4-3.6-3.5-5.5s-2.2-3.9-3.1-5.9c-0.5-1-0.9-1.9-1.2-2.8c-0.2-0.5-0.5-1-0.7-1.4c-0.1-0.3-0.3-0.6-0.4-0.9
		c0.4,1,0-0.1-0.1-0.3c-1.6-4.2-3-8.6-4-13c-0.6-2.2-1-4.5-1.2-6.7c-0.1-0.6-0.2-1.1-0.3-1.8c0,0.1,0.1,1,0,0.2c0-0.3-0.1-0.7-0.1-1
		c-0.1-1.2-0.3-2.3-0.4-3.5c-0.4-4.8-0.4-9.5,0-14.1c0.1-1.1,0.2-2.2,0.4-3.3c0-0.3,0.1-0.6,0.1-0.9c-0.2,1,0.1-0.7,0,0
		c0.1-0.7,0.2-1.3,0.3-1.9c0.4-2.3,0.9-4.6,1.3-6.8c1-4.4,2.5-8.6,4.1-12.8c0.4-1-0.4,0.9,0.1-0.2c0.1-0.2,0.2-0.4,0.3-0.6
		c0.2-0.6,0.5-1,0.7-1.6c0.5-1.1,1-2.1,1.5-3.1c1-2,2-3.9,3.1-5.8c1.1-1.8,2.3-3.7,3.5-5.5c0.3-0.4,0.6-0.9,0.9-1.2
		c0.2-0.3,0.4-0.5,0.6-0.8c0,0,0.7-0.9,0.2-0.3c-0.4,0.6,0.2-0.3,0.3-0.3c0.2-0.3,0.4-0.5,0.6-0.8c0.4-0.5,0.8-1,1.1-1.4
		c2.8-3.3,5.7-6.5,9-9.4c0.9-0.8,1.5-1.4,2.4-2c0.5-0.4,0.9-0.8,1.2-1c0.2-0.1,0.3-0.3,0.5-0.4c0.2-0.1,0.3-0.3,0.5-0.4
		c-0.5,0.4-0.5,0.4-0.1,0.1c1.7-1.3,3.4-2.6,5.2-3.8c3.6-2.4,7.4-4.6,11.4-6.4c0.5-0.2,0.9-0.5,1.3-0.7c0.2-0.1,1.1-0.6,0.1-0.1
		c0.2-0.1,0.4-0.2,0.6-0.3c1.1-0.5,2.2-0.9,3.2-1.3c2.1-0.8,4.2-1.5,6.3-2c2.2-0.7,4.4-1.1,6.6-1.6c1-0.2,2-0.4,3.1-0.6
		c0.6-0.1,1-0.2,1.7-0.3c-1,0.1,0.7-0.1,0,0c0.4,0,0.8-0.1,1-0.1c4.6-0.6,9.1-0.7,13.8-0.5c2.3,0.1,4.6,0.3,6.8,0.6
		c0.3,0,0.6,0.1,0.9,0.1c-1-0.2-0.1,0,0.2,0c0.6,0.1,1,0.2,1.5,0.3c1,0.2,2.3,0.4,3.3,0.7c4.4,1,8.7,2.1,12.9,3.7c1,0.4,2,0.8,3,1.2
		c-0.6-0.3,1,0.4,0,0c0.3,0.1,0.5,0.2,0.8,0.3c0.6,0.3,1,0.5,1.6,0.8c2,1,4,2,5.9,3c1.9,1.1,3.7,2.2,5.5,3.4c1,0.6,1.7,1.2,2.6,1.8
		c0.4,0.3,0.9,0.6,1.1,1c0.3,0.2,0.5,0.4,0.8,0.6c0.1,0.1,1,0.8,0.1,0.1c3.3,2.7,6.7,5.6,9.6,8.9c1.4,1.6,3,3.2,4.3,5
		c0.3,0.4,0.7,0.8,1,1.2c0.2,0.3,0.4,0.5,0.6,0.8c0.7,0.9-0.6-0.8,0.1,0.1c0.7,1,1.2,1.8,1.9,2.7c2.5,3.6,4.7,7.3,6.7,11.3
		c0.5,1,1,2,1.4,3c0.2,0.5,0.5,1,0.7,1.4c0.1,0.2,0.2,0.4,0.3,0.6c-0.5-1.1,0.1,0.2,0.2,0.5c0.9,2.1,1.5,4.2,2.2,6.3
		c1.3,4.4,2.4,8.9,3.1,13.3c0.1,0.6,0.2,1,0.2,1.6c-0.1-1.2,0.1,0.5,0.1,0.9c0.1,1.2,0.3,2.3,0.4,3.5
		C189.2,101.8,189.2,104,189.2,106.3c0,2.2,1.9,4.3,4.1,4.2s4.1-1.9,4.1-4.2c0-19.1-5.8-38.2-16.8-53.8c-10.9-15.5-26-27.4-43.5-34
		c-17.8-6.7-37.9-7.3-56.2-2c-17.6,5.2-33.6,15.8-45.2,30.2c-12,15.1-19.2,33.4-20.8,52.8c-1.4,19.2,3.1,38.9,13,55.3
		c9.4,15.9,23.6,29,40.3,36.6c17.6,8.1,37.4,10.4,56.5,6.4c18-3.7,34.9-13.3,47.4-27c12.8-13.6,21.3-31.2,24.2-49.9
		c0.8-4.9,1-9.8,1.1-14.7c0-2.2-1.9-4.3-4.1-4.2C191.2,102.2,189.2,104,189.2,106.3z"/>
	<path class="st0" d="M13.9,168.6c1.7,0,3.3,0,5,0c4.7,0,9.1,0,13.8,0c6.8,0,13.5,0,20.3,0c8.3,0,16.6,0,24.9,0c9,0,18.1,0,27.1,0
		c9.1,0,18.4,0,27.4,0c8.6,0,17.1,0,25.6,0c7.1,0,14.4,0,21.5,0c5.1,0,10.4,0,15.5,0c2.5,0,5,0.1,7.3,0c0.1,0,0.2,0,0.4,0
		c3.5,0,3.5-5.6,0-5.6c-1.7,0-3.3,0-5.1,0c-4.7,0-9.1,0-13.8,0c-6.8,0-13.5,0-20.3,0c-8.3,0-16.6,0-24.9,0c-9,0-18.1,0-27.1,0
		c-9.1,0-18.4,0-27.4,0c-8.6,0-17.1,0-25.6,0c-7.1,0-14.4,0-21.5,0c-5.1,0-10.4,0-15.5,0c-2.5,0-5-0.1-7.3,0c-0.1,0-0.2,0-0.4,0
		C10.4,163.1,10.4,168.6,13.9,168.6z"/>
	<path class="st0" d="M65.2,26.9c0,5.2,0,10.3,0,15.5c0,8.3,0,16.7,0,24.9c0,1.8,0,3.8,0,5.6s2.8,1.8,2.8,0c0-5.2,0-10.3,0-15.5
		c0-8.3,0-16.7,0-24.9c0-1.8,0-3.8,0-5.6C68,25.2,65.2,25.2,65.2,26.9z"/>
	<path class="st0" d="M83.5,85.2H49.7c1.6-8,8.7-14,17-14C74.9,71.2,81.9,77.1,83.5,85.2z"/>
	<path class="st0" d="M83.5,83.8c-9.9,0-19.8,0-29.6,0c-1.3,0-2.8,0-4.2,0c0.5,0.6,0.9,1.2,1.2,1.8c1.2-5.7,5.3-10.5,10.9-12.3
		c5.5-1.8,11.6-0.4,15.8,3.8c2.4,2.3,3.9,5.2,4.6,8.5c0.4,1.8,3,1,2.7-0.8c-1.4-6.6-6.3-12.1-12.6-14.1c-6.5-2.1-13.6-0.4-18.6,4.4
		c-2.8,2.6-4.7,6-5.3,9.8c-0.2,0.9,0.4,1.8,1.2,1.8c9.9,0,19.8,0,29.6,0c1.3,0,2.8,0,4.2,0C85.2,86.6,85.2,83.8,83.5,83.8z"/>
	<path class="st0" d="M78.3,165.9c0-4.4,0-8.7,0-13c0-7.6,0-15.1,0-22.8c0-2.4,0-5,0-7.3c0-0.5,0-1,0-1.4c0-0.1,0,0,0,0.1
		c0-0.4,0.1-0.6,0.5-0.8c-0.2,0.1,0.2,0,0.2,0c0.2,0,0.3,0,0.5,0c3.1,0,6.5,0,9.6,0c0.1,0,0.9,0,0.8,0c0.4,0,0.2,0,0.5,0.2
		c-0.3-0.1,0.2,0.3,0.1,0.1c0.1,0.3,0.1,0.4,0.1,0.4c0,0.7,0,1.4,0,2c0,6.9,0,13.6,0,20.6c0,0.7,0,1.4,0,2c0.1,3.4,2.7,6,6,6.2
		c1.1,0.1,2.5,0,3.6,0.1c6.8,0.1,13.5,0.2,20.3,0.3c6.1,0.1,12.2,0.2,18.3,0.3c0.5,0,1,0,1.4,0c2.6,0,4.8-1.5,5.7-3.9
		c0.9-2,0.5-4.8,0.5-6.9c0-6.9,0-13.8,0-20.8c0-0.5,0-1,0-1.5c-1,1-1.8,1.9-2.8,2.8c3.9,0,7.8,0.1,11.8,0.1c0.2,0,0.5,0,0.7,0
		c0.1,0,0.3,0,0.4,0c-0.2,0-0.3-0.1,0.2,0.1c-0.4-0.1,0.4,0.2,0.5,0.2c-0.4-0.3,0.5,0.6,0.3,0.3c0.3,0.4,0.3,0.4,0.3,0.8
		c0-0.3,0,0.2,0,0.3c0,1,0,1.9,0,2.8c0,9.6,0,19.2,0,29c0,3,0,5.9,0,9c0,3.6,5.4,3.6,5.4,0c0-7.9,0-15.8,0-23.7c0-4.7,0-9.3,0-13.9
		c0-1,0-1.9,0-3c-0.1-4-3-7-7-7.1c-4.2-0.2-8.4-0.1-12.6-0.1c-1.4,0-2.8,1.3-2.8,2.8c0,5.7,0,11.4,0,17.1c0,3,0,5.8,0,8.9
		c0,0.3,0,0.6,0,0.9v0.1c0-0.4,0,0.3,0,0.1c0,0.1,0,0.1-0.2,0.3c0.2-0.3-0.3,0.2,0,0.1c-0.4,0.2-0.1,0.1-0.5,0.1H140
		c-0.2,0-0.4,0-0.6,0c-5.4-0.1-10.9-0.2-16.3-0.2c-7.1-0.1-14.3-0.2-21.4-0.3c-1.7,0-3.5,0-5.2-0.1c-0.1,0-0.2,0-0.3,0
		c-0.3,0-0.6-0.4-0.6-0.6c0-0.7,0-1.3,0-1.9c0-6.9,0-13.6,0-20.6c0-0.8,0-1.5,0-2.1c-0.1-3.1-2.3-5.7-5.3-6.1
		c-1.1-0.2-2.4-0.1-3.5-0.1c-1.8,0-3.6,0-5.4,0c-1.2,0-2.7-0.1-3.9,0.2c-2.9,0.7-4.6,3.2-4.7,6c-0.1,1.5,0,3,0,4.5
		c0,7.1,0,14.3,0,21.3c0,5.8,0,11.7,0,17.6c0,0.3,0,0.7,0,1C72.9,169.5,78.3,169.5,78.3,165.9z"/>
	<path class="st1" d="M128.6,143.3h-20.2c-6,0-11-5-11-11.1v-15c0-6.1,5-11.1,11-11.1h20.2c6,0,11,5,11,11.1v15
		C139.5,138.2,134.6,143.3,128.6,143.3z"/>
</g>
<path class="st2" d="M330.1,151.9c0,1.6-0.4,2.2-2.1,2.1c-3.5-0.1-7.1-0.1-10.7,0c-1.3,0-1.9-0.3-1.9-1.8c0.1-12.4,0.1-24.7,0-37
	c0-1.4,0.3-1.9,1.8-1.9c3.6,0.1,7.3,0.1,11,0c1.6-0.1,2,0.6,1.9,2c-0.1,6.1,0,12.2,0,18.3C330,139.7,330,145.8,330.1,151.9z"/>
</svg>
