<?xml version="1.0" encoding="utf-8"?>
<!-- Generator: Adobe Illustrator 23.0.0, SVG Export Plug-In . SVG Version: 6.00 Build 0)  -->
<svg version="1.1" id="图层_1" xmlns="http://www.w3.org/2000/svg" xmlns:xlink="http://www.w3.org/1999/xlink" x="0px" y="0px"
	 viewBox="0 0 513.1 513.1" style="enable-background:new 0 0 513.1 513.1;" xml:space="preserve">
<style type="text/css">
	.st0{clip-path:url(#SVGID_2_);}
	.st1{fill:url(#SVGID_3_);}
	.st2{fill:#FFFFFF;}
</style>
<g>
	<defs>
		<rect id="SVGID_1_" x="-0.5" y="147.7" width="514" height="206.6"/>
	</defs>
	<clipPath id="SVGID_2_">
		<use xlink:href="#SVGID_1_"  style="overflow:visible;"/>
	</clipPath>
	<g class="st0">
		
			<linearGradient id="SVGID_3_" gradientUnits="userSpaceOnUse" x1="-0.3114" y1="368.1111" x2="513.0675" y2="368.1111" gradientTransform="matrix(1 0 0 -1 0 619.2249)">
			<stop  offset="0" style="stop-color:#80E7FF"/>
			<stop  offset="0.24" style="stop-color:#726FF7"/>
			<stop  offset="0.5" style="stop-color:#F482AE"/>
			<stop  offset="0.75" style="stop-color:#DCF980"/>
			<stop  offset="1" style="stop-color:#7BFCE9"/>
		</linearGradient>
		<path class="st1" d="M446.9,353.9c-10.8,0-20.2-2.6-27.7-7.5l-2.8,5.3H256.6c-4,1.5-8.3,2.2-12.9,2.2h-12.3
			c-6.9,0-13.1-1.8-18.2-5.2c-7.3,3.4-15.6,5.2-24.9,5.2H176c-12.5,0-23.1-3.4-31.1-9.9l-1.3,7.7c-0.3,1.6-50.3-0.1-55.4,0
			c-4.6,0.1-8.9,1.3-13.5,1.7c-22.3,2.3-47.6,0.3-62.9-18C1.4,323.1-2.5,306,0.8,287c5.9-33.6,30.6-55.3,62.9-55.3h12.3
			c2.7,0,5.3,0.1,7.8,0.4c-2.2-8.6-2.4-18.1-0.7-28.2c3.1-17.7,12.2-34.4,27.2-44.7c17-11.7,40.6-13.2,60.4-9.3
			c10.4,2,20,5.4,27.6,13.1c1.7,1.8,3.3,3.7,4.8,5.8h280.8l-43,82.8c4.9-1.3,10.1-1.9,15.4-1.9h12.3c19.2,0,29.7,7.8,35.2,14.3
			c12.9,15.4,10.5,40.2,4.2,58c-7.4,20.9-27.2,31.9-48.8,31.9H446.9L446.9,353.9z"/>
		<path d="M494.3,271.9c-5.5-6.6-14.2-9.9-25.8-9.9h-12.3c-5.3,0-10.3,0.7-14.8,2.2h-21l43.2-83.1h-48l-3.8,8.7l-0.7-8.7h-131
			c-3-1.5-6.7-2.2-11.1-2.2h-12.3c-3.2,0-6.8,0.6-10.4,2.2H196c-1.6-3.6-3.8-6.8-6.4-9.4c-7-7.1-17.5-10.7-31.2-10.7h-12.3
			c-26.5,0-46,17.3-50.8,45.2c-2.7,15.3,0.2,28.9,8.2,38.3c7.8,9.3,19.8,14.1,34.7,14.1h12.3c8.8,0,16.7-1.9,23.4-5.4l-0.1,0.4
			l-0.5,2.9h42.3l5.8-33.2c0.7-3.8,1.5-5.7,2.9-6.7c0.4-0.3,1-0.6,1.7-0.8l0,0.2c-2.9,16.3-1.2,28.8,4.8,36
			c3.7,4.4,9.1,6.8,15.5,6.8h12.3c3.9,0,7.4-0.7,10.5-2.2h27.1l-1.4,7.9h-29.6c-3-1.5-6.7-2.2-11.1-2.2h-12.3
			c-6,0-13.2,1.9-19.3,8.9c-0.2-0.2-0.3-0.4-0.5-0.5c-5.5-5.6-13.8-8.4-24.4-8.4h-12.3c-6.7,0-12.7,1.2-18.1,3.4l0.2-1.2h-5.7
			c-2.5,0-4.7,0.2-6.7,0.9l0.1-0.9h-41.6c-1.6-3.6-3.8-6.8-6.4-9.4c-7-7.1-17.5-10.7-31.2-10.7H63.8c-26.5,0-46,17.3-50.8,45.2
			c-2.7,15.3,0.2,28.9,8.2,38.4c7.8,9.2,19.8,14.1,34.7,14.1h12.3c8.8,0,16.7-1.8,23.4-5.4l-0.1,0.4l-0.5,2.9h42.3l5.8-33.2
			c0.7-4,1.4-6.1,3.9-7.3c-2.4,13.3-0.3,24.3,6,31.8c5.9,7.1,15.3,10.9,27.1,10.9h12.3c12,0,20.5-3.4,26.5-8.2
			c0.5,0.7,1.1,1.4,1.6,2.1c3.7,4.1,8.8,6.2,15,6.2h12.3c3.9,0,7.3-0.7,10.5-2.2h102l3.8-21.7l3.8,21.7h45.3l7.4-14
			c1,1.9,2.1,3.7,3.5,5.4c5.9,7.1,15.3,10.9,27.1,10.9h12.3c22.7,0,33-12.4,37.6-22.8l1.1-2.4l-20.3-7h20.4l0.5-1.8
			c0.6-2.2,0.8-3.5,1.1-5.1l0.2-1.3C502,288.9,500.1,278.7,494.3,271.9L494.3,271.9L494.3,271.9z M156.9,207.8
			c-0.5,4.2-1.9,8.3-3.9,12c-2,3.6-4.2,7.3-8.1,9.1c-1.5-0.6-2.7-1.5-3.7-2.7c-3.1-3.7-4-10.2-2.4-18.9c1.7-9.7,6.8-14.8,12.2-16.8
			c1.2,0.5,2.1,1.1,2.9,1.9c2.9,2.9,3.2,7.4,3.3,11.2C157.2,205,157.1,206.4,156.9,207.8z M98.6,295.8l-9.9-2l-2.1-0.4l-0.7,2
			l-0.1,0.3l-9.4-1.9l-2.1-0.4l-0.7,2c-3.4,9.5-6.7,14.5-11.2,16.6c-1.5-0.6-2.7-1.5-3.7-2.7c-3.1-3.7-3.9-10.2-2.4-18.9
			c1.7-9.7,6.8-14.8,12.2-16.8c1.2,0.5,2.1,1.1,2.9,1.9c2.3,2.4,3.4,6.5,3.2,12.6l-0.1,2.7l2.7-0.2l9.6-0.8l0,1l2.7-0.2l10-0.8
			L98.6,295.8L98.6,295.8L98.6,295.8z M337.1,264.2l1.4-7.9H371l0.4-2l3.3-18.5l4.5,28.4L337.1,264.2L337.1,264.2L337.1,264.2z"/>
		<path class="st2" d="M459.1,340.4c-11.4,0-20.5-3.6-26.2-10.4c-5.4-6.5-7.6-15.8-6.3-27l-18.5,35.2H377l-10.9-62.7l-11,62.7h-27.5
			l8.7-49.8h-4.7l-8.9,49.8h-27.5l8.9-49.8h-4.7l-8.7,49.8h-27.5l2-11.5c-5.4,9.5-12.1,13.7-21.4,13.7c-5.9,0-10.6-1.9-14.1-5.8
			c-3.1-3.4-5.1-8.1-5.9-14.1c-4.9,9.5-14.9,19.9-35.4,19.9c-11.4,0-20.4-3.6-26.2-10.4c-6.1-7.3-8-18-5.7-31.1
			c0.1-0.7,0.3-1.5,0.4-2.2h-6c-9.6,0-11.7,1.5-13.1,9.3l-5.6,32.2h-27.5l3.5-20.1c-8.6,14.6-22.3,22.3-40.1,22.3
			c-14.6,0-26.3-4.7-33.8-13.7c-7.7-9.2-10.5-22.4-7.9-37.4c4.7-27.2,23.8-44.1,49.6-44.1c13.3,0,23.5,3.5,30.3,10.4
			c4.8,4.9,7.9,11.5,9.3,19.7l1.8-10H145l-3,17.5c6.1-14.8,11.4-17.5,19.8-17.5h4.3l-2.6,14.9c7.3-11.1,19.2-17.1,34.2-17.1
			c10.3,0,18.2,2.7,23.5,8c3.6,3.7,6,8.4,6.9,14.2c5.3-14.6,14.2-22.2,26-22.2c11,0,17.3,4.6,19.6,14.8l2.2-12.6h32.2l2.3-12.8h27.5
			l-2.3,12.8h110.8l-2.7,5.1c6.7-4.8,15.2-7.3,24.8-7.3c11.2,0,19.6,3.2,24.8,9.5c5.5,6.6,7.3,16.4,5.2,28.3
			c-0.1,0.5-0.2,0.9-0.2,1.3c-0.3,1.6-0.5,2.8-1.1,5l-0.3,0.9h-43.9c0,2.9,0.7,4.9,1.9,6.2c1.4,1.4,3.7,2.1,7.2,2.1
			c6.3,0,8.3-2.8,10.3-6.4l0.5-0.9l23.2,8l-0.5,1.2C491.1,328.4,481.2,340.4,459.1,340.4L459.1,340.4L459.1,340.4z M182.2,308.2
			c0,2.9,0.7,4.9,1.9,6.2c1.4,1.4,3.7,2.1,7.2,2.1c6.3,0,8.3-2.8,10.3-6.4l0.5-0.9l21.2,7.3c-0.1-2.6-0.1-5.3,0.1-8.3L182.2,308.2
			L182.2,308.2L182.2,308.2z M74.4,271.4c-7.7,0-16.8,5-19.3,18.9c-1.6,9-0.7,15.9,2.7,19.9c2.4,2.9,6.1,4.3,11,4.3
			c8.6,0,13.4-4.9,18.3-18.6l0.4-1l24,4.8l2.1-12.1l-25.4,2l0-1.4c0.2-6.5-1-10.9-3.6-13.5C82.5,272.5,79.1,271.4,74.4,271.4
			C74.4,271.4,74.4,271.4,74.4,271.4z M474.2,295c0.3-3-0.1-5.2-1.3-6.6c-1.2-1.4-3.3-2.1-6.4-2.1c-5.8,0-9,2.5-11.1,8.7H474.2
			L474.2,295z M203.4,295c0.3-3-0.1-5.2-1.3-6.6c-1.2-1.4-3.3-2.1-6.4-2.1c-5.8,0-9,2.5-11.1,8.7H203.4L203.4,295z"/>
		<path d="M76.1,246.4c26.7,0,38.8,14,39.3,38.2l3.2-18h25l-4.7,27.2h0.4c8.2-24.9,13.8-27.2,22.5-27.2h2.8l-3.6,21
			c6.3-14.8,19.1-23.2,36.7-23.2c20.7,0,29.7,11.2,29.7,27.5c4.7-17.6,13.7-27.5,26.8-27.5c10.6,0,18.1,4.3,19.3,20h0.4l3.1-17.8
			h32.2l2.3-12.8h25l-2.3,12.8h110.3l-4.7,8.9c7-7.2,16.8-11.1,28.8-11.1c24.3,0,32.5,15.5,28.9,36.4c-0.4,2.4-0.6,3.5-1.3,6.2
			h-44.2c-0.3,7.8,2.9,10.7,10.3,10.7c6.9,0,9.3-3.2,11.3-7.1l20.9,7.2c-5.2,11.6-15.6,21.3-35.3,21.3c-21.5,0-35.5-13.3-30.6-40
			c0.2-1.3,0.5-2.5,0.8-3.7L407.5,337H378l-11.9-68.6L354,337h-25l8.7-49.8h-7.1l-8.9,49.8h-25l8.9-49.8h-7.2l-8.7,49.8h-25
			l3.1-17.8h-0.3c-6.5,15.8-14.3,20-23.7,20c-14.1,0-20.9-11.9-19-32.2H181c-0.3,7.8,2.9,10.7,10.3,10.7c6.9,0,9.3-3.2,11.3-7.1
			l20.9,7.2c-5.2,11.6-15.6,21.3-35.3,21.3c-21.5,0-35.5-13.3-30.6-40c0.2-1.3,0.5-2.5,0.8-3.7h-7.5c-10.2,0-12.8,1.9-14.3,10.3
			l-5.4,31.2h-25l4.8-27.1c-7.2,17.6-21.1,29.3-42.8,29.3c-30.5,0-45.5-21.1-40.5-49.6C32.2,263.4,50.4,246.5,76.1,246.4
			 M68.8,315.7c10,0,14.9-6.6,19.4-19.4l24.2,4.9l2.6-14.9l-25.6,2c0.3-11.9-3.7-18.1-15-18.1c-11.3,0-18.6,9.1-20.5,19.9
			C51.2,305.9,55.9,315.7,68.8,315.7 M453.7,296.2h21.6c1.2-7.8-1.9-11.2-8.8-11.2S456,288,453.7,296.2z M182.8,296.2h21.6
			c1.2-7.8-1.9-11.2-8.8-11.2C188.7,285,185.1,288,182.8,296.2z M76.1,244c-13.1,0-24.8,4.3-33.8,12.4c-8.8,8-14.7,19.3-17.1,32.8
			c-2.7,15.3,0.2,28.9,8.2,38.4c7.8,9.2,19.8,14.1,34.7,14.1c10.9,0,20.5-2.9,28.3-8.5c3.6-2.6,6.8-5.8,9.6-9.5l-2.3,12.9l-0.5,2.9
			h30l0.4-2l5.4-31.2c1.2-6.7,2.4-8.3,11.9-8.3h4.5c-0.1,0.3-0.1,0.5-0.1,0.8c-2.4,13.4-0.4,24.5,5.9,32
			c5.9,7.1,15.3,10.9,27.1,10.9c19,0,29.3-8.7,34.8-17.6c1.1,4.7,3,8.5,5.6,11.4c3.7,4.1,8.8,6.2,15,6.2c7.9,0,14.2-3,19.2-9.5
			l-0.8,4.4l-0.5,2.9h30l0.4-2l8.4-47.7h2.2l-8.4,46.9l-0.5,2.9h30l0.4-2l8.5-47.7h2.2l-8.2,46.9l-0.5,2.9h30l0.4-2l9.6-54.8
			l9.5,54.8l0.4,2h33l0.7-1.3l15.5-29.5c-0.1,9,2.3,16.5,6.9,22.1c5.9,7.1,15.3,10.9,27.1,10.9c22.7,0,33-12.4,37.6-22.8l1.1-2.4
			l-2.5-0.9l-17.7-6.1H498l0.5-1.8c0.6-2.2,0.8-3.5,1.1-5.1c0.1-0.4,0.1-0.8,0.2-1.3c2.2-12.4,0.3-22.5-5.5-29.4
			c-5.5-6.6-14.2-9.9-25.8-9.9c-8.1,0-15.4,1.7-21.6,5.1l1.5-2.9H337.1l1.8-9.9l0.5-2.9h-30l-0.4,2l-1.9,10.7h-32.2l-0.4,2l-1.2,6.8
			c-3.3-7.5-9.5-11-19.2-11c-8.2,0-18.8,3.6-25.7,19.3c-1.3-4.3-3.4-8-6.4-10.9c-5.6-5.6-13.8-8.4-24.4-8.4
			c-13.5,0-24.5,4.7-32.1,13.5l1.5-8.5l0.5-2.9h-5.7c-7.1,0-12.1,1.9-17.2,10.5l1.3-7.6l0.5-2.9h-30l-0.4,2l-0.5,3
			c-1.8-5.8-4.5-10.6-8.3-14.5C100.2,247.6,89.7,244,76.1,244L76.1,244L76.1,244z M68.8,313.2c-4.5,0-7.9-1.3-10-3.9
			c-3.1-3.7-3.9-10.2-2.4-18.9c2.3-13.2,10.9-17.8,18-17.8c4.3,0,7.4,1,9.4,3c2.3,2.4,3.4,6.5,3.2,12.6l-0.1,2.7l2.7-0.2l22.5-1.8
			l-1.6,9.3l-21.7-4.4l-2.1-0.4l-0.7,2C81.3,308.6,76.8,313.2,68.8,313.2L68.8,313.2L68.8,313.2z M457.1,293.8
			c2.2-5.2,5.2-6.3,9.4-6.3c2.7,0,4.5,0.6,5.5,1.7c0.8,1,1.2,2.5,1.1,4.6H457.1L457.1,293.8z M186.2,293.8c2.2-5.2,5.2-6.3,9.4-6.3
			c2.7,0,4.5,0.6,5.5,1.7c0.8,1,1.2,2.5,1.1,4.6H186.2L186.2,293.8L186.2,293.8z M454.4,309.4h17l0,0.1c-1.9,3.5-3.5,5.8-9.2,5.8
			c-3.1,0-5.2-0.6-6.3-1.8C455.1,312.7,454.6,311.3,454.4,309.4L454.4,309.4L454.4,309.4z M206.6,309.4H222
			c-0.1,1.8-0.1,3.5-0.1,5.3L206.6,309.4z M183.5,309.4h17l0,0.1c-1.9,3.5-3.5,5.8-9.2,5.8c-3.1,0-5.2-0.6-6.3-1.8
			C184.2,312.7,183.7,311.3,183.5,309.4L183.5,309.4L183.5,309.4z"/>
		<path class="st2" d="M381.2,192.1l-2.8,15.9L345.7,232h28.4l-4.1,23.1h-91.9l2-11.5c-5.4,9.5-12.1,13.7-21.4,13.7
			c-6.2,0-11.1-2.1-14.6-6.3c-5.8-6.9-7.4-19-4.6-35c0.1-0.8,0.3-1.6,0.5-2.4h-6.6c-9.6,0-11.7,1.5-13.1,9.3l-5.6,32.2H187l3.5-20.1
			c-8.6,14.6-22.3,22.3-40.1,22.3c-14.6,0-26.3-4.7-33.8-13.7c-7.7-9.2-10.5-22.4-7.9-37.4c4.7-27.2,23.8-44.1,49.6-44.1
			c13.3,0,23.5,3.5,30.3,10.4c4.8,4.9,7.9,11.5,9.3,19.7l1.7-10h27.5l-3,17.5c6.1-14.8,11.4-17.5,19.8-17.5h4.5l-2.3,12.5
			c5.4-9.7,13.1-14.7,22.7-14.7c11,0,17.3,4.6,19.6,14.8l2.2-12.6H410l3,36.3l15.7-36.3h32.9l-62.8,120.8L381.2,192.1L381.2,192.1z
			 M156.8,188.2c-11.7,0-17.6,9.7-19.3,18.9c-1.6,9-0.7,15.9,2.7,19.9c2.4,2.9,6.1,4.3,11,4.3c8.6,0,13.4-4.9,18.3-18.6l0.4-1
			l24,4.9l2.1-12.1l-25.4,2l0-1.4c0.2-6.5-1-10.9-3.6-13.5C164.8,189.3,161.5,188.2,156.8,188.2L156.8,188.2L156.8,188.2z
			 M310.1,229.3l34.7-24.1h-30.4L310.1,229.3z"/>
		<path d="M158.4,163.3c26.7,0,38.8,14,39.3,38.2l3.2-18h25l-4.7,27.2h0.4c8.2-24.9,13.8-27.2,22.5-27.2h3.1l-4.1,22.2
			c4.9-15.7,13.6-24.4,25.9-24.4c10.6,0,18.1,4.3,19.3,20h0.4l3.1-17.8h117l3.4,40l17.3-40h30.1l-60.1,115.7l-18.3-114.4l-4,22.6
			l-35.3,25.9h30.7l-3.7,20.6h-89.4l3.1-17.8h-0.3c-6.5,15.8-14.3,20-23.7,20c-15.8,0-22.4-14.9-18-39.9c0.2-1.3,0.5-2.6,0.8-3.8
			h-8.1c-10.2,0-12.8,1.9-14.3,10.3l-5.4,31.2h-25l4.8-27.1c-7.2,17.6-21.1,29.3-42.8,29.3c-30.5,0-45.5-21.1-40.5-49.6
			C114.5,180.2,132.8,163.3,158.4,163.3 M151.2,232.5c10,0,14.9-6.6,19.4-19.4l24.2,4.9l2.6-14.9l-25.6,2c0.3-11.9-3.7-18.1-15-18.1
			c-11.3,0-18.6,9.1-20.5,19.9C133.5,222.8,138.3,232.5,151.2,232.5 M308.4,232l40.3-28h-35.4L308.4,232z M158.4,160.9
			c-13.1,0-24.8,4.3-33.8,12.4c-8.8,8-14.7,19.3-17.1,32.8c-2.7,15.3,0.2,28.9,8.2,38.4c7.8,9.2,19.8,14.1,34.7,14.1
			c10.9,0,20.5-2.9,28.3-8.5c3.6-2.6,6.8-5.8,9.6-9.5l-2.3,12.9l-0.5,2.9h30l0.4-2l5.4-31.2c0.7-3.8,1.5-5.7,2.9-6.7
			c1.5-1.1,4.2-1.5,9-1.5h5.1l-0.2,0.9c-2.9,16.4-1.2,28.8,4.8,36c3.7,4.4,9.1,6.8,15.5,6.8c7.9,0,14.2-3,19.2-9.5l-0.8,4.4
			l-0.5,2.9H371l0.4-2l3.7-20.6l0.5-2.9h-26.1l29.2-21.4l0.8-0.6l0.2-1l1.5-8.3l16,100.1l1.2,7.3l3.4-6.6l60.1-115.7l1.9-3.6h-35.8
			l-0.6,1.5l-13.4,31.1l-2.5-30.3l-0.2-2.2H289.8l-0.4,2l-1.2,6.8c-3.3-7.5-9.5-11-19.2-11c-6.2,0-14,2.1-20.4,10.2l0.9-5.1l0.5-2.9
			h-6c-7.1,0-12.1,1.9-17.2,10.5l1.3-7.6l0.5-2.9h-30l-0.4,2l-0.5,3c-1.8-5.8-4.5-10.6-8.3-14.5
			C182.6,164.5,172.1,160.8,158.4,160.9L158.4,160.9L158.4,160.9z M151.2,230.1c-4.5,0-7.9-1.3-10-3.9c-3.1-3.7-3.9-10.2-2.4-18.9
			c2.3-13.2,10.9-17.8,18-17.8c4.3,0,7.4,1,9.4,3c2.3,2.4,3.4,6.5,3.2,12.6l-0.1,2.7l2.7-0.2l22.5-1.8l-1.6,9.3l-21.7-4.4l-2.1-0.4
			l-0.7,2C163.7,225.4,159.2,230.1,151.2,230.1L151.2,230.1z M315.4,206.4h25.5l-29,20.2L315.4,206.4z"/>
		<path d="M275,197.1l-0.3,8.4c-0.1,1.9,0.4,3.6,1.4,4.9c1,1.3,2.4,2.2,4.2,2.7l7.9,1.9c0.8,0.2,1.1,1,0.7,1.8
			c-0.3,0.6-0.9,1-1.4,1.1l-8.9,1.9c-2.1,0.4-4,1.4-5.6,2.7c-1.7,1.3-3,3-4,4.9l-4.1,8.4c-0.4,0.8-1.3,1.3-2.1,1.1
			c-0.5-0.1-0.9-0.6-0.8-1.1l0.3-8.4c0.1-1.9-0.4-3.6-1.4-4.9c-1-1.3-2.4-2.2-4.2-2.7l-7.9-1.9c-0.8-0.2-1.1-1-0.7-1.8
			c0.3-0.6,0.9-1,1.4-1.1l8.9-1.9c2.1-0.4,4-1.4,5.6-2.7c1.7-1.3,3-3,4-4.9l4.1-8.4c0.4-0.8,1.3-1.3,2.1-1.1
			C274.7,196.1,275,196.6,275,197.1L275,197.1L275,197.1z M259.2,282.3l-0.3,8.4c-0.1,1.9,0.4,3.6,1.4,4.9c1,1.3,2.4,2.2,4.2,2.7
			l7.9,1.9c0.8,0.2,1.1,1,0.7,1.8c-0.3,0.6-0.9,1-1.4,1.1l-8.9,1.9c-2.1,0.4-4,1.4-5.6,2.7c-1.7,1.3-3,3-4,4.9l-4.1,8.4
			c-0.4,0.8-1.3,1.3-2.1,1.1c-0.5-0.1-0.9-0.6-0.8-1.1l0.3-8.4c0.1-1.9-0.4-3.6-1.4-4.9c-1-1.3-2.4-2.2-4.2-2.7l-7.9-1.9
			c-0.8-0.2-1.1-1-0.7-1.8c0.3-0.6,0.9-1,1.4-1.1l8.9-1.9c2.1-0.4,4-1.4,5.6-2.7c1.7-1.3,3-3,4-4.9l4.1-8.4c0.4-0.8,1.3-1.3,2.1-1.1
			C258.9,281.3,259.2,281.7,259.2,282.3L259.2,282.3L259.2,282.3z"/>
	</g>
</g>
</svg>
