<?xml version="1.0" encoding="utf-8"?>
<!-- Generator: Adobe Illustrator 23.0.0, SVG Export Plug-In . SVG Version: 6.00 Build 0)  -->
<svg version="1.1" id="图层_1" xmlns="http://www.w3.org/2000/svg" xmlns:xlink="http://www.w3.org/1999/xlink" x="0px" y="0px"
	 viewBox="0 0 48 48" style="enable-background:new 0 0 48 48;" xml:space="preserve">
<style type="text/css">
	.st0{fill:none;}
	.st1{fill:#FF882E;}
</style>
<rect y="4.4" class="st0" width="48" height="39.3"/>
<path d="M4.1,9.7H0v27.3h4.1c5.5,0,7.8-1.4,7.8-7.3V16.9C11.9,10.9,9.6,9.7,4.1,9.7L4.1,9.7L4.1,9.7z M8.5,29.6c0,3.3-1,3.8-4.3,3.8
	H3.4V13.1h0.7c3.3,0,4.3,0.5,4.3,3.8V29.6z"/>
<path d="M13.6,23.8v2.7h5.1v-2.7H13.6z"/>
<path d="M20.7,14.8v22.1h3.4V14.8H20.7z"/>
<path d="M30.2,9.7h-4.1v27.3h4.1c5.5,0,7.8-1.4,7.8-7.3V16.9C38,10.9,35.7,9.7,30.2,9.7L30.2,9.7L30.2,9.7z M34.6,29.6
	c0,3.3-1,3.8-4.3,3.8h-0.7V13.1h0.7c3.3,0,4.3,0.5,4.3,3.8V29.6z"/>
<path class="st1" d="M22.4,12.7c1,0,1.9-0.8,1.9-1.9c0-1-0.8-1.9-1.9-1.9c-1,0-1.9,0.8-1.9,1.9C20.6,11.9,21.4,12.7,22.4,12.7z"/>
<path class="st1" d="M26.4,7.4c0.6,0,1-0.5,1-1c0-0.6-0.5-1-1-1c-0.6,0-1,0.5-1,1C25.3,7,25.8,7.4,26.4,7.4z"/>
<path class="st1" d="M30.8,6c0.4,0,0.8-0.3,0.8-0.8c0-0.4-0.3-0.8-0.8-0.8c-0.4,0-0.8,0.3-0.8,0.8C30,5.7,30.4,6,30.8,6z"/>
<path class="st1" d="M35,6.8c0.4,0,0.8-0.3,0.8-0.8c0-0.4-0.3-0.8-0.8-0.8c-0.4,0-0.8,0.3-0.8,0.8C34.2,6.4,34.5,6.8,35,6.8z"/>
<path class="st1" d="M40.9,43.5c-0.9,0-1.6-0.3-2.1-0.5L38.6,43c-0.9-0.3-1.7-0.6-2.6-1c-0.4-0.2-0.7-0.7-0.5-1.1
	c0.2-0.4,0.7-0.7,1.1-0.5c0.8,0.3,1.6,0.6,2.5,0.9c0.1,0,0.1,0.1,0.2,0.1c0.6,0.2,1.3,0.5,2,0.3c0.7-0.1,1.1-0.4,1.3-0.8
	c0.2-0.4,0.1-0.6,0-1.1c-0.1-0.4-0.3-0.9-0.1-1.4c0.2-0.6,0.6-0.9,0.9-1.1c0.3-0.2,0.3-0.2,0.4-0.4c0.1-0.4-0.1-0.6-0.2-0.6
	c-0.3-0.1-0.6-0.4-0.6-0.8c0-0.4,0.3-0.8,0.7-0.9c0.1,0,0.3-0.1,0.5-0.2c0.1-0.1,0.3-0.3,0.3-0.6c0-0.2-0.1-0.4-0.3-0.7
	c-0.2-0.3-0.7-0.9-0.3-1.6c0.3-0.5,1-0.8,1.5-1c0.1,0,0.2-0.1,0.3-0.1c0.3-0.2,0.5-0.3,0.4-0.9c0-0.2-0.1-0.3-0.2-0.4
	c-0.7-0.9-1.4-1.9-2.1-2.9c-0.6-0.9-1-1.5-1.1-2.5c-0.2-0.9,0.3-2.6,0.4-2.8c0.6-2,0.6-3.5-0.8-6.6c-1.1-2.4-2.7-4-3.9-5
	c-0.4-0.3-0.4-0.8-0.1-1.2c0.3-0.4,0.8-0.4,1.2-0.1c1.9,1.5,3.4,3.5,4.4,5.6c1.4,3.3,1.7,5.2,0.9,7.8c-0.2,0.7-0.4,1.7-0.3,2
	c0.1,0.5,0.3,0.9,0.9,1.8c0.6,1,1.3,1.9,2,2.8c0,0,0,0,0,0c0.2,0.2,0.4,0.7,0.5,1.2c0.2,1.6-0.6,2.3-1.4,2.7
	c-0.1,0.1-0.2,0.1-0.4,0.2c-0.1,0-0.3,0.1-0.4,0.2c0.3,0.4,0.6,0.9,0.6,1.7c0,0.6-0.3,1.2-0.8,1.7c0,0-0.1,0.1-0.1,0.1
	c0.2,0.5,0.3,1,0.2,1.5c-0.2,0.9-0.8,1.3-1.1,1.5c-0.1,0.1-0.2,0.2-0.3,0.2c0,0.1,0.1,0.2,0.1,0.4c0.2,0.5,0.4,1.4-0.1,2.4
	c-0.5,0.8-1.3,1.4-2.4,1.6C41.5,43.5,41.2,43.5,40.9,43.5L40.9,43.5z"/>
</svg>
