<?xml version="1.0" encoding="utf-8"?>
<!-- Generator: Adobe Illustrator 24.0.1, SVG Export Plug-In . SVG Version: 6.00 Build 0)  -->
<svg version="1.1" id="图层_1" xmlns="http://www.w3.org/2000/svg" xmlns:xlink="http://www.w3.org/1999/xlink" x="0px" y="0px"
	 viewBox="0 0 322 322" style="enable-background:new 0 0 322 322;" xml:space="preserve">
<style type="text/css">
	.st0{fill:url(#路径_2_);}
	.st1{fill:url(#路径_3_);}
</style>
<title>logo新</title>
<desc>Created with Sketch.</desc>
<g id="编组-3">
	
		<linearGradient id="路径_2_" gradientUnits="userSpaceOnUse" x1="-134.8738" y1="544.1259" x2="-134.8738" y2="544.9979" gradientTransform="matrix(288.4088 0 0 -257.655 39059.7891 140521.2813)">
		<stop  offset="0" style="stop-color:#BF479A"/>
		<stop  offset="4.520000e-02" style="stop-color:#B2489A"/>
		<stop  offset="0.1734" style="stop-color:#91499A"/>
		<stop  offset="0.3016" style="stop-color:#75499B"/>
		<stop  offset="0.4276" style="stop-color:#5D4A9B"/>
		<stop  offset="0.5508" style="stop-color:#494A9B"/>
		<stop  offset="0.6698" style="stop-color:#3B4A9B"/>
		<stop  offset="0.7802" style="stop-color:#364A9B"/>
	</linearGradient>
	<path id="路径" class="st0" d="M23.8,64c0,0,2.9,41.2,39.1,71.1c17.7,14.6,58.3,33.8,115.2,41.4c0,0,119.1,22,126.7,57.2
		c3.2,17-8.8,38.7-52.5,62.9c-66,34.1-163.6,42.9-206.3-35.7C2.1,171.2,19.6,82.3,23.8,64z"/>
	
		<linearGradient id="路径_3_" gradientUnits="userSpaceOnUse" x1="-134.5844" y1="544.2815" x2="-134.5844" y2="545.2546" gradientTransform="matrix(186.4922 0 0 -314.3405 25272.7656 171407.9219)">
		<stop  offset="0" style="stop-color:#BF479A"/>
		<stop  offset="0.1295" style="stop-color:#B4489A"/>
		<stop  offset="0.378" style="stop-color:#99499A"/>
		<stop  offset="0.717" style="stop-color:#6C499B"/>
		<stop  offset="1" style="stop-color:#364A9B"/>
	</linearGradient>
	<path id="路径_1_" class="st1" d="M144.3,0.3c-22.6,34.8-49.7,85.6-54.7,128.5c-3.1,27,2.6,43.7,5.3,53
		c10.5,39.7,1.1,75.7-11.8,99c-3.5,6.8-5.4,16.6,7.6,25.8c12.3,7.4,61,12.4,89.4,2.5c29-10,57.2-30.5,71.8-58.9
		c36.3-63.8-1.1-112.6-24.6-140.1c0,0-22.5-25.9-39.2-46.1C178.8,53.3,154.3,32,144.3,0.3z"/>
</g>
</svg>
