<?xml version="1.0" encoding="utf-8"?>
<!-- Generator: Adobe Illustrator 23.0.0, SVG Export Plug-In . SVG Version: 6.00 Build 0)  -->
<svg version="1.1" id="图层_1" xmlns="http://www.w3.org/2000/svg" xmlns:xlink="http://www.w3.org/1999/xlink" x="0px" y="0px"
	 viewBox="0 0 67 67" style="enable-background:new 0 0 67 67;" xml:space="preserve">
<style type="text/css">
	.st0{fill:#16949B;}
	.st1{fill:#5EB659;}
	.st2{fill:#14A477;}
</style>
<title>镝数聚</title>
<desc>Created with Sketch.</desc>
<g id="叶子">
	<path class="st0" d="M40.9,64.2C25.1,66.5,9.9,56.9,5.5,41.6c3.5-0.8,7-1.1,10.6-0.8c0.8,2.3,1.8,4.5,3,6.5
		C23.8,55.6,31.6,61.7,40.9,64.2"/>
	<path class="st1" d="M58.9,33c0,11.3-4.9,22-13.5,29.2c4.4-15.4-1.7-31.8-15.2-40.5c2.4-7.7,7.1-14.4,13.5-19.3
		C53.3,9.7,58.9,21,58.9,33"/>
	<path class="st2" d="M43,61.7c-0.1,0.2-0.1,0.4-0.2,0.5c-0.4-0.1-0.9-0.2-1.3-0.3c-8.7-2.3-16-8-20.5-15.8c-0.9-1.6-1.7-3.2-2.4-5
		c-2.7-7.1-2.9-14.8-0.7-22c4.1,0.9,8,2.6,11.5,5c0.4,0.2,0.7,0.5,1.1,0.8C42,33.4,47,48,43,61.7"/>
</g>
</svg>
