<svg xmlns="http://www.w3.org/2000/svg" width="40" height="40" viewBox="0 0 40 40">
  <defs>
    <style>
      .cls-1 {
        fill: #409eff;
        fill-rule: evenodd;
      }
    </style>
  </defs>
  <path id="形状_1" data-name="形状 1" class="cls-1" d="M34.976,27.568a1.68,1.68,0,0,1-.722,1.675s-12.318,7.07-13.12,7.525a1.479,1.479,0,0,1-1.323,0S6.936,29.331,6.465,29a1.119,1.119,0,0,1-.479-0.865V12.721a1.662,1.662,0,0,1,.871-1.151L19.7,4.158a1.751,1.751,0,0,1,1.558,0s11.369,6.579,12.587,7.29a1.8,1.8,0,0,1,1.09,1.786V27.568h0.042ZM29.84,12.835c-2.612-1.509-8.845-5.089-8.845-5.089a1.377,1.377,0,0,0-1.227,0L9.661,13.51A1.344,1.344,0,0,0,9,14.447c0.008,0.537,0,12.068,0,12.068a0.86,0.86,0,0,0,.374.647C9.747,27.422,19.82,33.23,19.82,33.23a1.12,1.12,0,0,0,1.036,0c0.627-.345,10.289-5.886,10.289-5.886a1.31,1.31,0,0,0,.567-1.308V23.028L20.377,29.88v-2.6a2.6,2.6,0,0,1,.871-1.8l10.064-6.066a2.16,2.16,0,0,0,.479-1.265V15.488L20.377,22.351V19.578a1.878,1.878,0,0,1,.722-1.552Z" transform="translate(-0.484 -0.453)"/>
</svg>
