<?xml version="1.0" encoding="utf-8"?>
<!-- Generator: Adobe Illustrator 23.0.0, SVG Export Plug-In . SVG Version: 6.00 Build 0)  -->
<svg version="1.1" id="图层_1" xmlns="http://www.w3.org/2000/svg" xmlns:xlink="http://www.w3.org/1999/xlink" x="0px" y="0px"
	 viewBox="0 0 291 291" style="enable-background:new 0 0 291 291;" xml:space="preserve">
<style type="text/css">
	.st0{fill-rule:evenodd;clip-rule:evenodd;}
</style>
<path class="st0" d="M159,40.5c-7.7,0-14,6.3-14,14v181c0,7.7,6.3,14,14,14h40c7.7,0,14-6.3,14-14v-181c0-7.7-6.3-14-14-14H159z
	 M83.6,41.5c-3.8,0-7.2,1.5-9.8,4c0,0,0,0,0,0c0,0,0,0,0,0L73.3,46c-0.6,0.7-1.2,1.4-1.7,2.2c-1.3,1.8-2.5,3.6-3.5,5.6L4.9,180.4
	l-3.6,8c-0.1,0.1-0.1,0.3-0.2,0.4l-0.4,0.9c0,0,0,0,0,0c0,0,0,0,0,0c-0.5,1.4-0.8,2.9-0.8,4.5l0,41.7c0,7.7,6.2,13.9,13.9,13.9h41.8
	c7.7,0,13.9-6.2,13.9-13.9v-55.5l0-13.9c0-30.7,24.9-55.5,55.7-55.5c7.7,0,13.9-6.2,13.9-13.9V55.4c0-7.7-6.2-13.9-13.9-13.9H83.6z
	 M220.5,215.1c0-19.2,15.6-34.7,34.8-34.7c19.2,0,34.8,15.5,34.8,34.7s-15.6,34.7-34.8,34.7C236.1,249.8,220.5,234.2,220.5,215.1z"
	/>
</svg>
