<?xml version="1.0" encoding="utf-8"?>
<!-- Generator: Adobe Illustrator 23.0.0, SVG Export Plug-In . SVG Version: 6.00 Build 0)  -->
<svg version="1.1" id="图层_1" xmlns="http://www.w3.org/2000/svg" xmlns:xlink="http://www.w3.org/1999/xlink" x="0px" y="0px"
	 viewBox="0 0 51 51" style="enable-background:new 0 0 51 51;" xml:space="preserve">
<style type="text/css">
	.st0{filter:url(#Adobe_OpacityMaskFilter);}
	.st1{fill-rule:evenodd;clip-rule:evenodd;fill:#FFFFFF;}
	.st2{mask:url(#mask-2_6_);fill-rule:evenodd;clip-rule:evenodd;fill:#009ADC;}
	.st3{filter:url(#Adobe_OpacityMaskFilter_1_);}
	.st4{mask:url(#mask-2_7_);fill-rule:evenodd;clip-rule:evenodd;fill:#009ADC;}
	.st5{filter:url(#Adobe_OpacityMaskFilter_2_);}
	.st6{mask:url(#mask-2_8_);fill-rule:evenodd;clip-rule:evenodd;fill:#009ADC;}
	.st7{filter:url(#Adobe_OpacityMaskFilter_3_);}
	.st8{mask:url(#mask-2_9_);fill-rule:evenodd;clip-rule:evenodd;fill:#009ADC;}
	.st9{filter:url(#Adobe_OpacityMaskFilter_4_);}
	.st10{mask:url(#mask-2_10_);fill-rule:evenodd;clip-rule:evenodd;fill:#009ADC;}
	.st11{filter:url(#Adobe_OpacityMaskFilter_5_);}
	.st12{mask:url(#mask-2_11_);fill-rule:evenodd;clip-rule:evenodd;fill:#009ADC;}
</style>
<title>logo</title>
<desc>Created with Sketch.</desc>
<g id="Clip-10">
</g>
<defs>
	<filter id="Adobe_OpacityMaskFilter" filterUnits="userSpaceOnUse" x="9.3" y="9.1" width="37.4" height="25">
		<feColorMatrix  type="matrix" values="1 0 0 0 0  0 1 0 0 0  0 0 1 0 0  0 0 0 1 0"/>
	</filter>
</defs>
<mask maskUnits="userSpaceOnUse" x="9.3" y="9.1" width="37.4" height="25" id="mask-2_6_">
	<g class="st0">
		<polygon id="path-1_6_" class="st1" points="1.4,45.1 119.3,45.1 119.3,9.1 1.4,9.1 		"/>
	</g>
</mask>
<path id="Fill-15" class="st2" d="M20.3,34l7.5-9.6h-6.9c-1.6,0-2.9-1.3-2.9-2.9s1.3-2.9,2.9-2.9h18l7.7-9.7H21.8
	c-6.9,0-12.5,5.6-12.5,12.5C9.3,28,14.1,33.3,20.3,34"/>
<defs>
	<filter id="Adobe_OpacityMaskFilter_1_" filterUnits="userSpaceOnUse" x="9.1" y="20.1" width="40.7" height="25">
		<feColorMatrix  type="matrix" values="1 0 0 0 0  0 1 0 0 0  0 0 1 0 0  0 0 0 1 0"/>
	</filter>
</defs>
<mask maskUnits="userSpaceOnUse" x="9.1" y="20.1" width="40.7" height="25" id="mask-2_7_">
	<g class="st3">
		<polygon id="path-1_7_" class="st1" points="1.4,45.1 119.3,45.1 119.3,9.1 1.4,9.1 		"/>
	</g>
</mask>
<path id="Fill-16" class="st4" d="M38.8,20.1l-7.5,9.6h6.9c1.6,0,2.9,1.3,2.9,2.9c0,1.6-1.3,2.9-2.9,2.9H20.8h-0.6h-6.3h0h-2.6
	l-0.7,2.4h2.6l-0.7,2.4H9.8l-0.7,2.4h2.6h0l0.2-0.7l0.5-1.7H15l-0.7,2.4h-2.6L11,45.1h1.4l0,0h24.8c6.9,0,12.5-5.6,12.5-12.5
	C49.8,26.1,45,20.9,38.8,20.1"/>
<defs>
	<filter id="Adobe_OpacityMaskFilter_2_" filterUnits="userSpaceOnUse" x="5.7" y="42.7" width="3.4" height="2.4">
		<feColorMatrix  type="matrix" values="1 0 0 0 0  0 1 0 0 0  0 0 1 0 0  0 0 0 1 0"/>
	</filter>
</defs>
<mask maskUnits="userSpaceOnUse" x="5.7" y="42.7" width="3.4" height="2.4" id="mask-2_8_">
	<g class="st5">
		<polygon id="path-1_8_" class="st1" points="1.4,45.1 119.3,45.1 119.3,9.1 1.4,9.1 		"/>
	</g>
</mask>
<polygon id="Fill-17" class="st6" points="5.7,45.1 8.4,45.1 9.1,42.7 6.4,42.7 "/>
<defs>
	<filter id="Adobe_OpacityMaskFilter_3_" filterUnits="userSpaceOnUse" x="7.1" y="37.9" width="3.4" height="2.5">
		<feColorMatrix  type="matrix" values="1 0 0 0 0  0 1 0 0 0  0 0 1 0 0  0 0 0 1 0"/>
	</filter>
</defs>
<mask maskUnits="userSpaceOnUse" x="7.1" y="37.9" width="3.4" height="2.5" id="mask-2_9_">
	<g class="st7">
		<polygon id="path-1_9_" class="st1" points="1.4,45.1 119.3,45.1 119.3,9.1 1.4,9.1 		"/>
	</g>
</mask>
<polygon id="Fill-18" class="st8" points="7.9,37.9 7.1,40.3 9.8,40.3 10.5,37.9 "/>
<defs>
	<filter id="Adobe_OpacityMaskFilter_4_" filterUnits="userSpaceOnUse" x="5.3" y="35.4" width="3.3" height="2.4">
		<feColorMatrix  type="matrix" values="1 0 0 0 0  0 1 0 0 0  0 0 1 0 0  0 0 0 1 0"/>
	</filter>
</defs>
<mask maskUnits="userSpaceOnUse" x="5.3" y="35.4" width="3.3" height="2.4" id="mask-2_10_">
	<g class="st9">
		<polygon id="path-1_10_" class="st1" points="1.4,45.1 119.3,45.1 119.3,9.1 1.4,9.1 		"/>
	</g>
</mask>
<polygon id="Fill-19" class="st10" points="6,35.4 5.3,37.9 7.9,37.9 8.6,35.4 "/>
<defs>
	<filter id="Adobe_OpacityMaskFilter_5_" filterUnits="userSpaceOnUse" x="1.2" y="40.3" width="3.3" height="2.4">
		<feColorMatrix  type="matrix" values="1 0 0 0 0  0 1 0 0 0  0 0 1 0 0  0 0 0 1 0"/>
	</filter>
</defs>
<mask maskUnits="userSpaceOnUse" x="1.2" y="40.3" width="3.3" height="2.4" id="mask-2_11_">
	<g class="st11">
		<polygon id="path-1_11_" class="st1" points="1.4,45.1 119.3,45.1 119.3,9.1 1.4,9.1 		"/>
	</g>
</mask>
<polygon id="Fill-20" class="st12" points="1.2,42.7 3.8,42.7 4.5,40.3 1.9,40.3 "/>
</svg>
