<?xml version="1.0" encoding="utf-8"?>
<!-- Generator: Adobe Illustrator 23.0.0, SVG Export Plug-In . SVG Version: 6.00 Build 0)  -->
<svg version="1.1" id="svg-634465400_1204" xmlns="http://www.w3.org/2000/svg" xmlns:xlink="http://www.w3.org/1999/xlink" x="0px"
	 y="0px" viewBox="0 0 32 32" style="enable-background:new 0 0 32 32;" xml:space="preserve">
<style type="text/css">
	.st0{fill:#292A2F;}
</style>
<path class="st0" d="M2.9,8.6c0-3.2,2.6-5.7,5.7-5.7s5.7,2.6,5.7,5.7c0,1.9,0.1,4,1.4,5.4l2.4,2.4c1.3,1.3,3.5,1.4,5.4,1.4
	c3.2,0,5.7,2.6,5.7,5.7s-2.6,5.7-5.7,5.7s-5.7-2.6-5.7-5.7c0-1.9-0.1-4-1.4-5.4l-2.4-2.4c-1.3-1.3-3.5-1.4-5.4-1.4
	C5.4,14.3,2.9,11.7,2.9,8.6z"/>
<path class="st0" d="M29.1,8.6c0,3.2-2.6,5.7-5.7,5.7s-5.7-2.6-5.7-5.7s2.6-5.7,5.7-5.7S29.1,5.4,29.1,8.6z"/>
<path class="st0" d="M8.6,29.1c3.2,0,5.7-2.6,5.7-5.7s-2.6-5.7-5.7-5.7s-5.7,2.6-5.7,5.7S5.4,29.1,8.6,29.1z"/>
</svg>
