<?xml version="1.0" encoding="utf-8"?>
<!-- Generator: Adobe Illustrator 23.0.0, SVG Export Plug-In . SVG Version: 6.00 Build 0)  -->
<svg version="1.1" id="图层_1" xmlns="http://www.w3.org/2000/svg" xmlns:xlink="http://www.w3.org/1999/xlink" x="0px" y="0px"
	 viewBox="0 0 122.3 122.3" style="enable-background:new 0 0 122.3 122.3;" xml:space="preserve">
<style type="text/css">
	.st0{fill:#D9D9D9;filter:url(#Adobe_OpacityMaskFilter);}
	.st1{fill:#D9D9D9;}
	.st2{mask:url(#mask0_8029_58608_1_);}
	.st3{fill:#3C8FE8;}
	.st4{fill:url(#SVGID_1_);}
	.st5{fill:url(#SVGID_2_);}
	.st6{fill:url(#SVGID_3_);}
	.st7{opacity:0.6;fill:url(#SVGID_4_);enable-background:new    ;}
	.st8{opacity:0.6;fill:url(#SVGID_5_);enable-background:new    ;}
	.st9{opacity:0.6;fill:url(#SVGID_6_);enable-background:new    ;}
</style>
<defs>
	<filter id="Adobe_OpacityMaskFilter" filterUnits="userSpaceOnUse" x="-35.4" y="-20.8" width="245.8" height="169.7">
		<feColorMatrix  type="matrix" values="1 0 0 0 0  0 1 0 0 0  0 0 1 0 0  0 0 0 1 0"/>
	</filter>
</defs>
<mask maskUnits="userSpaceOnUse" x="-35.4" y="-20.8" width="245.8" height="169.7" id="mask0_8029_58608_1_">
	<path class="st0" d="M40.9,89.6c-0.9-0.4-1.3,0.1-1.3,1.5c0,1.3,0.1,6.2,1.1,8.2c1,1.9,2.5,3.4,4.4,4.4c1.7,0.8,3.7,1,7.1,1.1
		c9.3-0.4,17.5-5.3,22.4-12.6c0.4-0.6,0-1.5-0.8-1.5H51.5C48.4,90.7,43.7,91,40.9,89.6z"/>
	<path class="st1" d="M37.1,48c0-1.4-1.8-1.9-2.5-0.7c-1.8,3.1-4.7,8.1-8.7,15c-7.1,12.2-4.6,28.6,9,37.8c1.7,1.1,3-0.7,2.7-2.1
		c-0.7-2.9-0.5-6.1-0.5-9.1V48z"/>
	<path class="st1" d="M91.2,60.8c0.1,1,0.8,1.1,1.9,0.4c1.2-0.7,5.3-3.1,6.6-5.1c1.2-1.8,1.7-3.9,1.6-6c-0.1-1.8-0.9-3.7-2.6-6.7
		c-5-7.9-13.4-12.5-22.1-13.1c-0.8-0.1-1.3,0.8-0.9,1.5l11.2,19.3C88.5,53.8,91,57.7,91.2,60.8z"/>
	<path class="st1" d="M57.1,85c-1.2,0.7-0.7,2.5,0.7,2.5c3.6,0,9.3,0,17.4,0c14.1,0,27.1-10.3,28.3-26.7c0.1-2-2.1-2.3-3.2-1.3
		c-2.2,2.1-5.1,3.5-7.6,5L57.1,85z"/>
	<path class="st1" d="M41.8,31.9c0.8-0.5,0.6-1.2-0.6-1.9c-1.2-0.7-5.4-3-7.7-3.2c-2.1-0.1-4.2,0.5-6,1.6c-1.6,1-2.7,2.7-4.5,5.6
		c-4.3,8.3-4.2,17.8-0.3,25.7c0.3,0.7,1.3,0.7,1.7,0l11.2-19.3C37.1,37.8,39.2,33.7,41.8,31.9z"/>
	<path class="st1" d="M79.8,49.4c1.2,0.7,2.5-0.6,1.8-1.8c-1.8-3.1-4.7-8.1-8.7-15c-7.1-12.2-22.4-18.3-37.2-11.1
		c-1.8,0.9-0.9,3,0.5,3.4c2.9,0.8,5.5,2.6,8.1,4.1L79.8,49.4z"/>
</mask>
<g class="st2">
	<rect x="10.5" y="10.4" class="st3" width="102.5" height="102.5"/>
	
		<radialGradient id="SVGID_1_" cx="-26.3754" cy="175.219" r="1" gradientTransform="matrix(5.195626e-15 84.851 84.8509 -5.195619e-15 -14741.8848 2302.0339)" gradientUnits="userSpaceOnUse">
		<stop  offset="0.5104" style="stop-color:#8535F2"/>
		<stop  offset="1" style="stop-color:#8535F2;stop-opacity:0"/>
	</radialGradient>
	<ellipse class="st4" cx="125.6" cy="64.1" rx="84.9" ry="84.9"/>
	
		<radialGradient id="SVGID_2_" cx="-25.5647" cy="175.632" r="1" gradientTransform="matrix(2.261059e-15 36.9259 36.9259 -2.261059e-15 -6365.9629 990.6845)" gradientUnits="userSpaceOnUse">
		<stop  offset="0" style="stop-color:#FF439D"/>
		<stop  offset="1" style="stop-color:#FF439D;stop-opacity:0"/>
	</radialGradient>
	<circle class="st5" cx="119.4" cy="46.7" r="36.9"/>
	
		<radialGradient id="SVGID_3_" cx="-25.8165" cy="175.5037" r="1" gradientTransform="matrix(2.742131e-15 44.7824 44.7824 -2.742131e-15 -7850.0625 1254.3142)" gradientUnits="userSpaceOnUse">
		<stop  offset="0" style="stop-color:#44E7FF"/>
		<stop  offset="1" style="stop-color:#44E7FF;stop-opacity:0"/>
	</radialGradient>
	<ellipse class="st6" cx="9.4" cy="98.2" rx="44.8" ry="44.8"/>
	
		<linearGradient id="SVGID_4_" gradientUnits="userSpaceOnUse" x1="31.2144" y1="80.0319" x2="31.2144" y2="38.3196" gradientTransform="matrix(1 0 0 -1 0 123.0299)">
		<stop  offset="0" style="stop-color:#FFFFFF"/>
		<stop  offset="1" style="stop-color:#FFFFFF;stop-opacity:0"/>
	</linearGradient>
	<path class="st7" d="M37.1,84.8V48c0-1.4-1.8-1.9-2.5-0.7l-9.3,16L37.1,84.8z"/>
	
		<linearGradient id="SVGID_5_" gradientUnits="userSpaceOnUse" x1="55.7556" y1="30.4896" x2="91.8794" y2="51.3457" gradientTransform="matrix(1 0 0 -1 0 123.0299)">
		<stop  offset="0" style="stop-color:#FFFFFF"/>
		<stop  offset="1" style="stop-color:#FFFFFF;stop-opacity:0"/>
	</linearGradient>
	<path class="st8" d="M89,66.5L57.2,84.9c-1.2,0.7-0.7,2.5,0.7,2.5h18.5L89,66.5z"/>
	
		<linearGradient id="SVGID_6_" gradientUnits="userSpaceOnUse" x1="87.0395" y1="76.2382" x2="50.9156" y2="97.0943" gradientTransform="matrix(1 0 0 -1 0 123.0299)">
		<stop  offset="0" style="stop-color:#FFFFFF"/>
		<stop  offset="1" style="stop-color:#FFFFFF;stop-opacity:0"/>
	</linearGradient>
	<path class="st9" d="M47.9,31l31.8,18.4c1.2,0.7,2.5-0.6,1.8-1.8l-9.3-16L47.9,31z"/>
</g>
</svg>
