<?xml version="1.0" encoding="utf-8"?>
<!-- Generator: Adobe Illustrator 23.0.0, SVG Export Plug-In . SVG Version: 6.00 Build 0)  -->
<svg version="1.1" id="图层_1" xmlns="http://www.w3.org/2000/svg" xmlns:xlink="http://www.w3.org/1999/xlink" x="0px" y="0px"
	 viewBox="0 0 85.04 85.04" style="enable-background:new 0 0 85.04 85.04;" xml:space="preserve">
<g>
	<path d="M22.84,33.58v9.59c0,0.83-0.04,1.54-0.11,2.12s-0.23,1.17-0.48,1.77c-0.42,1.01-1.1,1.79-2.06,2.35
		c-0.96,0.56-2.12,0.84-3.5,0.84c-1.24,0-2.28-0.2-3.1-0.59c-0.83-0.39-1.5-1.02-2-1.9c-0.27-0.47-0.48-1-0.65-1.61
		c-0.17-0.61-0.25-1.19-0.25-1.74c0-0.58,0.16-1.03,0.49-1.34c0.33-0.31,0.74-0.46,1.25-0.46c0.49,0,0.86,0.14,1.11,0.42
		c0.25,0.28,0.44,0.72,0.57,1.32c0.14,0.64,0.28,1.15,0.42,1.54s0.38,0.71,0.71,0.99c0.33,0.28,0.81,0.41,1.42,0.41
		c1.64,0,2.46-1.2,2.46-3.61V33.58c0-0.75,0.16-1.31,0.49-1.69c0.33-0.37,0.78-0.56,1.34-0.56c0.57,0,1.03,0.19,1.37,0.56
		C22.67,32.27,22.84,32.83,22.84,33.58z"/>
	<path d="M28.34,34.82c-0.48,0-0.88-0.15-1.22-0.44c-0.34-0.29-0.51-0.7-0.51-1.24c0-0.48,0.17-0.88,0.52-1.19
		c0.35-0.31,0.75-0.47,1.21-0.47c0.44,0,0.83,0.14,1.17,0.42s0.51,0.7,0.51,1.24c0,0.52-0.17,0.93-0.5,1.23
		C29.2,34.67,28.8,34.82,28.34,34.82z M30.03,38.34v9.86c0,0.68-0.16,1.2-0.49,1.55c-0.33,0.35-0.74,0.53-1.24,0.53
		s-0.91-0.18-1.22-0.54c-0.31-0.36-0.47-0.87-0.47-1.54v-9.76c0-0.67,0.16-1.18,0.47-1.52c0.31-0.34,0.72-0.51,1.22-0.51
		s0.91,0.17,1.24,0.51C29.87,37.26,30.03,37.73,30.03,38.34z"/>
	<path d="M33.74,36.71h0.37v-2.05c0-0.55,0.01-0.98,0.04-1.29c0.03-0.31,0.11-0.58,0.24-0.81c0.13-0.23,0.32-0.42,0.57-0.57
		c0.25-0.15,0.53-0.22,0.84-0.22c0.43,0,0.82,0.16,1.17,0.49c0.23,0.22,0.38,0.48,0.44,0.79c0.06,0.31,0.09,0.76,0.09,1.33v2.32
		h1.25c0.48,0,0.85,0.11,1.11,0.34c0.25,0.23,0.38,0.52,0.38,0.88c0,0.46-0.18,0.78-0.54,0.96s-0.88,0.27-1.56,0.27h-0.64v6.27
		c0,0.53,0.02,0.94,0.06,1.23c0.04,0.29,0.14,0.52,0.3,0.7c0.16,0.18,0.43,0.27,0.79,0.27c0.2,0,0.47-0.04,0.81-0.11
		c0.34-0.07,0.61-0.11,0.8-0.11c0.27,0,0.52,0.11,0.74,0.33s0.33,0.49,0.33,0.82c0,0.55-0.3,0.97-0.9,1.26s-1.46,0.44-2.59,0.44
		c-1.07,0-1.87-0.18-2.42-0.54c-0.55-0.36-0.91-0.85-1.08-1.49c-0.17-0.63-0.26-1.48-0.26-2.54v-6.54h-0.45
		c-0.49,0-0.87-0.12-1.12-0.35c-0.26-0.23-0.39-0.53-0.39-0.89s0.14-0.65,0.41-0.88C32.83,36.82,33.22,36.71,33.74,36.71z"/>
	<path d="M42.8,36.71h0.37v-2.05c0-0.55,0.01-0.98,0.04-1.29c0.03-0.31,0.11-0.58,0.24-0.81c0.13-0.23,0.32-0.42,0.57-0.57
		c0.25-0.15,0.53-0.22,0.84-0.22c0.43,0,0.82,0.16,1.17,0.49c0.23,0.22,0.38,0.48,0.44,0.79c0.06,0.31,0.09,0.76,0.09,1.33v2.32
		h1.25c0.48,0,0.85,0.11,1.11,0.34c0.25,0.23,0.38,0.52,0.38,0.88c0,0.46-0.18,0.78-0.54,0.96s-0.88,0.27-1.55,0.27h-0.64v6.27
		c0,0.53,0.02,0.94,0.06,1.23c0.04,0.29,0.14,0.52,0.3,0.7c0.16,0.18,0.43,0.27,0.79,0.27c0.2,0,0.47-0.04,0.81-0.11
		c0.34-0.07,0.61-0.11,0.8-0.11c0.28,0,0.52,0.11,0.74,0.33s0.33,0.49,0.33,0.82c0,0.55-0.3,0.97-0.9,1.26s-1.46,0.44-2.59,0.44
		c-1.07,0-1.87-0.18-2.42-0.54c-0.55-0.36-0.91-0.85-1.08-1.49c-0.17-0.63-0.26-1.48-0.26-2.54v-6.54h-0.45
		c-0.49,0-0.87-0.12-1.12-0.35c-0.26-0.23-0.39-0.53-0.39-0.89s0.14-0.65,0.41-0.88C41.89,36.82,42.28,36.71,42.8,36.71z"/>
	<path d="M61.19,44.17h-6.67c0.01,0.77,0.16,1.46,0.47,2.05c0.3,0.59,0.71,1.04,1.21,1.34s1.06,0.45,1.67,0.45
		c0.41,0,0.78-0.05,1.12-0.14s0.66-0.25,0.98-0.45s0.61-0.42,0.87-0.66s0.61-0.55,1.04-0.95c0.17-0.15,0.42-0.23,0.75-0.23
		c0.35,0,0.63,0.1,0.85,0.29c0.22,0.19,0.33,0.46,0.33,0.81c0,0.31-0.12,0.67-0.36,1.08s-0.61,0.81-1.09,1.19
		c-0.49,0.38-1.1,0.69-1.84,0.94c-0.74,0.25-1.58,0.38-2.54,0.38c-2.19,0-3.89-0.63-5.11-1.87s-1.82-2.94-1.82-5.08
		c0-1.01,0.15-1.94,0.45-2.8c0.3-0.86,0.74-1.6,1.31-2.22c0.57-0.62,1.28-1.09,2.12-1.42c0.84-0.33,1.77-0.49,2.8-0.49
		c1.33,0,2.47,0.28,3.43,0.84c0.95,0.56,1.67,1.29,2.14,2.18c0.47,0.89,0.71,1.8,0.71,2.72c0,0.86-0.25,1.41-0.74,1.67
		S62.08,44.17,61.19,44.17z M54.51,42.24h6.18c-0.08-1.17-0.4-2.04-0.94-2.62c-0.55-0.58-1.26-0.87-2.16-0.87
		c-0.85,0-1.55,0.29-2.09,0.88C54.96,40.22,54.63,41.09,54.51,42.24z"/>
	<path d="M70.25,45.35v2.85c0,0.69-0.16,1.21-0.49,1.55c-0.32,0.35-0.74,0.52-1.24,0.52c-0.49,0-0.9-0.17-1.21-0.53
		c-0.32-0.35-0.47-0.87-0.47-1.55V38.7c0-1.53,0.55-2.3,1.66-2.3c0.57,0,0.97,0.18,1.22,0.54s0.39,0.89,0.41,1.59
		c0.41-0.7,0.83-1.23,1.25-1.59c0.43-0.36,1-0.54,1.72-0.54c0.72,0,1.41,0.18,2.09,0.54c0.67,0.36,1.01,0.83,1.01,1.42
		c0,0.42-0.14,0.76-0.43,1.03s-0.6,0.41-0.93,0.41c-0.13,0-0.43-0.08-0.91-0.23c-0.48-0.15-0.9-0.23-1.27-0.23
		c-0.5,0-0.91,0.13-1.22,0.39c-0.32,0.26-0.56,0.65-0.74,1.17c-0.17,0.52-0.29,1.13-0.36,1.84C70.29,43.46,70.25,44.32,70.25,45.35z
		"/>
</g>
</svg>
