<?xml version="1.0" encoding="utf-8"?>
<!-- Generator: Adobe Illustrator 23.0.0, SVG Export Plug-In . SVG Version: 6.00 Build 0)  -->
<svg version="1.1" id="图层_1" xmlns="http://www.w3.org/2000/svg" xmlns:xlink="http://www.w3.org/1999/xlink" x="0px" y="0px"
	 viewBox="0 0 33.3 34" style="enable-background:new 0 0 33.3 34;" xml:space="preserve">
<style type="text/css">
	.st0{fill:#BD483B;}
	.st1{fill:#E64E3D;}
	.st2{fill:#FEC82F;}
	.st3{fill:#DF9C26;}
</style>
<path class="st0" d="M16.4,0.3l-3.1,11v11.1l3.1,11.1l3.2-11.1V11.4L16.4,0.3z"/>
<path class="st1" d="M16.4,0.3L1,5.9l2.2,20.5l13.2,7.3"/>
<path class="st0" d="M16.4,33.7l13.3-7.4l2.5-20.5L16.4,0.3"/>
<path class="st2" d="M13.6,25.1c-1.5-0.5-2.9-1.3-3.9-2.4l0,0c-1-1.1-1.8-2.4-2.2-3.8c0.3,0.2,0.5,0.4,0.8,0.6c0,0,0,0,0,0
	c0,0,0,0,0,0c0.5,0.4,1.1,0.7,1.7,0.9c0.2,0.1,0.4,0.1,0.5,0.2c0,0,0,0,0,0c0,0,0.1,0,0.1,0c0.1,0.8,0.6,1.4,1.4,1.5
	C12.3,23.3,12.8,24.3,13.6,25.1z M14.2,11.8c0,0.3,0.1,0.6,0.2,0.9c-1.3,1.8-2.1,3.7-2.5,5.5c0,0.2-0.1,0.4-0.1,0.6
	c-0.4,0.1-0.8,0.4-1,0.8c0,0,0,0,0,0c0,0,0,0-0.1,0c-1.1-0.3-2-0.9-2.8-1.7c-0.1-0.1-0.2-0.2-0.3-0.3l0,0l-0.1-0.1l0-0.1
	c0,0,0,0,0,0c0,0,0,0,0,0c0,0,0,0-0.1-0.1c0,0,0,0,0,0l0,0c0,0,0,0,0,0c-0.1-0.1-0.1-0.1-0.2-0.2c0,0,0,0,0,0c0,0,0,0,0,0
	c-0.2-2.4,0.6-4.8,2.2-6.7c1.1-1.3,2.6-2.3,4.3-2.8c0,0.2,0.1,0.4,0.1,0.6c0.2,1,0.5,1.9,0.9,2.9C14.3,11,14.2,11.4,14.2,11.8z
	 M13.2,20.5c0,0.3-0.1,0.5-0.3,0.7c-0.3,0.3-0.7,0.3-1.1,0.1c-0.1-0.1-0.3-0.2-0.3-0.4c-0.1-0.1-0.1-0.3-0.1-0.4
	c0-0.3,0.1-0.6,0.4-0.7c0.4-0.3,1-0.2,1.3,0.2c0,0,0,0,0,0C13.1,20.1,13.2,20.3,13.2,20.5z M16.8,11.8c0,0.5-0.4,0.9-0.9,0.9
	c0,0,0,0,0,0c0,0-0.1,0-0.1,0c0,0,0,0,0,0c-0.5-0.1-0.8-0.5-0.8-1c0.1-0.4,0.5-0.8,0.9-0.8h0C16.4,10.9,16.8,11.3,16.8,11.8z"/>
<path class="st3" d="M25.8,16.1c0,0.9-0.1,1.8-0.4,2.6c-0.8-0.2-1.6-0.5-2.4-0.9c0.1-0.3,0-0.7-0.1-1c1-1,1.8-2.1,2.5-3.3
	C25.6,14.4,25.8,15.2,25.8,16.1z M24.9,12.2c-0.1,0.1-0.1,0.3-0.2,0.4C24,13.9,23.2,15,22.2,16c-0.6-0.4-1.3-0.3-1.9,0.1
	c-0.5-0.4-1-0.9-1.5-1.3c-0.6-0.6-1.1-1.2-1.6-1.9c0.5-0.6,0.5-1.3,0.2-2c1.2-1.1,2.5-2.1,3.9-2.8C22.8,9.1,24.1,10.5,24.9,12.2z
	 M22.2,17.5c0,0.5-0.4,0.9-0.9,0.9c-0.5,0-0.9-0.4-0.9-0.9l0,0c0,0,0,0,0,0c0,0,0,0,0,0l0,0c0-0.5,0.4-0.9,0.9-0.9
	c0.1,0,0.2,0,0.3,0C22,16.8,22.2,17.1,22.2,17.5z M22.5,18.8c-0.6,0.5-1.4,0.6-2.1,0.2c0,0-0.1,0.1-0.1,0.1
	c-1.2,0.8-2.5,1.3-3.9,1.7v4.8c3.8,0,7.2-2.3,8.6-5.7C24.1,19.5,23.3,19.2,22.5,18.8z"/>
<path class="st2" d="M16.4,20.7c-0.8,0.2-1.6,0.3-2.4,0.4l-0.1,0c-0.2,0.4-0.5,0.7-0.8,0.9c0.2,0.9,0.7,1.7,1.3,2.3
	c0.5,0.5,1.2,0.9,1.9,1.2l0.1,0C16.4,25.5,16.4,20.7,16.4,20.7z"/>
<path class="st3" d="M19.6,17.5c0-0.2,0-0.3,0.1-0.5c-1.2-1-2.4-2.1-3.3-3.4v5.9c1.2-0.3,2.3-0.9,3.3-1.5
	C19.6,17.9,19.6,17.7,19.6,17.5z"/>
<path class="st2" d="M16.4,13.6c0-0.1-0.1-0.1-0.1-0.2c-0.3,0.1-0.7,0-1-0.1c-1.1,1.6-1.9,3.3-2.3,5c0,0.2-0.1,0.3-0.1,0.5
	c0.5,0.2,0.8,0.6,1,1.1c0,0,0,0,0,0c0.8,0,1.6-0.2,2.4-0.4C16.4,19.6,16.4,13.6,16.4,13.6z"/>
<path class="st3" d="M16.4,6.8v3.4c0,0,0.1,0,0.1,0.1c1.1-1,2.3-1.9,3.6-2.7C18.9,7,17.7,6.8,16.4,6.8z"/>
<path class="st2" d="M16.4,6.8c-0.6,0-1.2,0.1-1.8,0.2c0,0.2,0.1,0.4,0.1,0.6c0.2,0.9,0.4,1.7,0.8,2.6c0.3-0.1,0.6,0,0.8,0V6.8z"/>
</svg>
