<?xml version="1.0" encoding="utf-8"?>
<!-- Generator: Adobe Illustrator 23.0.0, SVG Export Plug-In . SVG Version: 6.00 Build 0)  -->
<svg version="1.1" id="图层_1" xmlns="http://www.w3.org/2000/svg" xmlns:xlink="http://www.w3.org/1999/xlink" x="0px" y="0px"
	 viewBox="0 0 198.3 198.3" style="enable-background:new 0 0 198.3 198.3;" xml:space="preserve">
<style type="text/css">
	.st0{fill:#344356;}
	.st1{fill:#7FD8FF;}
	.st2{fill:#0074FF;}
	.st3{fill:#00ADFF;}
</style>
<title>算数logo</title>
<polygon class="st0" points="457.6,64.3 391.7,64.3 390.9,56.7 458.3,56.7 "/>
<polygon class="st0" points="459.6,116.8 390.8,116.8 390,109.2 460.3,109.2 "/>
<rect x="370.1" y="83.1" class="st0" width="110.8" height="7.6"/>
<rect x="372.9" y="137.3" class="st0" width="105" height="7.6"/>
<rect x="370.1" y="152.7" class="st0" width="110.8" height="7.6"/>
<rect x="419.9" y="98.5" class="st0" width="13" height="60.1"/>
<path class="st0" d="M372.4,95.9v34.3h99.9c3,0,5.4-2.4,5.4-5.3c0,0,0,0,0,0V95.9H372.4z M385.4,122.3v-18.6h79.2v17.1
	c0,0.9-0.7,1.5-1.5,1.5l0,0L385.4,122.3z"/>
<path class="st0" d="M373.5,43v34.9h97c3,0,5.4-2.4,5.4-5.4V43H373.5z M462.9,69.2c0,0.6-0.5,1.1-1.1,1.1h-75.4l-0.1-19.7h76.6
	L462.9,69.2z"/>
<path class="st0" d="M255.9,147.1V54.3h97.7V43l-110.8,0.2l0.1,111.7c0,3,2.4,5.4,5.3,5.4c0,0,0,0,0,0h105.3V149h-95.9
	C256.7,149,255.9,148.2,255.9,147.1L255.9,147.1z"/>
<path class="st0" d="M254.6,77.6l-1.1,11.3h81.7l-1.2,24.9c0,0.6-0.5,1-1.1,1h-72.5l1.2,11.3H343c1.9,0,3.4-1.4,3.6-3.3l2.1-45.2
	L254.6,77.6z"/>
<path id="Fill-1" class="st1" d="M98.5,1.2c-1-0.6-2.3-0.6-3.3,0L12.4,48.8V78L40,94.8l-0.1-23.6l57-34.6l83.7,50.7V55.9L98.5,1.2z"
	/>
<polygon id="Fill-3" class="st2" points="153,127.9 96.6,162 12.4,111 12.4,142.3 96.3,197.6 179.9,149.3 179.9,120.1 153,103.7 "/>
<path class="st3" d="M97.1,69.4l-49.4,30l49.4,30l49.2-29.9L97.1,69.4z M97,109.7c-5.4,0-9.9-4.4-9.9-9.9S91.6,90,97,90
	s9.9,4.4,9.9,9.9C106.9,105.3,102.5,109.7,97,109.7z"/>
<path class="st0" d="M513.5,58.3h8c1.2,2,2.3,3.8,3.3,5.7c1,1.9,1.9,3.5,2.6,5H541c-0.9-1.7-1.9-3.5-3-5.3c-1.1-1.9-2.1-3.7-3.1-5.3
	h16.4v-9.7h-33.7c0.4-0.8,0.8-1.7,1.3-2.5c0.4-0.8,1.1-2.3,1.5-3.1h-13.3C503,52,493.6,67.2,492.3,69H507
	C508.1,67.5,512.4,60.3,513.5,58.3z"/>
<path class="st0" d="M570.5,58.3h8c1.2,2,2.3,3.8,3.3,5.7c1,1.9,1.9,3.5,2.6,5h13.5c-0.9-1.7-1.9-3.5-3-5.3s-2.1-3.6-3.1-5.3h16.4
	v-9.7h-33.7c0.4-0.8,0.8-1.7,1.3-2.5s1.1-2.3,1.5-3.1H564c-4.1,8.9-13.5,24.2-14.7,25.9H564C565.1,67.5,569.3,60.3,570.5,58.3z"/>
<path class="st0" d="M586.6,128.6v-6.1h-12.8v6.1h-42.3c0.3-1.4,0.5-2.9,0.8-4.3c0.1-0.5,0.2-1.2,0.3-1.8h-12.2
	c-0.1,0.7-0.2,1.3-0.3,1.8c-0.3,1.4-0.6,2.9-1,4.3h-23.1v9.9h19.8c-3.6,11-8.9,17.6-11.5,21.9h13.6c1.7-2.5,7.9-12.9,10.9-21.9h45.1
	v21.9h12.8v-21.9h21.7v-9.9H586.6z"/>
<path class="st0" d="M677.3,115.3c0.1-0.9,0.2-1.7,0.2-2.6v-4.5H621l0.1,9.3h43.9c-0.4,2.7-2.6,11.8-14.4,21.1
	c-5.4-4.4-9.2-10.4-10.8-17.1h-12.5c2.5,9,7.5,18,13.3,23.2c-5.4,2.5-11,4.3-16.8,5.4v10.7c9.5-1.1,18.8-4,27.2-8.7
	c8.3,4.5,17.3,7.4,26.6,8.7v-11.1c-5.7-0.9-11.2-2.5-16.5-4.8C661.4,145.1,676.1,128.5,677.3,115.3z"/>
<path class="st0" d="M627.3,63.4h11.8c-0.9-4-2.9-14.3-3.8-18.3h-12C623.6,46.2,627.1,62,627.3,63.4z"/>
<path class="st0" d="M621.1,99.4h12c1.1-3.5,4.5-16.8,4.9-20.3h-11.3L621.1,99.4z"/>
<path class="st0" d="M676.4,45.1h-12.3c-0.3,2.5-1.2,15.7-1.7,18.3h12.2C674.9,62.1,676.2,46.3,676.4,45.1z"/>
<path class="st0" d="M673,79.1h-11.2c1.4,5.1,4.4,17.2,5.4,20.3h11.2C677.6,96.6,674.4,83.9,673,79.1z"/>
<polygon class="st0" points="679.8,66.1 656.2,66.1 656.2,43 644.2,43 644.2,66.1 620.7,66.1 620.7,76.6 644.2,76.6 644.2,99.4 
	656.2,99.4 656.2,76.6 679.8,76.6 "/>
<rect x="626.2" y="102.8" class="st0" width="12" height="11.4"/>
<path class="st0" d="M626.2,114.2c0,2.5,0.3,5,1,7.4l2.2,4.7l10.3-4.7c-1-2.3-1.5-4.9-1.4-7.4H626.2z"/>
<path class="st0" d="M697.7,62.8h18h12h5.3v-9.4h-35.5l1-10.5h-12.8L684,62.9L697.7,62.8L697.7,62.8z"/>
<path class="st0" d="M715.7,62.8v14.3c0,10.6-5.3,49.9-33.3,71.1V161c0,0,42.3-22.8,44.5-84.3V62.8H715.7z"/>
<path class="st0" d="M696.2,71.7c0,0,4.3,54.8,36.5,76.6V161c0,0-38.4-14.8-47.5-89.1L696.2,71.7z"/>
<path class="st0" d="M600.8,114.3V72.5h-98.1v47h92.9C598.5,119.5,600.8,117.2,600.8,114.3C600.8,114.3,600.8,114.3,600.8,114.3z
	 M515.4,80.2H588v30.1c0,0.8-0.7,1.4-1.5,1.4h-71.1L515.4,80.2z"/>
<polygon class="st0" points="583.5,85.6 519.9,85.6 520.6,93.2 582.8,93.2 "/>
<polygon class="st0" points="583.5,98.9 519.9,98.9 520.6,106.5 582.8,106.5 "/>
</svg>
