<?xml version="1.0" encoding="utf-8"?>
<!-- Generator: Adobe Illustrator 23.0.0, SVG Export Plug-In . SVG Version: 6.00 Build 0)  -->
<svg version="1.1" id="图层_1" xmlns="http://www.w3.org/2000/svg" xmlns:xlink="http://www.w3.org/1999/xlink" x="0px" y="0px"
	 viewBox="0 0 81 81" style="enable-background:new 0 0 81 81;" xml:space="preserve">
<style type="text/css">
	.st0{fill:#494E66;}
	.st1{fill:url(#SVGID_1_);}
</style>
<g>
	<g>
		<path class="st0" d="M13.2,70.4l6.9-5.6H23l-6.1,4.8l6.5,6.4h-2.8l-5.2-5.2l-2.2,1.7v3.5h-2V64.8h2V70.4z"/>
		<path class="st0" d="M24,64.8h2v1.9h-2V64.8z M26,75.9h-1.9v-8.1H26V75.9z"/>
		<path class="st0" d="M27.8,67.8h1.9v1.1c0.3-0.3,0.7-0.6,1.2-0.9s1.1-0.4,1.9-0.4c0.6,0,1.1,0.1,1.6,0.3c0.5,0.2,0.8,0.5,1.1,0.8
			c0.3,0.3,0.5,0.7,0.7,1.2s0.2,1,0.2,1.6v4.4h-1.9v-4.1c0-0.7-0.2-1.3-0.6-1.8c-0.4-0.5-1-0.7-1.7-0.7c-0.8,0-1.4,0.2-1.9,0.7
			c-0.4,0.5-0.6,1.1-0.6,1.8v4.1h-1.9V67.8z"/>
		<path class="st0" d="M42.7,74.5c0.7,0,1.3-0.2,1.8-0.5c0.5-0.3,0.8-0.7,1-1.2l1.5,0.8c-0.1,0.3-0.3,0.6-0.6,0.9
			c-0.3,0.3-0.6,0.6-0.9,0.8c-0.4,0.2-0.8,0.4-1.3,0.6c-0.5,0.1-1,0.2-1.6,0.2c-0.7,0-1.4-0.1-1.9-0.3c-0.6-0.2-1.1-0.5-1.5-0.9
			c-0.4-0.4-0.8-0.8-1-1.3c-0.2-0.5-0.4-1.1-0.4-1.7c0-0.6,0.1-1.2,0.4-1.7c0.2-0.5,0.6-1,1-1.3c0.4-0.4,0.9-0.7,1.5-0.9
			c0.6-0.2,1.3-0.3,2-0.3c0.7,0,1.3,0.1,1.9,0.3c0.6,0.2,1,0.5,1.4,0.9c0.4,0.4,0.7,0.8,0.9,1.3c0.2,0.5,0.3,1,0.3,1.6v0.7h-7.5
			c0.1,0.7,0.5,1.2,1,1.5C41.2,74.3,41.9,74.5,42.7,74.5L42.7,74.5z M42.6,69.2c-0.7,0-1.3,0.2-1.8,0.5c-0.5,0.3-0.9,0.8-1.1,1.4
			h5.6c0-0.2-0.1-0.4-0.3-0.7c-0.1-0.2-0.3-0.4-0.6-0.6c-0.2-0.2-0.5-0.3-0.8-0.4C43.3,69.2,43,69.2,42.6,69.2L42.6,69.2z"/>
		<path class="st0" d="M49.5,69.3h-2.1v-1.6h2.1v-2.4h1.9v2.4h3.7v1.6h-3.7v3.6c0,0.5,0.1,0.9,0.4,1.1c0.3,0.2,0.8,0.3,1.4,0.3
			c0.4,0,0.7,0,1-0.1c0.3-0.1,0.6-0.1,0.9-0.2l0.3,1.6c-0.2,0.1-0.3,0.1-0.5,0.2c-0.2,0.1-0.4,0.1-0.6,0.1c-0.2,0-0.4,0.1-0.7,0.1
			c-0.2,0-0.5,0-0.7,0c-0.4,0-0.9,0-1.3-0.1c-0.4-0.1-0.8-0.3-1.1-0.5c-0.3-0.2-0.6-0.5-0.8-0.9c-0.2-0.4-0.3-0.8-0.3-1.4L49.5,69.3
			L49.5,69.3z"/>
		<path class="st0" d="M56.6,64.8h2v1.9h-2V64.8z M58.5,75.9h-1.9v-8.1h1.9V75.9z"/>
		<path class="st0" d="M64.7,70.6l2.8-2.9h2.3l-3.9,4l4,4.2h-2.5L64.7,73l-2.9,2.9h-2.3l4-4.1l-3.9-4.1H62L64.7,70.6L64.7,70.6z"/>
	</g>
	
		<linearGradient id="SVGID_1_" gradientUnits="userSpaceOnUse" x1="12.4775" y1="20.0014" x2="68.7674" y2="-30.8852" gradientTransform="matrix(1 0 0 -1 0 25.89)">
		<stop  offset="0" style="stop-color:#ED4363"/>
		<stop  offset="1" style="stop-color:#EF7375"/>
	</linearGradient>
	<path class="st1" d="M53.5,32.2c-0.6-0.6-0.6-1.5,0-2l12.5-12.1c2.3-2.2,2.3-5.8,0-8.1c0,0,0,0,0,0l-3.6-3.4c-2.3-2.2-6-2.2-8.3,0
		L41.5,18.7c-0.6,0.6-1.5,0.6-2.1,0L27,6.6c-2.3-2.2-6-2.2-8.3,0L15.1,10c-2.3,2.2-2.3,5.8,0,8.1c0,0,0,0,0,0l12.4,12.1
		c0.6,0.6,0.6,1.5,0,2L15.1,44.3c-2.3,2.2-2.3,5.8,0,8.1c0,0,0,0,0,0l3.6,3.4c2.3,2.2,6,2.2,8.3,0l12.5-12.1c0.6-0.6,1.5-0.6,2.1,0
		c0,0,0,0,0,0L54,55.9c2.3,2.2,6,2.2,8.3,0l3.6-3.4c2.3-2.2,2.3-5.8,0-8.1c0,0,0,0,0,0L53.5,32.2L53.5,32.2z M61.3,46.2L56,51.4
		c-0.9,0.8-2.3,0.8-3.1,0c0,0,0,0,0,0L41.5,40.4c-0.6-0.6-1.5-0.6-2.1,0L28.2,51.4c-0.9,0.8-2.3,0.8-3.1,0c0,0,0,0,0,0l-5.3-5.2
		c-0.9-0.8-0.9-2.2,0-3c0,0,0,0,0,0L31,32.2c0.6-0.6,0.6-1.5,0-2L20.5,20c-0.9-0.8-0.9-2.2,0-3l5.4-5.2c0.9-0.8,2.3-0.8,3.1,0
		L39.5,22c0.6,0.6,1.5,0.6,2.1,0c0,0,0,0,0,0l10.6-10.2c0.9-0.8,2.3-0.8,3.1,0c0,0,0,0,0,0l5.4,5.2c0.9,0.8,0.9,2.2,0,3L50,30.2
		c-0.6,0.6-0.6,1.5,0,2l11.3,10.9C62.2,44,62.2,45.4,61.3,46.2C61.3,46.2,61.3,46.2,61.3,46.2L61.3,46.2L61.3,46.2z"/>
</g>
</svg>
