<?xml version="1.0" encoding="utf-8"?>
<!-- Generator: Adobe Illustrator 23.0.0, SVG Export Plug-In . SVG Version: 6.00 Build 0)  -->
<svg version="1.1" id="Layer_1" xmlns="http://www.w3.org/2000/svg" xmlns:xlink="http://www.w3.org/1999/xlink" x="0px" y="0px"
	 viewBox="0 0 1264.3 1264.3" style="enable-background:new 0 0 1264.3 1264.3;" xml:space="preserve">
<style type="text/css">
	.st0{fill:#252B4C;}
</style>
<path class="st0" d="M994,771.6c-33,0-59.7-26.8-59.7-59.7V538.2c0-20.9-17.2-37.8-38.1-37.8s-23.1,5.5-30.4,16.1L706,746
	c-11,16.1-29.3,25.7-49.1,25.7h-45.1c-33,0-59.7-26.8-59.7-59.7V538.2c0-20.9-17.2-37.8-38.1-37.8s-23.1,5.5-30.4,16.1L323.7,746
	c-11,16.1-29.3,25.7-49.1,25.7H150.7c-33,0-59.7-26.8-59.7-59.7V411.4c0-33,26.8-59.7,59.7-59.7h126.4c33,0,59.7-26.8,59.7-59.7
	V154.1c0-33,26.8-59.7,59.7-59.7h237.1c33,0,59.7,26.8,59.7,59.7v135.6c0,11,4,20.5,11.7,27.5c7,6.6,16.5,10.3,26.4,10.3
	c9.9,0,23.1-5.5,30.4-16.1l133-190.9c11-16.1,29.3-25.7,49.1-25.7h187.7c33,0,59.7,26.8,59.7,59.7v557.5c0,33-26.8,59.7-59.7,59.7
	H993.7L994,771.6z"/>
<g>
	<path class="st0" d="M65.8,944.4h48.3v43.8l6.4,8.8v137.8H65.8V944.4z M181.5,1009.9c-2.8-5.5-6.7-9.8-11.5-12.7
		s-10.4-4.4-16.8-4.4c-6.4,0-11.4,1.6-16.3,4.5c-5.1,3.1-9,7.4-12,13.3c-2.9,5.8-4.4,12.7-4.4,20.6l-10.9-42.3
		c3.1-9.6,7.6-18.1,13.6-25.4c6-7.3,13.3-13,22-16.9c8.8-3.9,18.4-6,28.9-6c10.5,0,23,2.9,31.9,8.6c8.8,5.8,15.6,13.6,20.3,23.5
		c6.9-9.9,15.6-17.6,26.3-23.5c10.6-5.7,22.9-8.6,36.5-8.6c13.6,0,26.3,3.1,37,9.3c10.8,6.3,19.1,15,25.1,26.4
		c5.8,11.4,8.8,24.8,8.8,40.4v118.2h-54.3v-105c0-11.2-2.9-20.3-8.8-27c-5.8-6.7-13.7-10.1-23.6-10.1c-9.9,0-11.7,1.5-16.8,4.2
		c-5.1,2.8-9,7-11.8,12.7c-2.8,5.7-4.2,12.4-4.2,20.1v105h-54.7v-105C185.7,1022.1,184.2,1015.4,181.5,1009.9L181.5,1009.9z"/>
	<path class="st0" d="M425.8,1125.7c-15.3-8.8-27.3-20.6-36.2-35.6c-8.8-15-13.3-31.8-13.3-50c0-18.2,4.4-35.7,13.3-50.8
		c8.8-15,20.9-27,36.2-35.6c15.3-8.8,32.2-13,50.8-13c18.5,0,35.9,4.4,51.3,13c15.5,8.8,27.6,20.6,36.3,35.6
		c8.8,15,13.3,31.9,13.3,50.8s-4.5,35.2-13.4,50.2c-8.9,15.2-21,27-36.3,35.6c-15.3,8.6-32.2,12.8-50.8,12.8
		S441.1,1134.3,425.8,1125.7L425.8,1125.7z M500,1080.5c7-3.9,12.4-9.6,16.3-16.8s6-15.2,6-23.8c0-8.6-2-17.4-6-24.5
		c-3.9-7.1-9.5-12.7-16.3-16.8c-7-3.9-14.6-6-23-6s-16.2,2-23,6c-7,3.9-12.4,9.6-16.3,16.9s-6,15.3-6,23.9s2,16.6,6,23.9
		c3.9,7.3,9.5,13,16.3,16.9c7,3.9,14.6,6,23,6s16.2-2,23-6V1080.5z"/>
	<path class="st0" d="M634.8,1125.5c-13.9-8.8-24.8-20.7-33-35.7c-8.2-15-12.1-31.7-12.1-49.7c0-18.1,3.9-35.4,12-50.6
		s19-27.1,32.8-35.7c13.9-8.8,29.5-13,46.8-13c17.4,0,21.6,1.6,30.9,4.8c9.3,3.2,17.5,8,24.5,14.4s12.7,14.3,16.9,23.5v112.5
		c-6.4,13.9-15.8,24.5-28.2,31.9s-27.1,11.1-44.1,11.1c-16.9,0-32.7-4.4-46.5-13.3L634.8,1125.5z M715.5,1080.8
		c7-4.1,12.5-9.8,16.8-16.9s6.4-15.2,6.4-24.2s-2.2-17.1-6.4-24.4s-9.8-13-16.8-17.1c-7-4.1-14.9-6.1-23.8-6.1
		c-8.9,0-16.3,2.2-23.6,6.4c-7.3,4.2-13,10.1-17.1,17.2c-4.1,7.3-6.1,15.3-6.1,23.9s2,16.6,6.1,23.8c4.1,7.1,9.8,12.8,16.9,17.1
		c7.1,4.2,15.2,6.4,23.8,6.4C700.3,1086.9,708.6,1084.8,715.5,1080.8L715.5,1080.8z M744.2,1081.6l-5.7-5.7V873.2h54v207
		c0,12.7,0.4,23.6,1.5,32.7c0.9,9,2.3,16.3,4.2,22h-54V1081.6L744.2,1081.6z"/>
	<path class="st0" d="M821.7,1198.8c-7.6-1.8-14-3.9-19.4-6.6l16.6-52.2c5,2.6,9.6,4.5,14.3,6s9,2.2,13.6,2.2
		c6.4,0,11.5-1.8,15.3-5.3c3.9-3.5,7.3-8.6,10.4-15.2l27.9-62l46.2-121.4h58.5l-83.9,201.3c-7.3,17.6-16.9,31.4-28.7,41.1
		c-11.8,9.8-27.7,14.6-47.4,14.6C825.3,1201.4,829.3,1200.5,821.7,1198.8L821.7,1198.8z M803,944.4h58.5l56,148.5l-34.9,42.6
		L803,944.4z"/>
	<path class="st0" d="M981.4,944.4h191.1v46.2H981.4V944.4z M1028.4,896.2c7.6-12.5,18.1-22.2,31.9-28.7c13.7-6.6,29.6-9.9,47.8-9.9
		s29.3,2.9,41.3,8.6c12,5.8,22.3,14.7,31.1,27l-35.3,31.4c-4.7-6.4-9.9-11.1-15.5-14.3c-5.7-3.2-12.3-4.8-19.7-4.8
		c-12,0-21.4,3.4-28.2,10.1c-6.9,6.7-10.2,14.9-10.2,24.5v194.6h-54.3v-194c0-16.9,3.8-31.7,11.2-44.2L1028.4,896.2z M1137.3,944.4
		h54.3v190.4h-54.3V944.4z"/>
</g>
</svg>
