<?xml version="1.0" encoding="utf-8"?>
<!-- Generator: Adobe Illustrator 23.0.0, SVG Export Plug-In . SVG Version: 6.00 Build 0)  -->
<svg version="1.1" id="svg-852401219_12863" xmlns="http://www.w3.org/2000/svg" xmlns:xlink="http://www.w3.org/1999/xlink"
	 x="0px" y="0px" viewBox="0 0 372.4 372.6" style="enable-background:new 0 0 372.4 372.6;" xml:space="preserve">
<style type="text/css">
	.st0{clip-path:url(#SVGID_2_);}
	.st1{fill:#E767AC;}
	.st2{fill:#FF9E68;}
	.st3{fill:#FBFF4B;}
	.st4{fill:#B5EBC4;}
	.st5{fill:#5ECDF0;}
	.st6{fill:#8B58F8;}
	.st7{fill:#FFFFFF;}
</style>
<g>
	<defs>
		<path id="SVGID_1_" d="M73.1,0.2h226.3c40.3,0,73.1,32.7,73.1,73.1v226.3c0,40.3-32.7,73.1-73.1,73.1H73.1
			C32.7,372.6,0,339.8,0,299.5V73.2C0,32.9,32.7,0.2,73.1,0.2z"/>
	</defs>
	<clipPath id="SVGID_2_">
		<use xlink:href="#SVGID_1_"  style="overflow:visible;"/>
	</clipPath>
	<g class="st0">
		<path class="st1" d="M0,372.6V0.2h62.1v372.4H0z"/>
		<path class="st2" d="M62.1,372.6V0.2h62.1v372.4H62.1z"/>
		<path class="st3" d="M124.1,372.6V0.2h62.1v372.4H124.1z"/>
		<path class="st4" d="M186.2,372.6V0.2h62.1v372.4H186.2z"/>
		<path class="st5" d="M248.3,372.6V0.2h62.1v372.4H248.3z"/>
		<path class="st6" d="M310.3,372.6V0.2h62.1v372.4H310.3z"/>
		<path class="st6" d="M310.3,372.6V0.2h62.1v372.4H310.3z"/>
		<path class="st7" d="M87.6,36.7h197.1c28.2,0,51.1,22.9,51.1,51.1v197.1c0,28.2-22.9,51.1-51.1,51.1H87.6
			c-28.2,0-51.1-22.9-51.1-51.1V87.8C36.5,59.6,59.4,36.7,87.6,36.7z"/>
		<path d="M116.3,246.1c-4,0-5.3-1.8-3.9-5.5l40.8-107.2c1.7-4.5,4.3-6.7,7.8-6.7h11.7c3.5,0,6.1,2.3,7.8,6.7l40.8,107.2
			c1.4,3.7,0.1,5.5-3.9,5.5h-13.3c-3.7,0-6.2-1.9-7.7-5.7l-8.5-22.4h-42.3l-8.5,22.4c-1.4,3.8-4,5.7-7.7,5.7H116.3L116.3,246.1z
			 M153.5,197.3h26.8L170,170.8c-1.2-3.1-2-5.4-2.3-6.7c-0.2-1.4-0.5-3.6-0.8-6.3h-0.3c-0.3,2.8-0.6,4.9-0.8,6.3
			c-0.2,1.4-0.9,3.6-2.2,6.7L153.5,197.3z M242,246.1c-3.9,0-5.8-2.1-5.8-6.2v-107c0-4.2,1.9-6.2,5.8-6.2h12.7
			c3.9,0,5.8,2.1,5.8,6.2v107c0,4.2-1.9,6.2-5.8,6.2H242z"/>
	</g>
</g>
</svg>
