<?xml version="1.0" encoding="utf-8"?>
<!-- Generator: Adobe Illustrator 23.0.0, SVG Export Plug-In . SVG Version: 6.00 Build 0)  -->
<svg version="1.1" id="图层_1" xmlns="http://www.w3.org/2000/svg" xmlns:xlink="http://www.w3.org/1999/xlink" x="0px" y="0px"
	 viewBox="0 0 37.8 36.9" style="enable-background:new 0 0 37.8 36.9;" xml:space="preserve">
<style type="text/css">
	.st0{fill:#924DFF;}
	.st1{fill:#3333DB;}
</style>
<g>
	<path class="st0" d="M10.2,16.9l-10-6.3v7.3l0,0v19.1h6.2V21.8l3.8,2.4l10-6.4v-7.4L10.2,16.9L10.2,16.9z"/>
</g>
<g>
	<path class="st1" d="M20.8,2.4v4.3L9.6,13.8V9.5L20.8,2.4L20.8,2.4z"/>
</g>
<g>
	<path class="st0" d="M13.5,0v4.3L4.6,9.9V5.7L13.5,0L13.5,0z"/>
</g>
<g>
	<path class="st1" d="M23.5,10.5h-0.4v7.4h0.4c2.1,0,4.1,1.1,5.1,2.9c1.1,1.8,1.1,4.1,0,5.9c-1.1,1.8-3,2.9-5.1,2.9h-3.4l3-1.8v-6.8
		l-3,2l0,0l-6.6,4.4v9.6h10c7.3,0,13.2-5.9,13.2-13.2C36.7,16.4,30.8,10.5,23.5,10.5z"/>
</g>
</svg>
