<?xml version="1.0" encoding="utf-8"?>
<!-- Generator: Adobe Illustrator 23.0.0, SVG Export Plug-In . SVG Version: 6.00 Build 0)  -->
<svg version="1.1" id="图层_1" xmlns="http://www.w3.org/2000/svg" xmlns:xlink="http://www.w3.org/1999/xlink" x="0px" y="0px"
	 viewBox="0 0 153 152.8" style="enable-background:new 0 0 153 152.8;" xml:space="preserve">
<style type="text/css">
	.st0{fill-rule:evenodd;clip-rule:evenodd;fill:#3B1DFF;}
	.st1{fill-rule:evenodd;clip-rule:evenodd;fill:url(#SVGID_1_);}
	.st2{opacity:0.3;fill-rule:evenodd;clip-rule:evenodd;fill:url(#SVGID_2_);enable-background:new    ;}
	.st3{fill-rule:evenodd;clip-rule:evenodd;fill:url(#SVGID_3_);}
	.st4{fill-rule:evenodd;clip-rule:evenodd;fill:url(#SVGID_4_);}
	.st5{fill:#7682A5;}
	.st6{fill-rule:evenodd;clip-rule:evenodd;fill:#7682A5;}
	.st7{fill:url(#SVGID_5_);}
</style>
<path class="st0" d="M68.3,22.7c5,0,9.1,4.2,9.1,9.5v33.7c0,5.2-4.1,9.5-9.1,9.5c-5,0-9.1-4.2-9.1-9.5V32.1
	C59.2,26.9,63.3,22.7,68.3,22.7z"/>
<linearGradient id="SVGID_1_" gradientUnits="userSpaceOnUse" x1="91.7925" y1="22.6642" x2="119.3071" y2="32.5206" gradientTransform="matrix(1 0 0 -1 0 75.89)">
	<stop  offset="0" style="stop-color:#A099FF"/>
	<stop  offset="1" style="stop-color:#3B1DFF"/>
</linearGradient>
<path class="st1" d="M131.3,42.9c4.1,3.2,4.1,9.4,0,12.7l-22.7,18.1c-6.2,5-15.5,0.5-15.5-7.4V32.5c0-8.1,9.3-12.6,15.6-7.5
	L131.3,42.9z"/>
<linearGradient id="SVGID_2_" gradientUnits="userSpaceOnUse" x1="89.3825" y1="16.3232" x2="115.0161" y2="36.605" gradientTransform="matrix(1 0 0 -1 0 75.89)">
	<stop  offset="0" style="stop-color:#89F2FE"/>
	<stop  offset="1" style="stop-color:#158FFF"/>
</linearGradient>
<path class="st2" d="M102.3,23.2c5,0,9.1,4.2,9.1,9.4v33.6c0,5.2-4.1,9.4-9.1,9.4c-5,0-9.1-4.2-9.1-9.4V32.6
	C93.1,27.4,97.2,23.2,102.3,23.2z"/>
<linearGradient id="SVGID_3_" gradientUnits="userSpaceOnUse" x1="51.1142" y1="0.5523" x2="51.1142" y2="53.2328" gradientTransform="matrix(1 0 0 -1 0 75.89)">
	<stop  offset="0" style="stop-color:#A099FF"/>
	<stop  offset="1" style="stop-color:#3B1DFF"/>
</linearGradient>
<path class="st3" d="M74.8,25.3c3.6,3.6,3.6,9.3,0,12.9L40.4,72.7c-3.6,3.6-9.3,3.6-12.9,0c-3.6-3.6-3.6-9.3,0-12.9l34.4-34.4
	C65.4,21.8,71.2,21.8,74.8,25.3z"/>
<linearGradient id="SVGID_4_" gradientUnits="userSpaceOnUse" x1="59.2094" y1="0.5588" x2="111.8903" y2="53.2264" gradientTransform="matrix(1 0 0 -1 0 75.89)">
	<stop  offset="0" style="stop-color:#89F2FE"/>
	<stop  offset="1" style="stop-color:#158FFF"/>
</linearGradient>
<path class="st4" d="M109.2,25.3c3.6,3.6,3.6,9.3,0,12.9L74.8,72.7c-3.6,3.6-9.3,3.6-12.9,0c-3.6-3.6-3.6-9.3,0-12.9l34.4-34.4
	C99.9,21.8,105.6,21.8,109.2,25.3z"/>
<path class="st5" d="M116.1,87c0,2.5-2,4.6-4.6,4.6c-2.5,0-4.6-2-4.6-4.6c0-2.5,2-4.6,4.6-4.6C114.1,82.5,116.1,84.5,116.1,87z"/>
<path class="st6" d="M60.3,121c3.7,0,6.6-0.7,8.8-2.1c2.2-1.4,3.6-3.8,4.2-7.2l1-5.6c0.2-0.8,0.2-1.6,0.2-2.3c0-2.1-0.7-3.7-2-4.9
	c-1.7-1.5-4.3-2.2-7.8-2.2c-7.7,0-12.1,3.2-13.3,9.5l-1,5.6c-0.2,0.9-0.2,1.7-0.2,2.4c0,2.1,0.6,3.7,1.9,4.7
	C53.9,120.3,56.6,121,60.3,121z M59.8,105.8c0.3-1.5,1.7-2.6,3.2-2.6c2.1,0,3.6,1.9,3.2,4l-1,4.6c-0.3,1.5-1.7,2.6-3.2,2.6
	c-2.1,0-3.6-1.9-3.2-4L59.8,105.8z"/>
<path class="st6" d="M125.6,121c3.7,0,6.6-0.7,8.8-2.1c2.2-1.4,3.6-3.8,4.2-7.2l1-5.6c0.2-0.8,0.2-1.6,0.2-2.3c0-2.1-0.7-3.7-2-4.9
	c-1.7-1.5-4.3-2.2-7.8-2.2c-7.7,0-12.1,3.2-13.3,9.5l-1,5.6c-0.2,0.9-0.2,1.7-0.2,2.4c0,2.1,0.6,3.7,1.9,4.7
	C119.3,120.3,122,121,125.6,121z M125.1,105.8c0.3-1.5,1.7-2.6,3.2-2.6c2.1,0,3.6,1.9,3.2,4l-1,4.6c-0.3,1.5-1.7,2.6-3.2,2.6
	c-2.1,0-3.6-1.9-3.2-4L125.1,105.8z"/>
<path class="st5" d="M17.8,87.7c-1.1,0.6-1.9,1.6-2.1,2.9l-4.6,25.9c-0.4,2.2,1.1,4.3,3.3,4.7c2.2,0.4,4.3-1.1,4.7-3.3l2.8-15.7
	l3.6,6.2c0.1,0.1,0.2,0.3,0.3,0.4c0.2,0.4,0.4,0.7,0.8,1.1c1.6,1.6,4.1,1.6,5.7,0l7.2-7.2l-2.4,13.8c-0.4,2.2,1.1,4.3,3.3,4.7
	c2.2,0.4,4.3-1.1,4.7-3.3L49.5,92c0.1-0.5,0.1-1.1,0-1.6c-0.1-0.9-0.5-1.7-1.2-2.4c-1.6-1.6-4.1-1.6-5.7,0l-12.4,12.4L23.6,89
	c-1.1-1.9-3.6-2.6-5.5-1.5C18,87.6,17.9,87.6,17.8,87.7z"/>
<path class="st5" d="M83.8,95.3c-2.2-0.4-4.3,1.1-4.7,3.3L76,116c-0.4,2.2,1.1,4.3,3.3,4.7c2.2,0.4,4.3-1.1,4.7-3.3l3.1-17.5
	C87.5,97.8,86,95.7,83.8,95.3z"/>
<path class="st5" d="M105.4,98.6c0.4-2.2,2.5-3.7,4.7-3.3c2.2,0.4,3.7,2.5,3.3,4.7l-3.2,18c-0.4,2.2-2.5,3.7-4.7,3.3
	c-2.2-0.4-3.7-2.5-3.3-4.7L105.4,98.6z"/>
<linearGradient id="SVGID_5_" gradientUnits="userSpaceOnUse" x1="75.914" y1="-45.2893" x2="102.6445" y2="-18.5657" gradientTransform="matrix(1 0 0 -1 0 75.89)">
	<stop  offset="0" style="stop-color:#89F2FE"/>
	<stop  offset="1" style="stop-color:#158FFF"/>
</linearGradient>
<path class="st7" d="M95.7,95.6c1.6-1.6,4.1-1.6,5.7,0c1.6,1.6,1.6,4.1,0,5.7L82.8,120c-1.6,1.6-4.1,1.6-5.7,0
	c-1.6-1.6-1.6-4.1,0-5.7L95.7,95.6z"/>
</svg>
