<?xml version="1.0" encoding="utf-8"?>
<!-- Generator: Adobe Illustrator 23.0.0, SVG Export Plug-In . SVG Version: 6.00 Build 0)  -->
<svg version="1.1" id="图层_1" xmlns="http://www.w3.org/2000/svg" xmlns:xlink="http://www.w3.org/1999/xlink" x="0px" y="0px"
	 viewBox="0 0 31.7 31.7" style="enable-background:new 0 0 31.7 31.7;" xml:space="preserve">
<style type="text/css">
	.st0{fill:url(#SVGID_1_);}
	.st1{fill:url(#SVGID_2_);}
	.st2{fill:url(#SVGID_3_);}
	.st3{fill:url(#SVGID_4_);}
	.st4{fill:url(#SVGID_5_);}
	.st5{fill:url(#SVGID_6_);}
</style>
<title>画板 42 副本 14</title>
<g>
	
		<linearGradient id="SVGID_1_" gradientUnits="userSpaceOnUse" x1="1143.4939" y1="-537.225" x2="1153.2278" y2="-529.9577" gradientTransform="matrix(0.7071 0.7071 -0.7071 0.7071 -1181.4705 -417.3775)">
		<stop  offset="0.32" style="stop-color:#1369C8"/>
		<stop  offset="1" style="stop-color:#45A2FF"/>
	</linearGradient>
	<path class="st0" d="M5.2,8.7l6,6c2.4,2.4,2.4,6.2,0,8.6l0,0l0,0l-7.9-7.9c-1.4-1.4-1.4-3.6,0-5L5,8.7C5,8.6,5.1,8.6,5.2,8.7
		L5.2,8.7z"/>
	
		<linearGradient id="SVGID_2_" gradientUnits="userSpaceOnUse" x1="7.0418" y1="420.4074" x2="4.4299" y2="424.5473" gradientTransform="matrix(1 0 0 1 0 -408.0202)">
		<stop  offset="0" style="stop-color:#5FABF5"/>
		<stop  offset="0.75" style="stop-color:#77CBFF"/>
		<stop  offset="0.99" style="stop-color:#5EBDFF"/>
	</linearGradient>
	<path class="st1" d="M5.7,8.4L5.7,8.4l-2.4,2.4c-0.1,0.1-0.1,0.1-0.2,0.2c-1.2,1.2-1.2,3.1,0,4.3l4.3,4.3c-1.2-1.2-1.2-3.2-0.2-4.3
		l2.2-2.4l0,0"/>
	
		<linearGradient id="SVGID_3_" gradientUnits="userSpaceOnUse" x1="12.7958" y1="404.1019" x2="6.2713" y2="424.9707" gradientTransform="matrix(1 0 0 1 0 -408.0202)">
		<stop  offset="4.000000e-02" style="stop-color:#226DBD"/>
		<stop  offset="0.9" style="stop-color:#56ABFB"/>
	</linearGradient>
	<path class="st2" d="M14,0.3L13.7,0h-0.1l0,0L5.4,8.2l0,0L3,10.6c0,0,0,0.1-0.1,0.1c-1.2,1.2-1.2,3.1,0,4.3l4.3,4.3
		C6,18.1,6,16.2,7.2,15l0,0l2.2-2.2l0,0l3.7-3.7l0,0L14,8.3C16.2,6.1,16.2,2.5,14,0.3z"/>
	
		<linearGradient id="SVGID_4_" gradientUnits="userSpaceOnUse" x1="-8662.5029" y1="2429.1462" x2="-8652.7695" y2="2436.4136" gradientTransform="matrix(-0.7071 -0.7071 0.7071 -0.7071 -7818.9766 -4387.2627)">
		<stop  offset="0.32" style="stop-color:#1369C8"/>
		<stop  offset="1" style="stop-color:#45A2FF"/>
	</linearGradient>
	<path class="st3" d="M25.7,23l-6-6c-2.4-2.4-2.4-6.2,0-8.6l0,0l0,0l0,0l7.9,7.9c1.4,1.4,1.4,3.6,0,5L26,23
		C25.9,23.1,25.8,23.1,25.7,23L25.7,23z"/>
	
		<linearGradient id="SVGID_5_" gradientUnits="userSpaceOnUse" x1="-9024.292" y1="-4415.9404" x2="-9026.9043" y2="-4411.7979" gradientTransform="matrix(-1 0 0 -1 -9000.4375 -4396.6196)">
		<stop  offset="0" style="stop-color:#5FABF5"/>
		<stop  offset="0.75" style="stop-color:#77CBFF"/>
		<stop  offset="0.99" style="stop-color:#5EBDFF"/>
	</linearGradient>
	<path class="st4" d="M25.2,23.3L25.2,23.3l2.4-2.4c0.1-0.1,0.1-0.1,0.2-0.2c1.2-1.2,1.2-3.1,0-4.3l0,0l-4.3-4.3
		c1.2,1.2,1.2,3.2,0.2,4.3l-2.2,2.4l0,0"/>
	
		<linearGradient id="SVGID_6_" gradientUnits="userSpaceOnUse" x1="-9018.584" y1="-4432.2593" x2="-9025.1113" y2="-4411.3906" gradientTransform="matrix(-1 0 0 -1 -9000.4375 -4396.6196)">
		<stop  offset="4.000000e-02" style="stop-color:#226DBD"/>
		<stop  offset="0.9" style="stop-color:#56ABFB"/>
	</linearGradient>
	<path class="st5" d="M16.9,31.4l0.3,0.3h0.1l8.2-8.2l0,0l2.4-2.4C28,21,28,21,28.1,20.9c1.2-1.2,1.2-3.1,0-4.3l-4.3-4.3
		c1.2,1.2,1.2,3.1,0,4.3l-2.2,2.2l0,0l-3.7,3.7l0,0L17,23.4C14.7,25.6,14.7,29.2,16.9,31.4L16.9,31.4z"/>
</g>
</svg>
