<?xml version="1.0" encoding="utf-8"?>
<!-- Generator: Adobe Illustrator 24.0.1, SVG Export Plug-In . SVG Version: 6.00 Build 0)  -->
<svg version="1.1" id="图层_1" xmlns="http://www.w3.org/2000/svg" xmlns:xlink="http://www.w3.org/1999/xlink" x="0px" y="0px"
	 viewBox="0 0 150 150" style="enable-background:new 0 0 150 150;" xml:space="preserve">
<style type="text/css">
	.st0{fill:#EC1A5C;}
</style>
<path class="st0" d="M88.34,69.63c-0.68-0.17-1.36-0.34-2.04-0.51c-0.17,0-0.17,0-0.34,0c-0.68-0.17-1.36-0.34-2.04-0.51
	c-4.59,2.89-11.74,7.15-11.74,7.15c-3.23,1.87-4.93,5.1-4.93,8.85c0,0-0.34,9.02-0.34,14.12c3.23-2.72,6.3-5.61,9.7-8.17
	c1.87-1.36,3.74-2.55,5.79-3.74c2.04-1.02,4.25-1.87,6.47-2.21c2.21-0.34,4.59-0.34,6.81,0.34c2.21,0.68,4.25,1.7,5.96,3.4
	c0.51,0.51,0.85,0.85,1.19,1.36c2.38,2.72,3.74,6.64,3.06,11.06c-0.17-2.21-1.36-4.42-3.74-5.27c-3.23-1.19-8.17,0-13.44,6.13
	c-3.57,3.91-7.15,10.21-12.08,19.4c-0.85,1.7-1.87,3.4-2.72,5.1l33.35-19.23c4.08-2.38,4.25-6.98,4.25-7.83v-9.02V78.99
	c-4.42-3.4-12.25-5.96-18.21-7.66C91.57,70.48,89.7,70.14,88.34,69.63L88.34,69.63z"/>
<path class="st0" d="M105.18,93.96c-0.68-2.04-2.04-4.08-3.57-5.61c-1.7-1.53-3.74-2.55-5.79-3.06c-2.21-0.51-4.42-0.51-6.64,0
	c-2.21,0.34-4.25,1.19-6.13,2.38c-1.87,1.02-3.74,2.38-5.44,3.74c-3.57,2.72-6.81,5.96-10.04,9.02s-6.47,6.3-9.87,9.36
	c-4.42,4.59-11.4,8.68-15.14,9.53c-4.25,0.85-8,0.17-8.34-3.23c-0.17,0-0.34-0.17-0.51-0.17l-0.68-0.34l-1.53-0.85
	c-2.04-1.02-3.91-2.04-5.96-3.23c-1.53,6.13,0.17,11.06,2.89,14.12c1.19,1.36,2.89,2.38,4.76,3.06c3.57,1.36,7.66,1.19,11.57,0.17
	c1.87-0.51,3.74-1.36,5.44-2.38c1.7-1.02,3.4-2.21,5.1-3.57c3.23-2.55,6.3-5.44,9.19-8.34c2.89-2.89,5.61-6.13,8.51-9.19
	c2.72-3.06,5.44-6.3,8.51-9.19c1.53-1.36,3.06-2.89,4.93-3.91c0.85-0.51,1.87-1.02,2.72-1.53c1.02-0.34,2.04-0.68,3.06-0.85
	c2.04-0.34,4.25-0.34,6.3,0.17c1.02,0.34,2.04,0.68,2.89,1.36c0.85,0.51,1.7,1.36,2.21,2.21c-0.68-0.85-1.36-1.53-2.38-2.04
	c-0.85-0.51-1.87-1.02-2.89-1.19c-2.04-0.51-4.08-0.34-6.13,0c-1.02,0.17-2.04,0.51-2.89,1.02s-1.87,1.02-2.72,1.53
	c-1.7,1.19-3.23,2.55-4.59,4.08c-2.89,2.89-5.44,6.13-8.17,9.36c-2.72,3.23-5.44,6.3-8.17,9.53c-2.89,3.06-5.79,6.13-9.02,8.68
	c-1.7,1.36-3.4,2.55-5.1,3.74c-1.87,1.19-3.74,2.21-5.79,2.89c-4.08,1.36-8.68,1.7-13.1,0.17c-0.34-0.17-0.51-0.17-0.85-0.34
	c5.96,5.27,15.31,6.47,23.65,1.19c1.87-1.19,3.74-2.72,5.44-4.59c1.87-1.7,3.57-3.91,5.44-6.13c3.06-3.57,6.13-7.83,9.36-12.25
	c5.44-7.15,9.36-11.91,13.27-14.46c5.79-3.91,10.72-3.23,13.95-0.85c2.21,1.7,3.57,4.42,3.57,6.81
	C106.2,98.38,106.03,96.17,105.18,93.96L105.18,93.96z"/>
<path class="st0" d="M27.08,108.25c2.04,1.19,4.08,2.21,6.13,3.4l2.89,1.53c0.85,0.51,1.7,0.85,2.72,1.02
	c1.87,0.34,3.91,0.34,5.96,0c2.04-0.51,4.08-1.19,5.96-2.21c1.02-0.51,1.87-1.02,2.72-1.7l2.55-2.04c2.89-2.55,5.79-5.1,8.68-7.83
	c0-4.25-0.51-15.82-0.51-15.82c0-3.74-1.7-6.98-4.93-8.85c0,0-11.4-7.15-14.8-9.19c-3.4-2.04-6.81-4.08-10.21-6.3
	c-2.55-1.7-5.27-3.23-7.83-4.93c-0.68-0.51-1.53-1.02-2.21-1.53c3.57,1.87,7.15,3.74,10.55,5.61c3.57,1.87,6.98,3.74,10.55,5.79
	c3.57,1.87,15.14,8.17,15.14,8.17c3.23,1.87,7.15,1.87,10.38,0c0,0,5.44-2.89,10.04-5.44c-2.55-0.68-5.1-1.19-7.83-1.87
	c-15.99-3.74-34.37-8.17-43.22-16.16c-0.51-0.51-1.02-1.02-1.53-1.53l-0.17-0.17c-0.34-0.34-0.68-0.68-1.02-1.02l-2.55,1.36
	c0,0-0.68,0.34-1.7,1.02c-0.85,0.51-1.7,1.19-2.38,2.38v0.17c-0.51,0.85-0.85,2.04-0.85,3.57v42.71c0,5.44,2.38,7.15,4.25,8.34
	l2.04,1.19L27.08,108.25z"/>
<path class="st0" d="M46.31,36.79c1.53,0.34,3.23,0.51,4.93,0.68c0.85,0,1.7,0.17,2.55,0.17l2.55,0.17c6.81,0.17,13.61,0,20.42-0.17
	c3.74,0,7.32-0.17,11.06-0.17L70.3,27.26c-1.7-1.02-4.93-1.87-8.34,0l-3.4,1.87L45.8,36.62C45.97,36.62,46.14,36.79,46.31,36.79z"/>
<path class="st0" d="M51.42,31.35c-1.02-0.85-2.04-1.53-3.23-2.21c-0.68-0.34-1.53-0.68-2.21-0.85s-1.53-0.34-2.38-0.34
	c-1.53,0-3.06,0.34-4.08,1.19c-0.51,0.34-0.85,0.85-1.02,1.53c-0.17,0.51,0,1.19,0.17,1.7c0.51,1.19,1.7,2.04,3.06,2.72
	c0.17-0.17,0.51-0.17,0.68-0.34c0-1.87,2.72-3.57,6.64-2.55C49.71,32.03,50.56,31.69,51.42,31.35z"/>
<path class="st0" d="M130.19,57.38c-1.36-2.89-3.23-5.44-5.61-7.66c-2.38-2.04-5.1-3.74-8.17-4.93c-6.13-2.38-12.76-3.4-19.4-3.74
	c-6.64-0.51-13.44-0.51-20.25-0.34c-6.81,0-13.61,0.17-20.42-0.17l-2.55-0.17c-0.85,0-1.7-0.17-2.55-0.17
	c-1.7-0.17-3.4-0.51-5.27-0.85c-1.7-0.34-3.4-1.02-5.1-1.87c-0.85-0.51-1.53-1.02-2.38-1.53c-0.68-0.68-1.36-1.36-1.87-2.38
	c-0.51-1.02-0.68-2.21-0.34-3.23c0.34-1.02,1.02-2.04,1.87-2.55c1.7-1.19,3.74-1.53,5.61-1.36c0.85,0.17,1.87,0.34,2.72,0.68
	s1.7,0.85,2.38,1.36c1.19,0.85,2.21,1.87,2.89,3.06c2.21-0.85,4.42-1.7,6.3-2.38c-7.49-12.42-23.65-13.1-31.31-5.27
	c-5.61,5.61-6.64,16.16,2.04,23.82c0.51,0.51,1.02,1.02,1.7,1.36C42.4,58.4,70.3,59.08,88.68,62.14c1.36,0.17,3.06,0.51,5.1,0.85
	c8.85,1.53,21.78,4.25,21.78,10.72v14.97c3.06-1.53,5.96-3.4,8.34-5.44c2.38-2.21,4.59-4.59,5.96-7.49
	c1.53-2.72,2.38-5.96,2.38-9.19C132.24,63.5,131.56,60.27,130.19,57.38z M120.33,77.12c-0.68,2.55-2.04,4.76-3.74,6.64
	c0.85-2.38,1.53-4.76,1.87-6.98c0.34-2.38,0.34-4.59,0-6.98c-0.51-2.21-1.53-4.25-2.89-6.13c-1.53-1.7-3.4-3.23-5.44-4.25
	c-2.04-1.02-4.42-1.7-6.81-2.21c-2.38-0.51-4.76-0.85-7.15-1.19c-4.76-0.51-9.87-0.51-14.63-0.68c-9.87-0.34-19.74-0.51-29.61-1.87
	c-4.93-0.68-9.87-1.7-14.46-3.4c-2.38-0.85-4.59-1.87-6.64-3.23s-3.91-3.06-5.27-5.1c1.53,2.04,3.4,3.57,5.44,4.76
	c2.04,1.19,4.42,2.21,6.81,2.89c4.59,1.53,9.53,2.21,14.46,2.72c4.93,0.51,9.87,0.68,14.8,0.85s9.87,0.17,14.8,0.34
	c2.55,0,4.93,0,7.49,0.17c2.55,0,4.93,0.17,7.49,0.34c2.55,0.17,4.93,0.51,7.49,1.02c2.55,0.51,4.93,1.19,7.32,2.38
	c2.38,1.19,4.42,2.72,6.13,4.76s2.89,4.42,3.4,7.15C121.18,71.84,121.01,74.56,120.33,77.12z"/>
</svg>
