<?xml version="1.0" encoding="utf-8"?>
<!-- Generator: Adobe Illustrator 23.0.0, SVG Export Plug-In . SVG Version: 6.00 Build 0)  -->
<svg version="1.1" id="图层_1" xmlns="http://www.w3.org/2000/svg" xmlns:xlink="http://www.w3.org/1999/xlink" x="0px" y="0px"
	 viewBox="0 0 256 256" style="enable-background:new 0 0 256 256;" xml:space="preserve">
<circle cx="88.6" cy="126" r="7.8"/>
<rect x="82.7" y="139" width="11.9" height="58.5"/>
<polygon points="128.4,157.3 128.4,157.5 113.6,139 98.3,139 122,168.2 98.3,197.5 113.6,197.5 129.6,177.6 145.4,197.1 
	145.7,197.5 161.1,197.5 140.2,172 128.4,157.3 "/>
<path d="M219.4,168.4c0-16.7-13.5-30.3-30.2-30.4h-0.2c-16.7,0-30.3,13.6-30.3,30.3c0,16.7,13.6,30.3,30.3,30.3h0.1
	c12,0,22.9-7.1,27.7-18.1l0.6-1.6l-10.5-4.6l-0.7,1.6c-4.2,9.5-15.3,13.7-24.7,9.5c-6.2-2.8-10.5-8.7-11.1-15.5h49V168.4z
	 M173.2,158.4c3.4-5.5,9.4-8.9,15.9-8.9c6.5,0,12.6,3.4,15.9,8.9H173.2z"/>
<rect x="224.4" y="122.3" width="11.9" height="75.5"/>
<path d="M77.4,47.2c-16.8,0-30.5,13.7-30.5,30.5c0,16.8,13.6,30.5,30.5,30.5h0.1c6.7,0,13.2-2.2,18.4-6.3v3.7c0,0.8,0.7,1.4,1.5,1.4
	c0,0,0,0,0,0h8.8c0.8,0,1.4-0.6,1.4-1.4l0.2-28.1C107.7,60.7,94.1,47.2,77.4,47.2z M77.4,96.3c-10.2,0-18.5-8.3-18.5-18.5
	c0-10.2,8.3-18.5,18.5-18.5c0,0,0,0,0,0h0.2c4.8,0,9.5,1.9,12.9,5.3c3.5,3.5,5.5,8.2,5.5,13.2C95.9,88,87.6,96.3,77.4,96.3z"/>
<path d="M48,49.3l-1.2-0.4c-6.3-2-12.8-0.7-19.2,3.8v-4.4H15.8v58.5h11.9V75c0-6.5,2-11.3,5.5-13.8c3.3-2.3,7.4-2.6,12.4-0.9L48,61
	L48,49.3z"/>
<path d="M178.3,48.5l-14.2,35.4c-0.2,0.4-0.4,0.7-0.7,1c-0.2-0.3-0.4-0.7-0.5-1l-12-31.7l-0.4-1.2h-6.7l-12.5,32.9
	c-0.1,0.4-0.3,0.7-0.5,1c-0.3-0.3-0.5-0.6-0.6-1l-13.7-34.2l-0.4-1.2h-13l22,54.4c0,0.2,0.1,0.4,0.2,0.6c0.9,2.2,3.1,3.6,5.4,3.7
	c4.1,0,5.5-2.4,6.4-4.7l10.1-27.9l10.4,28.8c0.8,1.6,2.2,3.7,6.1,3.7c2.3,0,4.4-1.4,5.3-3.5l22.6-55.2L178.3,48.5z"/>
<rect x="140.5" y="138.9" width="15.5" height="15.5"/>
<path d="M47.7,137.8h-0.4C30.6,138,17,151.4,16.8,168.1v56.7c0,0.8,0.7,1.4,1.5,1.4c0,0,0,0,0,0h8.8c0.8,0,1.4-0.7,1.4-1.5
	c0,0,0,0,0,0v-32.3c13.4,10.3,32.5,7.8,42.8-5.6c4.1-5.3,6.3-11.8,6.3-18.6C77.6,151.6,64.3,138,47.7,137.8z M47.4,186.8
	c-10.2,0-18.5-8.3-18.5-18.5c0-10.2,8.3-18.5,18.5-18.5h0.1c4.8,0,9.5,1.9,12.9,5.3c3.5,3.5,5.5,8.2,5.5,13.2h0
	C65.9,178.5,57.6,186.8,47.4,186.8z"/>
</svg>
