<?xml version="1.0" encoding="utf-8"?>
<!-- Generator: Adobe Illustrator 23.0.0, SVG Export Plug-In . SVG Version: 6.00 Build 0)  -->
<svg version="1.1" id="图层_1" xmlns="http://www.w3.org/2000/svg" xmlns:xlink="http://www.w3.org/1999/xlink" x="0px" y="0px"
	 viewBox="0 0 27 27" style="enable-background:new 0 0 27 27;" xml:space="preserve">
<style type="text/css">
	.st0{fill:#00D8FF;}
	.st1{fill:none;stroke:#00D8FF;}
</style>
<path class="st0" d="M16.2,4.4c0.1-0.1,0.3-0.2,0.5-0.2c0.2-0.1,0.3-0.1,0.5-0.1c0.2,0,0.3,0.1,0.5,0.1c0.2,0.1,0.3,0.2,0.4,0.3
	c1,1.3,3.1,4.2,3.9,5.7c1.9,3.2,3,6.5,3.3,9.3c0.2,1.4,0.1,2.7-0.2,3.8c-0.3,1.1-1,2.2-2,2.8c-1.3,0.7-2.8,0.6-4.1,0.1
	c-1.4-0.5-2.8-1-4.1-2.3c-0.3-0.2-0.4-0.6-0.4-0.9c0-0.4,0.1-0.7,0.3-1c0.2-0.3,0.6-0.4,0.9-0.4c0.4,0,0.7,0.1,1,0.3
	c1.2,1.1,2.3,1.4,3.2,1.7c0.9,0.3,1.5,0.3,1.9,0.1c0.3-0.2,0.6-0.5,0.8-1.2c0.2-0.7,0.3-1.6,0.1-2.8c-0.3-2.3-1.2-5.3-3-8.2
	C19,10.3,17,7.4,16.1,6.3c-0.1-0.1-0.2-0.3-0.2-0.5c-0.1-0.2-0.1-0.3-0.1-0.5c0-0.2,0.1-0.3,0.1-0.5C16,4.6,16.1,4.5,16.2,4.4"/>
<path class="st0" d="M24,19c0,0.2,0,0.4,0,0.5c0,0.2-0.1,0.3-0.2,0.5c-0.1,0.1-0.2,0.3-0.4,0.4c-0.1,0.1-0.3,0.2-0.5,0.2
	c-1.6,0.3-5.5,0.5-7.1,0.5c-3.7,0-7.1-0.7-9.7-1.8c-1.3-0.6-2.4-1.3-3.2-2.1c-0.8-0.8-1.4-1.9-1.4-3.1c0-1.5,0.8-2.7,1.9-3.6
	c1.1-0.9,2.6-1.7,4.3-2.2c0.3-0.1,0.7-0.1,1,0.1C9,8.4,9.1,8.5,9.2,8.6c0.1,0.1,0.2,0.3,0.3,0.5s0.1,0.3,0.1,0.5
	c0,0.2-0.1,0.3-0.1,0.5c-0.1,0.2-0.2,0.3-0.3,0.4c-0.1,0.1-0.3,0.2-0.5,0.3c-1.5,0.5-2.7,1.1-3.4,1.7c-0.8,0.6-1,1.2-1,1.6
	c0,0.3,0.2,0.8,0.6,1.3c0.5,0.5,1.3,1,2.3,1.5c2.1,0.9,5.2,1.5,8.6,1.5c1.6,0,5.3-0.2,6.7-0.5c0.2,0,0.4,0,0.5,0
	c0.2,0,0.3,0.1,0.5,0.2c0.1,0.1,0.3,0.2,0.4,0.4C23.9,18.7,24,18.9,24,19z"/>
<path class="st1" d="M24,19c0,0.2,0,0.4,0,0.5c0,0.2-0.1,0.3-0.2,0.5c-0.1,0.1-0.2,0.3-0.4,0.4c-0.1,0.1-0.3,0.2-0.5,0.2
	c-1.6,0.3-5.5,0.5-7.1,0.5c-3.7,0-7.1-0.7-9.7-1.8c-1.3-0.6-2.4-1.3-3.2-2.1c-0.8-0.8-1.4-1.9-1.4-3.1c0-1.5,0.8-2.7,1.9-3.6
	c1.1-0.9,2.6-1.7,4.3-2.2c0.3-0.1,0.7-0.1,1,0.1C9,8.4,9.1,8.5,9.2,8.6c0.1,0.1,0.2,0.3,0.3,0.5s0.1,0.3,0.1,0.5
	c0,0.2-0.1,0.3-0.1,0.5c-0.1,0.2-0.2,0.3-0.3,0.4c-0.1,0.1-0.3,0.2-0.5,0.3c-1.5,0.5-2.7,1.1-3.4,1.7c-0.8,0.6-1,1.2-1,1.6
	c0,0.3,0.2,0.8,0.6,1.3c0.5,0.5,1.3,1,2.3,1.5c2.1,0.9,5.2,1.5,8.6,1.5c1.6,0,5.3-0.2,6.7-0.5c0.2,0,0.4,0,0.5,0
	c0.2,0,0.3,0.1,0.5,0.2c0.1,0.1,0.3,0.2,0.4,0.4C23.9,18.7,24,18.9,24,19z"/>
<path class="st0" d="M7.7,18.5c-0.3-0.1-0.6-0.4-0.7-0.7c-0.1-0.3-0.2-0.7,0-1c0.5-1.5,2.2-5.1,3.1-6.6c1.9-3.2,4.1-5.8,6.4-7.5
	c1.1-0.8,2.3-1.4,3.4-1.7c1.1-0.3,2.3-0.3,3.4,0.4c1.3,0.7,1.9,2.1,2.2,3.5c0.3,1.4,0.1,3.1-0.2,4.9c0,0.2-0.1,0.3-0.2,0.5
	c-0.1,0.2-0.2,0.3-0.4,0.4c-0.1,0.1-0.3,0.2-0.5,0.2c-0.2,0-0.4,0-0.5,0c-0.2,0-0.3-0.1-0.5-0.2s-0.3-0.2-0.4-0.4
	c-0.1-0.2-0.2-0.3-0.2-0.5c0-0.2,0-0.4,0-0.5c0.3-1.6,0.4-2.9,0.2-3.8c-0.2-1-0.5-1.4-0.9-1.6c-0.3-0.2-0.7-0.3-1.4-0.1
	c-0.7,0.2-1.5,0.6-2.5,1.3C16,6.3,14,8.6,12.3,11.6c-0.7,1.3-2.4,4.8-2.9,6.2C9.3,18,9,18.3,8.7,18.5C8.4,18.6,8,18.6,7.7,18.5z"/>
<path class="st1" d="M7.7,18.5c-0.3-0.1-0.6-0.4-0.7-0.7c-0.1-0.3-0.2-0.7,0-1c0.5-1.5,2.2-5.1,3.1-6.6c1.9-3.2,4.1-5.8,6.4-7.5
	c1.1-0.8,2.3-1.4,3.4-1.7c1.1-0.3,2.3-0.3,3.4,0.4c1.3,0.7,1.9,2.1,2.2,3.5c0.3,1.4,0.1,3.1-0.2,4.9c0,0.2-0.1,0.3-0.2,0.5
	c-0.1,0.2-0.2,0.3-0.4,0.4c-0.1,0.1-0.3,0.2-0.5,0.2c-0.2,0-0.4,0-0.5,0c-0.2,0-0.3-0.1-0.5-0.2s-0.3-0.2-0.4-0.4
	c-0.1-0.2-0.2-0.3-0.2-0.5c0-0.2,0-0.4,0-0.5c0.3-1.6,0.4-2.9,0.2-3.8c-0.2-1-0.5-1.4-0.9-1.6c-0.3-0.2-0.7-0.3-1.4-0.1
	c-0.7,0.2-1.5,0.6-2.5,1.3C16,6.3,14,8.6,12.3,11.6c-0.7,1.3-2.4,4.8-2.9,6.2C9.3,18,9,18.3,8.7,18.5C8.4,18.6,8,18.6,7.7,18.5z"/>
<path class="st0" d="M7.9,17.7l2.3-1.8c-0.5,1.4-0.1,1.9,1.8,2.3L9.7,20L7.9,17.7z"/>
<path class="st0" d="M6.3,18.3l-1.1-2.7c1.2,0.9,1.8,0.7,2.7-1.1L9,17.2L6.3,18.3z"/>
<path class="st0" d="M17.2,3.2l2.9,0.5c-1.4,0.6-1.5,1.2-0.5,2.9l-2.9-0.5L17.2,3.2z"/>
<path class="st0" d="M24.4,20.4l-1.8,2.3c0.3-1.4-0.3-1.9-2.3-1.8l1.8-2.3L24.4,20.4z"/>
<path class="st0" d="M17.5,5.2l0,2.9c-0.8-1.2-2.1-1.2-2.9,0.1l0-2.9L17.5,5.2z"/>
<path class="st0" d="M24,17.8l-2.2-1.9c0.4,1.4,0.1,2-1.9,2.3l2.2,1.8L24,17.8z"/>
<circle class="st0" cx="16" cy="13.7" r="2.1"/>
</svg>
