<?xml version="1.0" encoding="utf-8"?>
<!-- Generator: Adobe Illustrator 23.0.0, SVG Export Plug-In . SVG Version: 6.00 Build 0)  -->
<svg version="1.1" id="图层_1" xmlns="http://www.w3.org/2000/svg" xmlns:xlink="http://www.w3.org/1999/xlink" x="0px" y="0px"
	 viewBox="0 0 50 50" style="enable-background:new 0 0 50 50;" xml:space="preserve">
<style type="text/css">
	.st0{fill:#1B3882;fill-opacity:0.5;}
	.st1{fill:#1B3882;}
</style>
<path class="st0" d="M11.9,40.8c0,0,4.8-0.5,5.1-0.6c0.3-0.1,5.2,0.2,5.2,0.2l3.2,0.8l2.9,1.1l0.8,0.3l4.3-1.6l5.2-0.8l3.5,0.1
	l2.7,0.4l1.2,0.4l-0.1,4.8L43.7,45l-4.6-0.4l-3.2,0.3l-2.7,0.6l-2.5,0.8l-1.8,0.7l-3.7-1.4l-4.5-0.9h-5.2l-3.5,0.6V40.8z"/>
<path class="st1" d="M28.9,47.9c-8.1-4.4-16.6-1.8-16.7-1.7l-1,0.3v-6.1l0.5-0.2c0.4-0.1,9.2-2.9,17.9,1.9l-0.7,1.3
	c-6.9-3.8-14.2-2.4-16.2-1.9v3c2.6-0.6,9.8-1.8,16.9,2.1L28.9,47.9L28.9,47.9z"/>
<path class="st1" d="M28.8,47.9L28,46.6c7.1-3.9,14.3-2.7,16.9-2.1v-3c-2-0.5-9.3-1.9-16.2,1.9L28,42.1c8.6-4.8,17.5-2,17.9-1.9
	l0.5,0.2v6.1l-1-0.3C45.4,46.1,36.8,43.5,28.8,47.9z"/>
<path class="st0" d="M38,34c0-0.5-0.2-1-0.6-1.4c-0.4-0.4-0.8-0.6-1.4-0.5c-0.5,0-1,0.3-1.4,0.6c-0.4,0.5-0.6,0.9-0.6,1.5
	c0,0.5,0.2,1,0.5,1.4c0.4,0.4,0.8,0.6,1.4,0.5c0.5,0,1-0.2,1.4-0.6C37.8,35,38,34.5,38,34L38,34z"/>
<path class="st0" d="M23.1,35.4c0.4-0.4,0.6-0.9,0.6-1.4c0-0.5-0.2-1-0.6-1.5c-0.4-0.3-0.9-0.5-1.4-0.5c-0.6,0.1-1,0.3-1.4,0.6
	c-0.4,0.4-0.6,0.9-0.6,1.5c0,0.5,0.2,1,0.6,1.4c0.4,0.4,0.8,0.6,1.4,0.5C22.3,36,22.7,35.8,23.1,35.4L23.1,35.4z"/>
<path class="st1" d="M28.7,40.8c-1.5,0-2.9-0.1-4-0.4c-3-0.8-5.4-2.2-7.3-4.2c-2-2.2-2.1-4.3-2.2-6.5c0-0.3,0-0.6-0.1-0.9
	c-0.2-2.5-1.3-6.3-1.3-6.3l-0.1-0.3l0.2-0.3c1.7-2.3,3.8-4,6.4-5.1c2.4-1,5.3-1.5,8.8-1.6c5.8-0.3,12.2,2.1,15.1,5.8l0.2,0.2
	L43,27.4c0,0.3-0.1,2.1-0.6,5.6c-0.6,4.2-5.7,6.5-8.3,7.2C32.7,40.5,30.7,40.8,28.7,40.8L28.7,40.8z M15,22.4c0.3,1,1.1,4.1,1.3,6.3
	c0,0.3,0,0.6,0.1,0.9c0.1,2.2,0.2,3.9,1.9,5.7c1.7,1.9,3.9,3.2,6.7,3.9c2.3,0.6,6.5,0.4,8.7-0.2c1.9-0.5,6.9-2.5,7.4-6.2
	c0.5-3.8,0.6-5.5,0.6-5.6v-0.1l1.2-5.7c-1.9-3.7-3.1-4.4-5.5-5.4c-2.6-1-5.7,0.2-8.3,0.3h0C22.4,16.6,17.5,14.5,15,22.4L15,22.4z"/>
<path class="st1" d="M41.9,22c0.5,1.2,0.7,1.8,1.1,3c0,0,1.2-1.9,1.6-3.3c0.4-1.4,0.1-3.1-0.1-4.7c-0.7-2.7-1.3-2.9-3.5-4.6
	c-1-0.7-2.1-1.3-3.3-1.8c-2.7-1-5.4-1.6-8.2-1.7c-2.7,0-5.5,0.4-8.2,1.2c-1.3,0.4-2.4,1-3.4,1.6c-2.3,1.5-3.9,3.6-4.8,6.3
	c-0.2,1-0.6,2-0.5,2.9c0.4,4.3,3.2,6.2,3,5.1c-0.2-1.3-0.1-2.1,0.3-3.4c0.7-2.4,2.2-4.2,4.6-5.3h0c0.5-0.1,2.9-1.5,6.1,0.1
	c0.8,0.4,2.3,1.3,3.1,1.3c0.7,0,1.8-0.7,2.6-1.2c1.5-0.9,2.8-1.2,4.7-0.6C39.3,17.7,41,19.6,41.9,22L41.9,22z"/>
<path class="st0" d="M2.7,19.8l2,0.6L7,20.3l1.6-1.1l1.8-1.6l1.3-1.8l1.6-1.7l1.6-1l2.2-0.5l-1.5,2.6l-1.2,1.2l-2.6,3.6l-1.2,1.8
	l-1.4,0.9l-1.9,1.3c0,0-1.7,0.4-1.9,0.4c-0.2,0.1-1.6,0.3-1.6,0.3l-1.2-0.1l-0.9-0.3l0.9-1.8l0.1-1.3L2.7,19.8L2.7,19.8z"/>
<path class="st0" d="M7.8,9.7L7.6,11L7.2,12l-0.6,0.9l-1.5,0.9l1.8,0.9l1.9,0.8l2,0.4l0.9,0.1l2.1-1.5l2.2-2l-0.8-0.2l-2.8-0.3
	l-2.1-0.8L9,10.3L7.8,9.7z"/>
<path class="st1" d="M3.3,25.3c-0.6,0-1.3,0-2-0.1L0.1,25l0.6-0.4l0.3-0.4c0-0.1,0.2-0.3,0.4-0.8v0c0.4-0.8,0.5-2.1,0.4-3.9
	l-0.1-1.2l0.9,0.8c1,0.8,2.2,1,3.7,0.6c1.4-0.4,2.9-1.7,4.4-3.8c1.4-2.1,3.5-3.5,6.2-4.2l0.2-0.1l1.7,1.3l-1.5-0.1
	c-0.1,0.1-0.3,0.3-0.4,0.4l0,0l0,0c-0.9,1.5-2.1,3-3.3,4.7l0,0c-0.2,0.3-0.4,0.7-0.6,1v0l-0.1,0.1c-1.3,2.1-2.7,3.6-4.1,4.6
	C7.4,24.8,5.6,25.3,3.3,25.3L3.3,25.3z M2.3,24.2c2.6,0.2,4.5-0.2,5.9-1.2l0,0c1.3-0.9,2.6-2.3,3.8-4.2c0-0.1,0.1-0.1,0.1-0.2
	c0.2-0.3,0.4-0.7,0.6-1v0c0.8-1.6,1.8-3,2.9-4.2c-1.6,0.7-2.9,1.8-3.8,3.2l0,0c-1.7,2.4-3.4,3.7-5,4.2C5.3,21.1,4,21,2.9,20.5
	c0,1.5-0.1,2.6-0.5,3.4C2.4,24,2.3,24.1,2.3,24.2L2.3,24.2z"/>
<path class="st1" d="M3.5,25.3c-0.6,0-1.3,0-2-0.1l0.1-1C4.5,24.4,6.8,24,8.3,23l0,0c1.3-0.9,2.6-2.3,3.8-4.2c0-0.1,0.1-0.2,0.2-0.2
	l0.7,0.8c0.1-0.1,0.1-0.2,0.2-0.3l0,0.1L13,19.3c-1.3,2.1-2.7,3.6-4.1,4.6C7.6,24.8,5.7,25.3,3.5,25.3z"/>
<path class="st1" d="M12.4,15.3c-0.2,0-0.4,0-0.7,0c-1.8,0.1-3.6-0.4-5.6-1.5c1.7-1.1,2.2-2.3,2.1-3.5c0.4,0.3,0.8,0.6,1.3,0.8
	c2.9,1.6,5.9,1.9,11.1,0.4l-0.4-1c-4.9,1.4-7.6,1.1-10.2-0.4c-0.7-0.4-1.4-1-2.1-1.6L7.9,8.6L6.8,7.4L7,8.9c0,0.1,0.6,3-2.2,4.4
	L4,13.8l0.8,0.5c2.3,1.4,4.5,2.1,6.6,2.1L12.4,15.3L12.4,15.3z"/>
<path class="st1" d="M25.6,31.3c-0.3,0-0.6-0.2-0.8-0.5c-0.7-1.6-1.2-2.3-2.1-3.3c-0.8-1-2.6-2.7-2.9-3c-0.4-0.3-0.5-0.8-0.3-1.1
	c0.1-0.2,0.5-0.5,1.2,0c1.5,1,4.7,3.9,5.6,6.2c0.3,0.8,0,1.4-0.4,1.6C25.8,31.3,25.7,31.3,25.6,31.3L25.6,31.3z"/>
<path class="st1" d="M31.9,31.3c-0.1,0-0.2,0-0.3-0.1c-0.4-0.2-0.7-0.8-0.4-1.6c0.9-2.3,4.2-5.2,5.7-6.1c0.7-0.5,1.1-0.2,1.2,0
	c0.2,0.3,0.1,0.8-0.3,1.1c-0.3,0.2-2.1,1.9-2.9,2.9c-0.8,1-1.4,1.6-2.1,3.2C32.5,31.1,32.2,31.3,31.9,31.3L31.9,31.3z"/>
<path class="st0" d="M35.1,5.9c0-1.2-0.6-2.3-1.8-3.1c-1.2-0.9-2.7-1.3-4.4-1.3c-1.7,0-3.1,0.4-4.3,1.3c-1.2,0.9-1.8,1.9-1.8,3.1
	c0,0.4,0,0.7,0.1,1c4.5-1.4,8.5-1.3,12,0.4C35,6.7,35.1,6.3,35.1,5.9L35.1,5.9z"/>
<path class="st1" d="M16.3,30.2L16.3,30.2c-0.1-0.2-0.1-0.3-0.2-0.5L16,29.3l-0.8,0l-0.1,0.7c0,0,0,0.1,0,0.2v0c0,0,0,0.1,0,0.1
	c0,0.4-0.1,0.7-0.3,0.9c-0.2,0.3-0.6,0.4-1,0.3c-0.5,0-0.7-0.2-0.8-0.4c-0.2-0.4-0.2-0.6-0.2-0.7c0-0.3,0.1-0.5,0.2-0.8
	c0.1-0.4,0-0.9-0.3-1.5l-0.3-0.6c-0.1-0.2-0.2-0.5-0.3-0.8c-0.1-0.3,0-0.6,0-1c0.1-0.3,0.3-0.6,0.6-0.8c0.3-0.2,0.6-0.3,1.1-0.2l0,0
	h0c0.4,0,0.7,0,1,0.1c-0.1-0.4-0.1-0.8-0.1-1.2c-0.3-0.1-0.5-0.2-0.8-0.2h0l-0.2,0c-0.6-0.1-1.2,0.1-1.8,0.4c-0.6,0.3-1,0.8-1.2,1.5
	c-0.2,0.6-0.2,1.2-0.1,1.7c0,0.1,0,0.2,0.1,0.3c0.1,0.3,0.2,0.6,0.4,1c0.3,0.5,0.4,0.7,0.4,0.7l0,0c0,0.1,0,0.2,0,0.3l0,0
	c0,0.2-0.1,0.3-0.1,0.4c-0.2,0.6-0.3,1.2-0.1,1.7c0.2,0.5,0.5,0.9,1,1.2c0.3,0.1,0.6,0.2,1,0.3c0.2,0,0.4,0,0.6,0
	c0.7,0,1.3-0.4,1.7-1C16.4,31.6,16.5,30.9,16.3,30.2L16.3,30.2L16.3,30.2z"/>
<path class="st1" d="M46.9,24.5c-0.2-0.6-0.6-1.1-1.2-1.5h0c-0.5-0.3-1.1-0.4-1.7-0.4c0,0,0,0-0.1,0l-0.2,0h0
	c-0.4,0.1-0.8,0.2-1.1,0.4c0,0,0,0.1,0,0.1c0,0.4,0,0.7,0,1.1l0.2-0.1c0.3-0.1,0.6-0.2,1.1-0.3l0,0c0.4-0.1,0.7,0,1,0.2
	c0.3,0.2,0.6,0.5,0.7,0.9c0.1,0.3,0.1,0.7,0,0.9c-0.1,0.3-0.2,0.6-0.3,0.9c-0.1,0.3-0.3,0.6-0.4,0.8c-0.2,0.4-0.3,0.8-0.2,1.2
	c0.1,0.4,0.1,0.7,0.2,1c0,0.2,0,0.4-0.1,0.7l0,0c-0.1,0.3-0.5,0.4-0.7,0.4c-0.6,0.1-0.8-0.1-1-0.3c-0.3-0.3-0.4-0.7-0.4-1.1l0-0.1
	c0-0.1,0-0.2,0-0.2l0-0.7l-0.9,0l-0.1,0.4c0,0.1-0.1,0.3-0.1,0.4l0,0.1l0,0.1c-0.1,0.7,0,1.3,0.4,1.9l0,0c0.4,0.6,1,0.9,1.7,0.9
	c0.2,0,0.4,0,0.5,0c0.4,0,0.8-0.1,1.1-0.3c0.5-0.3,0.8-0.7,1-1.2c0.2-0.5,0.1-1.1-0.1-1.7l-0.1-0.4l0,0c0-0.1,0-0.3,0-0.4
	c0.1-0.2,0.2-0.5,0.4-0.8c0.2-0.4,0.3-0.7,0.4-0.9c0-0.1,0.1-0.2,0.1-0.3C47.1,25.7,47.1,25.1,46.9,24.5L46.9,24.5z"/>
<path class="st1" d="M35.5,7c0.1-0.4,0.1-0.8,0.1-1.1c0-1.4-0.6-2.6-2-3.6c-1.3-0.9-2.9-1.4-4.7-1.4c-1.8,0-3.4,0.4-4.6,1.4
	c-1.3,1-2,2.1-2.1,3.5v0c0,0.3,0,0.5,0.1,0.8c-0.1,0.2-0.2,0.3-0.2,0.5v0c0,0.5,0.1,0.9,0.2,1.4l0,0c0.2,0.6,0.5,1.1,1,1.6l0.1,0.1
	l1.2,0.1c1,0.6,2.4,0.9,4.1,1c0.1,0,0.1,0,0.2,0c1.3,0,2.4-0.2,3.3-0.5l0,0c0.3-0.1,0.7-0.3,1-0.5c1,0.1,1.7-0.4,2.1-1.4L35.5,9
	l0-0.1C35.6,8.4,35.9,7.5,35.5,7L35.5,7z M25,3.1c1.1-0.8,2.5-1.2,4-1.2c1.6,0,2.9,0.4,4.1,1.2c1.1,0.8,1.6,1.7,1.6,2.7
	c0,0.2,0,0.4,0,0.6c-1.8-0.8-3.7-1.1-5.7-1.1c-1.7,0-3.6,0.3-5.5,0.8c0-0.1,0-0.2,0-0.4C23.4,4.7,23.9,3.9,25,3.1z M34.6,8l-0.4,0.8
	c0,0-0.5,0.7-1,0.6l-0.2,0l-0.2,0.1c-0.3,0.2-0.6,0.4-1,0.5c-0.9,0.3-1.9,0.4-3.1,0.4c-1.5,0-2.7-0.3-3.6-0.8c0,0-0.1,0-0.1,0
	l-0.1-0.1l-1-0.1c-0.2-0.2-0.5-0.7-0.5-0.7l-0.3-0.8c0,0,0-0.4,0-0.4c4.2-1.3,8.1-1.2,11.4,0.3C34.7,7.7,34.6,8,34.6,8z M34.9,8.8
	L34.9,8.8L34.9,8.8L34.9,8.8z"/>
</svg>
