<svg xmlns="http://www.w3.org/2000/svg" xmlns:xlink="http://www.w3.org/1999/xlink" fill="none" version="1.1" width="127.62000274658203" height="37.42265319824219" viewBox="0 0 127.62000274658203 37.42265319824219"><g style="mix-blend-mode:passthrough"><path d="M69.1129,5.82483L69.1129,7.35616L76.6549,7.35616L76.6549,8.9092L70.4974,8.9092L74.1218,12.5945L74.1218,13.9629L69.1129,13.9629L69.1129,19.4656L67.324,19.4656L67.324,13.9629L62.3151,13.9629L62.3151,12.5945L65.9644,8.9092L59.8105,8.9092L59.8105,7.35616L67.324,7.35616L67.324,5.82483L61.3097,5.82483L61.3097,4.27178L67.324,4.27178L67.324,3.03007L60.5261,3.03007L60.5261,1.48064L67.324,1.48064L67.324,0L69.1129,0L69.1129,1.48064L75.9108,1.48064L75.9108,3.03007L69.1129,3.03007L69.1129,4.27178L75.1129,4.27178L75.1129,5.82483L69.1129,5.82483ZM2.42236,9.77803L1.0127,9.77803L1.0127,9.20242L2.47961,5.69088L0.654907,5.69088L0.654907,4.05819L1.9823,4.05819L0.801636,1.21275L0.801636,0.633522L2.2113,0.633522L3.63159,4.05819L4.30432,4.05819L4.30432,0.126701L5.99304,0.126701L5.99304,4.05819L6.66565,4.05819L8.08606,0.633522L9.49573,0.633522L9.49573,1.21275L8.31506,4.05819L9.64233,4.05819L9.64233,5.69088L7.81775,5.69088L9.28455,9.20242L9.28455,9.77803L7.875,9.77803L6.45813,6.37871L6.45813,5.69088L5.99304,5.69088L5.99304,9.77803L4.30432,9.77803L4.30432,5.69088L3.83911,5.69088L3.83911,6.37871L2.42236,9.77803ZM15.4706,14.4806L15.4277,14.4082L15.4706,14.3358C17.0533,11.5513,17.9573,8.42522,18.1074,5.21664L18.1074,3.64549L13.3918,3.64549L13.4348,3.47534C13.7126,2.37783,13.8911,1.25698,13.9679,0.126701L12.3329,0.126701C12.2482,1.28478,12.0468,2.43108,11.7318,3.54774C11.696,3.67808,11.6566,3.8084,11.6173,3.94234L11.6173,3.98217C11.1532,5.47082,10.5142,6.89771,9.71387,8.23223L9.71387,9.09383L11.1057,9.09383L11.3203,8.73181L11.399,9.04677C11.8618,10.8748,12.5594,12.6335,13.4742,14.2779L13.5135,14.3539L13.467,14.4227C12.3616,15.9968,10.9686,17.3424,9.36328,18.3868L9.36328,19.4728L10.7443,19.4728C12.1074,18.505,13.3185,17.3345,14.3364,16.0011L14.4474,15.8563L14.5511,16.0047C15.4528,17.3035,16.5294,18.4683,17.7496,19.4656L19.3812,19.4656L19.3812,18.6438C17.829,17.519,16.502,16.1063,15.4706,14.4806ZM23.2058,3.92062L35.6279,3.92062L35.6279,6.83847L37.4419,6.83847L37.4419,2.18657L30.0144,2.18657L30.0144,0.126701L28.204,0.126701L28.204,2.18657L21.3918,2.18657L21.3918,6.83847L23.2058,6.83847L23.2058,3.92062ZM43.7961,0.126701C43.0145,3.194,41.6803,6.08908,39.8606,8.66665L39.8606,9.20967L41.4778,9.20967C41.6101,9.01781,41.7389,8.81508,41.8678,8.61234L42.1146,8.22499L42.1146,19.4656L43.8284,19.4656L43.8284,4.95599C44.5486,3.41321,45.0946,1.79322,45.4563,0.126701L43.7961,0.126701ZM54.7229,11.9031L54.6871,11.809L55.2703,11.3709L55.2703,9.77443L54.6907,9.77443L51.9751,11.8126L51.9,11.6714C51.5106,10.9155,51.0153,10.2205,50.4294,9.60789L50.3401,9.51378L50.4294,9.41965C50.5654,9.27484,50.6942,9.1228,50.8195,8.96713L50.8624,8.91645L56.9948,8.91645L56.9948,4.34419L53.1487,4.34419L54.662,2.81287L54.662,1.39014L49.8141,1.39014L49.9286,1.18742C50.1039,0.8797,50.2864,0.564751,50.4294,0.257034L48.5834,0.257034C47.663,1.91626,46.4617,3.39894,45.0342,4.63742L45.0342,6.71178C45.256,6.55611,45.4813,6.38958,45.6996,6.21943L45.9178,6.04566L45.9178,8.89835L48.5619,8.89835L48.2327,9.14452C47.2922,9.82133,46.2577,10.3533,45.163,10.7229L45.163,12.4606C46.5226,12.0435,47.8147,11.4276,48.9984,10.6324L49.0878,10.5672L49.1665,10.6469C49.3402,10.8155,49.5039,10.9944,49.6567,11.1827L49.7498,11.2985L49.6281,11.3818C48.1075,12.4256,46.4969,13.3283,44.8159,14.0788L44.8159,15.849C46.8042,15.0347,48.7014,14.0093,50.476,12.79L50.6049,12.7031L50.6727,12.8479C50.7444,13.0036,50.8087,13.1629,50.8732,13.3258L50.9054,13.4163L50.8337,13.4778C49.0077,15.0815,46.932,16.3684,44.6907,17.2863L44.6907,19.0493C47.038,18.1792,49.2272,16.923,51.17,15.3314L51.3597,15.1757L51.3848,15.4219C51.4683,16.0822,51.4478,16.7518,51.324,17.4057C51.2734,17.6386,51.0695,17.8044,50.8337,17.8039L48.8875,17.8039L48.8875,19.4511L51.163,19.4511C51.9271,19.4545,52.6001,18.9424,52.8087,18.1985C53.1869,16.6344,53.1262,14.9945,52.6334,13.4634L52.6049,13.3729L53.3203,12.8298L53.3848,12.9891C54.0186,14.538,54.9186,15.961,56.0431,17.1921L57.7676,17.1921L57.7676,16.6165C56.4137,15.2984,55.3727,13.6869,54.7229,11.9031ZM47.8785,4.11612C48.2501,3.68533,48.6,3.23586,48.9268,2.76942L48.9697,2.7115L52.3401,2.7115L50.7264,4.34419L47.6853,4.34419L47.8785,4.11612ZM14.476,12.7357L14.3579,12.4931C13.4215,10.5547,12.7982,8.47693,12.5117,6.33889L12.5117,6.26649Q12.6692,5.88637,12.8123,5.49539L12.8445,5.40851L16.4545,5.40851L16.4545,5.55694C16.2726,7.97014,15.6427,10.327,14.5977,12.504L14.476,12.7357ZM49.7926,7.58061L47.646,7.58061L47.646,5.66193L50.7229,5.66193L50.6692,5.83932C50.4803,6.4392,50.2029,7.00674,49.8463,7.52269L49.7926,7.58061ZM52.3829,5.66193L55.281,5.66193L55.281,7.58061L51.7032,7.58061L51.7926,7.38512C52.0355,6.86755,52.2227,6.32502,52.3508,5.76691L52.3829,5.66193ZM30.4116,11.3311L30.4116,11.1392L30.4474,11.0777L34.2399,7.24031L34.2399,5.88638L24.1326,5.88638L24.1326,7.49372L31.7462,7.49372L28.5977,10.6795L28.5977,11.3311L21.1129,11.3311L21.1129,13.0651L28.5977,13.0651L28.5977,16.7649C28.5977,17.1028,28.327,17.3768,27.993,17.3768L25.5387,17.3768L25.5387,19.1072L29.1809,19.1072C29.8599,19.1052,30.4097,18.5488,30.4116,17.8618L30.4116,13.0651L37.7212,13.0651L37.7212,11.3311L30.4116,11.3311ZM64.6227,12.4244L71.7783,12.4244L68.3472,8.96351L68.3079,8.92368L68.0861,8.92368L64.6227,12.4244ZM1.2417,13.2208L4.06458,16.0771L1.2417,18.937L1.2417,19.4656L3.13794,19.4656L5.28467,17.2935L7.43127,19.4656L8.83386,19.4656L8.83386,18.4338L6.5011,16.0771L9.32397,13.2208L9.32397,10.9148L1.2417,10.9148L1.2417,13.2208ZM7.45276,12.6488L5.27393,14.8426L3.09863,12.638L7.45276,12.6488ZM60.1146,18.9986L60.1146,19.4656L62.2184,19.4656L66.0538,15.5884L66.0538,15.0997L63.9716,15.0997L60.1146,18.9986ZM70.3866,15.0997L70.3866,15.5884L74.222,19.4656L76.3221,19.4656L76.3221,18.9986L72.4689,15.0997L70.3866,15.0997ZM3.75869,33.1484Q3.37844,32.6073,2.55211,31.6055L2.55211,37.1813L1.98904,37.1813L1.98904,31.4446Q1.39306,33.2874,0.394882,34.7353L0,34.2965Q0.650824,33.3641,1.17733,32.2197Q1.7075,31.0753,1.98904,29.9491L1.98904,29.8943L0.314443,29.8943L0.314443,29.3312L1.98904,29.3312L1.98904,26.823L2.55211,26.823L2.55211,29.3312L4.01098,29.3312L4.01098,29.8943L2.55211,29.8943L2.55211,30.8925Q2.88849,31.2471,3.3565,31.7846Q3.82816,32.3184,4.13164,32.7206L3.75869,33.1484ZM9.76967,28.7243L9.76967,29.4665Q9.76967,30.9693,9.71117,32.6768Q9.65633,34.3843,9.55761,35.7005Q9.51373,36.2746,9.35285,36.589Q9.19563,36.9071,8.88484,37.0387Q8.57771,37.1704,8.05852,37.1813Q7.3236,37.1813,6.59599,37.1155L6.46436,36.5744Q7.27972,36.6768,7.95614,36.6768Q8.35468,36.6768,8.5704,36.5744Q8.78613,36.472,8.88484,36.2307Q8.98356,35.9894,9.02013,35.5287Q9.2066,33.0972,9.2066,29.8431L9.2066,29.3056L5.415,29.3056Q4.93968,30.472,4.32176,31.4921L3.89763,31.1119Q4.43145,30.2161,4.87752,29.0753Q5.32725,27.9345,5.57954,26.8705L6.14627,27.0058Q5.94882,27.8175,5.62341,28.7243L9.76967,28.7243ZM104.109,28.8961L104.109,29.5396Q104.109,31.068,104.04,32.8047Q103.974,34.5415,103.864,35.8066Q103.817,36.344,103.678,36.6365Q103.539,36.9327,103.254,37.0497Q102.972,37.1704,102.457,37.1704Q102.032,37.1923,101.316,37.1192L101.005,37.0936L100.903,36.4172Q101.798,36.6,102.387,36.6Q102.723,36.6,102.91,36.5049Q103.096,36.4135,103.195,36.1905Q103.294,35.9674,103.338,35.5396Q103.539,33.3349,103.539,30.3038L103.539,29.4738L100.453,29.4738Q100.01,30.5853,99.6375,31.28L99.1183,30.9254Q99.5936,30.0661,99.9921,29.0022Q100.394,27.9382,100.654,26.9437L101.243,27.068Q100.95,28.1466,100.669,28.8961L104.109,28.8961ZM39.0304,33.4226Q38.12,32.5122,37.6849,32.0954L37.6849,37.1813L37.1218,37.1813L37.1218,32.3879Q36.5039,33.1813,35.6959,33.9565L35.4143,33.4044Q37.1877,31.77,38.3906,29.2618L35.6959,29.2618L35.6959,28.7572L37.3595,28.7572Q37.1657,28.1466,36.7855,27.1265L37.312,26.9583Q37.6301,27.8248,37.9335,28.7572L38.9756,28.7572L38.9756,29.2618Q38.4491,30.472,37.7763,31.4811Q38.8951,32.5013,39.3924,32.9729L39.0304,33.4226ZM97.4035,27.1118Q97.2024,28.0552,96.9209,28.9656L98.643,28.9656L98.643,36.7133L95.0744,36.7133L95.0744,28.9656L96.2737,28.9656Q96.42,28.5488,96.5625,27.9894Q96.7088,27.4263,96.7856,26.9985L97.4035,27.1118ZM20.9785,27.9674L20.9785,29.5616L22.0388,29.5616L22.0388,30.0698L20.9785,30.0698L20.9785,31.653L18.5763,31.653L18.5763,32.7426L21.2783,32.7426L21.2783,33.2471L18.5763,33.2471L18.5763,34.2929L21.7024,34.2929L21.7024,34.8084L18.5763,34.8084L18.5763,36.0113L18.0424,36.0113L18.0424,34.8084L15.132,34.8084L15.132,34.2929L18.0424,34.2929L18.0424,33.2471L15.7024,33.2471L15.7024,32.7426L18.0424,32.7426L18.0424,31.653L15.7865,31.653L15.7865,31.1704L18.0424,31.1704L18.0424,30.0698L15.2856,30.0698L15.2856,29.5616L18.0424,29.5616L18.0424,28.461L15.7865,28.461L15.7865,27.9674L18.0424,27.9674L18.0424,27.0022L18.5763,27.0022L18.5763,27.9674L20.9785,27.9674ZM122.432,34.3038Q121.295,35.0241,120.198,35.7737Q119.942,35.9565,119.748,36.1247L119.375,35.6311Q119.554,35.4738,119.605,35.3568Q119.657,35.2398,119.657,35.0607L119.657,30.9766L118.037,31.2142L117.982,30.5963L119.657,30.3477L119.657,27.068L120.253,27.068L120.253,30.2709L122.161,29.9894L122.194,30.5963L120.253,30.8888L120.253,35.0461L122.26,33.6859L122.432,34.3038ZM69.4151,30.9693L69.4151,31.5652L67.7296,31.5652L67.7296,37.1813L67.1592,37.1813L67.1592,31.5652L65.1446,31.5652Q65.1336,32.9583,64.9873,33.898Q64.8411,34.834,64.5157,35.5945Q64.1939,36.3514,63.5943,37.2362L63.1043,36.8157Q63.682,35.9711,63.9892,35.2764Q64.2999,34.578,64.4352,33.6749Q64.5742,32.7718,64.5742,31.3532L64.5742,28.1173Q65.704,28.004,66.8155,27.77Q67.9307,27.5323,68.7497,27.2288L68.9325,27.8358Q68.172,28.1064,67.1519,28.3257Q66.1318,28.5451,65.1446,28.6548L65.1446,30.9693L69.4151,30.9693ZM63.2616,33.6822L60.6436,33.6822Q60.5851,34.8413,60.3658,35.5652Q60.15,36.2892,59.6089,37.2362L59.0605,36.951Q59.5431,36.121,59.7552,35.4921Q59.9672,34.8632,60.0477,34.015Q60.1281,33.163,60.1281,31.5799L60.1281,27.9601Q62.2159,27.7334,63.7515,27.2508L63.9014,27.8577Q62.5084,28.2855,60.6875,28.5086L60.6875,30.1941L63.2616,30.1941L63.2616,33.6822ZM50.8681,27.4994Q50.3855,28.8815,49.7347,30.1173L49.7347,37.1813L49.1277,37.1813L49.1277,31.1959Q48.4074,32.3733,47.5665,33.3641L47.274,32.7682Q48.1368,31.7334,48.9559,30.2526Q49.7785,28.7682,50.2941,27.2983L50.8681,27.4994ZM57.3837,33.8907Q57.3508,35.1155,57.3069,35.8102Q57.263,36.5086,56.9705,36.8011Q56.6816,37.0936,55.9321,37.1375Q55.486,37.1813,54.9376,37.1813Q54.3965,37.1813,53.954,37.1375Q53.4531,37.1046,53.1716,36.962Q52.8901,36.823,52.7621,36.5122Q52.6378,36.2051,52.6378,35.653L52.6378,33.3641Q51.6579,34.0808,50.6963,34.6658L50.3818,34.1137Q51.5884,33.3934,52.6378,32.5634L52.6378,27.3093L53.2447,27.3093L53.2447,32.0808Q55.0509,30.6292,56.6853,28.7353L57.1497,29.174Q55.3105,31.2983,53.2447,32.8925L53.2447,35.5323Q53.2447,36.0808,53.4166,36.2892Q53.5884,36.4976,54.093,36.5415Q54.5244,36.5744,54.9595,36.5744Q55.4093,36.5744,55.8297,36.5415Q56.3233,36.4976,56.5208,36.2965Q56.7219,36.0918,56.7438,35.6091Q56.8023,34.4318,56.8023,33.7444L57.3837,33.8907ZM75.6879,29.4519L72.006,29.4519L72.006,31.0131L71.4539,31.0131L71.4539,28.9912L75.6879,28.9912L75.6879,28.0552L71.8012,28.0552L71.8012,27.5835L80.1486,27.5835L80.1486,28.0552L76.2619,28.0552L76.2619,28.9912L80.496,28.9912L80.496,31.0022L79.9439,31.0022L79.9439,29.4519L76.2619,29.4519L76.2619,31.8285L75.6879,31.8285L75.6879,29.4519ZM44.2517,28.1393L40.4345,28.1393L40.4345,33.9565L39.8641,33.9565L39.8641,27.5872L44.822,27.5872L44.822,33.9455L44.2517,33.9455L44.2517,28.1393ZM83.4781,29.4592L86.1179,29.4592L86.1179,28.2892L82.9296,28.2892L82.9296,27.7846L92.4104,27.7846L92.4104,28.2892L89.2185,28.2892L89.2185,29.4592L91.8583,29.4592L91.8583,32.0332L83.4781,32.0332L83.4781,29.4592ZM33.9642,27.8212L33.9642,28.3916L32.3481,28.3916L32.3481,35.6786Q32.3481,36.2929,32.2238,36.6036Q32.1032,36.9181,31.7851,37.0497Q31.4706,37.1813,30.8308,37.1813Q29.9496,37.1813,29.3536,37.1119L29.2439,36.5342Q30.052,36.6292,30.7503,36.6292Q31.1781,36.6292,31.3902,36.5378Q31.6059,36.4464,31.6827,36.2197Q31.7631,35.993,31.7631,35.536L31.7631,28.3916L23.7741,28.3916L23.7741,27.8212L33.9642,27.8212ZM17.5452,36.4428Q18.7042,36.5013,19.6293,36.5013Q20.8139,36.5013,22.0278,36.4318L21.9145,36.9473Q20.9675,37.0022,19.6914,37.0022Q18.43,37.0022,17.5306,36.9473Q16.2545,36.8888,15.3441,36.5342Q14.4337,36.1832,13.7682,35.4373Q13.26,36.2819,12.2984,37.2398L11.9072,36.812Q12.8505,35.9674,13.4099,34.9875Q12.792,34.1356,12.3313,32.6987L12.792,32.5524Q13.2088,33.7554,13.6695,34.472Q13.9401,33.9016,14.1083,33.2215Q14.2764,32.5415,14.3898,31.653L12.3423,31.653L12.3423,31.1484L14.2984,28.483L12.196,28.483L12.196,27.9565L14.9163,27.9565L14.9163,28.4939L12.9711,31.1374L14.9163,31.1374L14.9163,31.642Q14.792,32.6987,14.5909,33.4921Q14.3898,34.2819,14.0388,34.9656Q14.6494,35.7078,15.483,36.0479Q16.3167,36.3879,17.5452,36.4428ZM122.037,28.0552L127.62,28.0552Q127.62,29.8651,127.536,31.9894Q127.452,34.1137,127.327,35.3422Q127.251,35.993,127.075,36.3294Q126.9,36.6658,126.527,36.8047Q126.157,36.9473,125.459,36.9473Q124.87,36.9473,124.355,36.8669L124.242,36.2709Q125.009,36.3843,125.371,36.3843Q125.898,36.3843,126.161,36.2892Q126.428,36.1941,126.552,35.9382Q126.677,35.6786,126.732,35.1375Q126.845,33.8541,126.911,32.1247Q126.98,30.3916,126.98,28.6731L124.322,28.6731L124.253,30.5817Q124.187,32.4501,123.942,33.5396Q123.697,34.6292,123.119,35.4811Q122.541,36.3294,121.382,37.3751L120.874,36.9364Q122.03,35.9345,122.574,35.1667Q123.123,34.3952,123.346,33.3897Q123.569,32.3843,123.649,30.5378L123.715,28.6731L122.037,28.6731L122.037,28.0552ZM86.6591,29.4592L88.681,29.4592L88.681,28.2892L86.6591,28.2892L86.6591,29.4592ZM20.452,28.461L18.5763,28.461L18.5763,29.5616L20.452,29.5616L20.452,28.461ZM45.6045,34.6L45.546,35.9821Q45.524,36.4537,45.4253,36.6914Q45.3266,36.9327,45.0999,37.0241Q44.8732,37.1192,44.4308,37.1594Q44.2443,37.1813,43.8714,37.1813Q43.4948,37.1813,43.2974,37.1594Q42.9025,37.1338,42.6831,37.0241Q42.4674,36.9144,42.3686,36.6695Q42.2699,36.4245,42.2699,35.9674L42.2699,33.2947Q41.9701,34.5195,41.1913,35.4153Q40.4125,36.3111,38.8988,37.1813L38.5515,36.695Q39.8385,35.9674,40.5259,35.2727Q41.2133,34.5744,41.5277,33.6859Q41.8421,32.7974,41.908,31.4409Q41.9299,30.9327,41.9409,30.2343Q41.9518,29.5323,41.9518,29.0314L42.5259,29.0314Q42.5259,29.547,42.5149,30.2746Q42.5039,30.9985,42.482,31.5214Q42.4491,32.5378,42.2809,33.2289L42.8549,33.2289L42.8549,35.7737Q42.8549,36.1027,42.9061,36.2636Q42.9573,36.4208,43.0853,36.4903Q43.2133,36.5598,43.4729,36.5854Q43.6191,36.6073,43.9226,36.6073Q44.226,36.6073,44.3723,36.5854Q44.6538,36.5598,44.7855,36.4939Q44.9207,36.4281,44.9756,36.2746Q45.0341,36.121,45.0451,35.7992Q45.078,35.1557,45.078,34.4684L45.6045,34.6ZM95.6484,32.1612L98.058,32.1612L98.058,29.5396L95.6484,29.5396L95.6484,32.1612ZM86.1179,29.9638L84.0521,29.9638L84.0521,31.5287L86.1179,31.5287L86.1179,29.9638ZM88.681,29.9638L86.6591,29.9638L86.6591,31.5287L88.681,31.5287L88.681,29.9638ZM91.3099,31.5287L91.3099,29.9638L89.2185,29.9638L89.2185,31.5287L91.3099,31.5287ZM18.5763,31.1704L20.452,31.1704L20.452,30.0698L18.5763,30.0698L18.5763,31.1704ZM72.6459,30.1612L74.9603,30.1612L74.9603,30.5305L72.6459,30.5305L72.6459,30.1612ZM76.9896,30.1612L79.304,30.1612L79.304,30.5305L76.9896,30.5305L76.9896,30.1612ZM8.01464,35.3386Q7.83914,34.8376,7.62707,34.3075Q6.28155,34.6402,4.26692,35.0314L4.07313,34.4537Q4.23036,34.3989,4.29617,34.3367Q4.36564,34.2709,4.44242,34.132Q4.80805,33.5214,5.298,32.3696Q5.7916,31.2142,6.05486,30.3404L6.57405,30.5268Q6.2852,31.397,5.79892,32.5598Q5.31263,33.7225,4.95065,34.355Q6.62159,34.0332,7.44791,33.8248Q6.91775,32.5159,6.70934,32.0662L7.16272,31.8468Q7.4406,32.4793,7.82817,33.4446Q8.2194,34.4099,8.47534,35.1119L8.01464,35.3386ZM25.1671,30.3477L29.4926,30.3477L29.4926,34.6256L25.1671,34.6256L25.1671,30.3477ZM62.6985,30.7682L60.6875,30.7682L60.6875,31.6201Q60.6875,32.6731,60.6765,33.1082L62.6985,33.1082L62.6985,30.7682ZM25.7412,34.0662L28.9295,34.0662L28.9295,30.9181L25.7412,30.9181L25.7412,34.0662ZM74.9603,31.5652L72.6459,31.5652L72.6459,31.1923L74.9603,31.1923L74.9603,31.5652ZM79.304,31.5652L76.9896,31.5652L76.9896,31.1923L79.304,31.1923L79.304,31.5652ZM101.831,34.2599Q101.48,33.7298,100.925,32.9985Q100.372,32.2636,99.9995,31.8285L100.453,31.4738Q100.826,31.9053,101.374,32.6256Q101.923,33.3422,102.296,33.876L101.831,34.2599ZM106.225,31.5652L116.448,31.5652L116.448,32.2307L106.225,32.2307L106.225,31.5652ZM90.3556,33.9053Q90.0411,34.5013,89.6426,34.9583Q89.2441,35.4117,88.7139,35.77Q90.7358,36.3989,92.1618,36.8705L91.9388,37.4227Q90.1764,36.7828,88.096,36.1283Q87.277,36.5451,86.0704,36.8303Q84.8638,37.1192,83.0649,37.3532L82.8967,36.8047Q84.4579,36.611,85.5402,36.3952Q86.6262,36.1758,87.3684,35.8943Q85.4122,35.2874,84.4909,35.0168Q84.7943,34.6585,85.2879,33.9053L82.6371,33.9053L82.6371,33.4007L85.6133,33.4007Q85.9278,32.8705,86.2751,32.1832L86.8382,32.355Q86.5932,32.8486,86.2642,33.4007L92.7249,33.4007L92.7249,33.9053L90.3556,33.9053ZM80.6971,32.9693L76.1815,32.9693Q75.9914,33.4811,75.8122,33.9053L79.9439,33.9053L79.9439,36.2636Q79.9439,36.7609,79.7537,36.962Q79.5636,37.1667,79.081,37.1813Q78.708,37.1923,78.1925,37.1338L78.0901,36.6036Q78.4521,36.6841,78.8652,36.6841Q79.1468,36.6841,79.2528,36.5488Q79.3625,36.4135,79.3625,36.0588L79.3625,34.3769L77.4503,34.3769L77.4503,36.812L76.9128,36.812L76.9128,34.3769L75.0261,34.3769L75.0261,36.812L74.4886,36.812L74.4886,34.3769L72.5873,34.3769L72.5873,37.1667L72.006,37.1667L72.006,33.9053L75.2162,33.9053Q75.3515,33.5981,75.5746,32.9693L71.2528,32.9693L71.2528,32.4866L80.6971,32.4866L80.6971,32.9693ZM95.6484,32.7353L95.6484,36.1283L98.058,36.1283L98.058,32.7353L95.6484,32.7353ZM88.074,35.5689Q88.6371,35.2654,89.0174,34.8669Q89.3976,34.4684,89.7121,33.9053L85.9497,33.9053Q85.5329,34.5561,85.3647,34.7718L88.074,35.5689Z" fill-rule="evenodd" fill="#EEF3FF" fill-opacity="1"/></g></svg>