<?xml version="1.0" encoding="utf-8"?>
<!-- Generator: Adobe Illustrator 23.0.0, SVG Export Plug-In . SVG Version: 6.00 Build 0)  -->
<svg version="1.1" id="图层_1" xmlns="http://www.w3.org/2000/svg" xmlns:xlink="http://www.w3.org/1999/xlink" x="0px" y="0px"
	 viewBox="0 0 46.3 45.9" style="enable-background:new 0 0 46.3 45.9;" xml:space="preserve">
<style type="text/css">
	.st0{fill:#0A0A0A;}
	.st1{fill:#FFFFFF;}
</style>
<rect y="0" class="st0" width="45.9" height="45.9"/>
<path class="st1" d="M37.2,15v-3.4c0-0.7-0.3-1.3-0.7-1.8l-4.3-4.3c-0.5-0.5-1.1-0.7-1.8-0.7H10.6v23.5c0,0.7,0.3,1.3,0.7,1.8
	l4.4,4.4c0.2,0.2,0.1,0.5-0.2,0.5h-5v6.1h19.7c0.7,0,1.3-0.3,1.8-0.7l4.3-4.3c0.5-0.5,0.7-1.1,0.7-1.8V22.8c0-0.7-0.5-1.2-1.2-1.2
	h-3.8c-0.3,0-0.4-0.3-0.2-0.5l4.4-4.4C37,16.3,37.2,15.6,37.2,15L37.2,15z M16.8,10.9h13.4c0.5,0,0.9,0.4,0.9,0.8v1.8l-2.9,2.9
	c-0.3,0.3-0.5,0.7-0.5,1.1v3c0,0.6,0.5,1.2,1.2,1.2h1.8c0.2,0,0.4,0.2,0.4,0.4V35H17.2c-0.2,0-0.4-0.2-0.4-0.4V10.9z"/>
</svg>
