<?xml version="1.0" encoding="utf-8"?>
<!-- Generator: Adobe Illustrator 23.0.0, SVG Export Plug-In . SVG Version: 6.00 Build 0)  -->
<svg version="1.1" id="图层_1" xmlns="http://www.w3.org/2000/svg" xmlns:xlink="http://www.w3.org/1999/xlink" x="0px" y="0px"
	 viewBox="0 0 158 159" style="enable-background:new 0 0 158 159;" xml:space="preserve">
<style type="text/css">
	.st0{clip-path:url(#SVGID_2_);}
	.st1{fill:#FFFFFF;}
	.st2{fill-rule:evenodd;clip-rule:evenodd;fill:#333333;}
	.st3{fill:#00CFFF;}
</style>
<g>
	<defs>
		<rect id="SVGID_1_" y="21.1" width="158" height="112"/>
	</defs>
	<clipPath id="SVGID_2_">
		<use xlink:href="#SVGID_1_"  style="overflow:visible;"/>
	</clipPath>
	<g class="st0">
		<rect y="21.1" class="st1" width="158" height="112"/>
		<path class="st2" d="M58.7,118.1c1.7,0,3-1.3,3-3c0-1.7-1.3-3-3-3c-1.7,0-3,1.3-3,3C55.7,116.7,57.1,118.1,58.7,118.1z M0.7,113.1
			h5.5h2.6h9.8v5.6h-5.6v14.4H6.1l0-14.4H0.7V113.1z M85.1,113.5h-5.9l-8.3,19.6h6.4c0,0,4.9-11.8,4.9-12c0.2,0.5,3.8,12,3.8,12h7.5
			L85.1,113.5z M109.4,131.6c0.7,0.9,1.9,1.4,3.5,1.4c1.5,0,2.6-0.2,3.3-0.7v-4.4h-0.1c-0.4,0.2-0.8,0.3-1.3,0.3
			c-0.2,0-0.4,0-0.6-0.1c-0.2-0.1-0.3-0.2-0.5-0.3c-0.2-0.4-0.3-0.9-0.2-1.4v-3.6h2.2v-3.9h-2.2v-4h-4.9c0,1,0,1.9-0.1,2.7
			c0,0.8-0.1,1.2-0.1,1.3H107v3.9h1.5v5.2c0,0.7,0.1,1.5,0.2,2.2C108.8,130.7,109.1,131.2,109.4,131.6z M38.6,126.7h-0.2l0,4.8
			c1.6,1,3.8,1.5,6.7,1.5c2.6,0,4.5-0.5,5.7-1.3c1.2-0.9,1.8-1.9,1.8-3.2c0-0.5-0.1-1-0.3-1.4s-0.5-0.9-0.8-1.2
			c-0.7-0.7-2-1.3-3.9-1.8l-1.7-0.4c-0.2,0-0.5-0.1-0.7-0.2c0,0-0.1-0.1-0.1-0.2c0-0.1,0-0.1,0-0.2c0-0.3,0.4-0.4,1.1-0.4
			c1,0,1.9,0.1,2.8,0.4c1.1,0.3,1.9,0.7,2.4,1.1h0.1v-4.8c-0.5-0.4-1.2-0.6-2.4-0.9c-1-0.2-2.1-0.3-3.1-0.3c-2.5,0-4.4,0.4-5.6,1.2
			c-1.2,0.8-1.9,1.9-1.9,3.3c0,1.2,0.4,2.1,1.1,2.8c0.8,0.7,2,1.3,3.7,1.7l1.8,0.5c0.2,0,0.5,0.1,0.7,0.2c0,0,0.1,0.1,0.1,0.2
			c0,0.1,0,0.1,0,0.2c0,0.3-0.3,0.4-0.8,0.4c-1.2,0-2.3-0.2-3.5-0.5C40.7,127.8,39.6,127.3,38.6,126.7z M35.3,132.8V119h-6v8.3
			c-0.2,0.4-0.4,0.6-0.7,0.9c-0.3,0.2-0.7,0.3-1.1,0.3c-0.3,0-0.5,0-0.7-0.2c-0.2-0.1-0.4-0.3-0.5-0.5c-0.1-0.1-0.1-0.6-0.1-1.4V119
			h-6v8.9c0,0.9,0.1,1.8,0.3,2.6c0.6,1.7,2.1,2.6,4.7,2.6c0.9,0,1.8-0.2,2.6-0.6c0.8-0.4,1.4-1,1.9-1.8v2.1H35.3z M95.9,133.1v-13.8
			h4.9v2.2c0.2-0.7,0.5-1.3,1-1.8c0.2-0.3,0.5-0.5,0.9-0.6c0.3-0.1,0.7-0.2,1-0.2c0.7,0,1.2,0.1,1.5,0.3v5H105
			c-0.5-0.3-1.2-0.5-1.8-0.5c-0.6,0-1.2,0.1-1.6,0.5c-0.2,0.2-0.4,0.4-0.5,0.6c-0.1,0.2-0.2,0.5-0.2,0.8v7.4L95.9,133.1z
			 M55.7,119.3h5.9v13.8h-5.9V119.3z M68.5,130.9c0,1.2-0.9,2.1-2.1,2.1s-2.1-0.9-2.1-2.1c0-1.2,0.9-2.1,2.1-2.1
			S68.5,129.8,68.5,130.9z"/>
		<path class="st2" d="M157.9,21.1h-10.2v10.2h10.2V21.1z M128,52.3L127.9,88h18.9V36.1H77.2v16.2H128z M146.8,88v19.6l0,0
			l-15.6,25.4l-11.4-17.8l8-13.1l0-14.1H146.8z M80.9,101.2V77h39.1v24.2H80.9z M94.9,91.8h11.2v-5.3H94.9V91.8z"/>
		<path class="st2" d="M74.8,108V88.6H63.1V67.5h9.7V48h-9.7v-12H44.4v12h-9.6v19.5h9.6v21.1H32.9V108H74.8z M0,107.8V43.6h28.7
			v64.2H0z M11.2,83.2h6.3v-15h-6.3V83.2z"/>
		<path class="st3" d="M133,70H82.5l8-13.8H140L133,70z"/>
	</g>
</g>
</svg>
