<?xml version="1.0" encoding="utf-8"?>
<!-- Generator: Adobe Illustrator 23.0.0, SVG Export Plug-In . SVG Version: 6.00 Build 0)  -->
<svg version="1.1" id="图层_1" xmlns="http://www.w3.org/2000/svg" xmlns:xlink="http://www.w3.org/1999/xlink" x="0px" y="0px"
	 viewBox="0 0 108 108" style="enable-background:new 0 0 108 108;" xml:space="preserve">
<path d="M17.2,0h17.7h13.5c14.3,0,16.2,9.9,15,16.8c-4,23.1-12.8,69.8-13.4,73c-0.4,2,0.5,2.3,1.2,0.3C60,64.8,78,13.5,79.2,10
	c1.9-5.4,9.2-11.7,18.9-9.3c7.8,1.9,9.9,10.3,9.9,14.2v79.7c0,6.9-7.1,16.3-19,12.7c-12.8-3.9-11.8-15.8-9.6-21.5
	c7.4-17.3,22.5-52.5,23.7-55.5c0.7-1.6-0.1-2-1.1-0.6c-12.9,19-39.9,58.9-45.3,66.8c-5.3,7.9-9.5,11.5-16.6,11.5
	C9.6,107.9-1,76-1,60.9v-42C-1,8.7,7.8,0,17.2,0z"/>
</svg>
