<?xml version="1.0" encoding="UTF-8"?>
<svg width="347px" height="347px" viewBox="0 0 347 347" version="1.1" xmlns="http://www.w3.org/2000/svg" xmlns:xlink="http://www.w3.org/1999/xlink">
    <title>Logo</title>
    <g id="Page-1" stroke="none" stroke-width="1" fill="none" fill-rule="evenodd">
        <g id="Artboard" transform="translate(-691.000000, -973.000000)" fill-rule="nonzero">
            <g id="Logo" transform="translate(691.000000, 973.000000)">
                <rect id="Rectangle" fill="#171717" x="0" y="0" width="347" height="347" rx="10.3125"></rect>
                <path d="M276.835867,103.132193 L284.378021,106.221704 L289,95 L276.835867,95 L253.214994,95 L229.594122,95 L224.240831,95 L222.11285,99.8981103 L222.112126,99.8988332 L222.112126,99.899556 L222.107777,99.9096761 L222.087483,99.9552164 L222.001958,100.151112 C221.924405,100.32749 221.806989,100.594226 221.650435,100.945537 C221.338051,101.648881 220.871287,102.689802 220.262464,104.024204 C219.044094,106.693732 217.259664,110.532128 215.007019,115.177236 C210.495933,124.47902 204.13446,136.959948 196.711896,149.741587 C189.265415,162.56443 180.872358,175.475461 172.322748,185.750216 C163.517287,196.33291 155.540984,202.879868 149.177337,204.835931 C144.509696,206.270812 138.129379,205.447472 131.974471,203.61791 C129.067342,202.753367 126.529856,201.761601 124.722233,200.98597 C123.824219,200.600685 123.118999,200.273952 122.655134,200.052033 C122.423202,199.941435 122.252152,199.856861 122.147782,199.804815 L122.042688,199.752046 L122.039789,199.7506 L122.036889,199.749154 L122.032541,199.746986 L122.031816,199.746263 L122.029642,199.74554 L105,190.904942 L110.46056,209.27647 L118.278134,206.965482 C110.46056,209.27647 110.46056,209.277916 110.461285,209.279362 L110.46201,209.282976 L110.464909,209.292373 L110.473606,209.320565 L110.501148,209.413814 L110.602619,209.744885 C110.690318,210.028246 110.817156,210.435217 110.982408,210.951341 C111.312187,211.983587 111.797071,213.457502 112.426913,215.266102 C113.685146,218.876795 115.534083,223.857312 117.905592,229.342386 C122.518874,240.012546 129.580493,253.738966 138.780964,262.511614 C146.66087,270.025761 155.828,273.016239 165.477841,271.698462 C174.633375,270.447912 183.341714,265.444987 191.268006,258.902366 C207.119866,245.817848 222.699205,224.156577 236.233914,201.862802 C249.885314,179.377468 261.914636,155.468097 270.511358,137.241141 C274.81588,128.112845 278.273848,120.378949 280.659129,114.919175 C281.852131,112.188926 282.776962,110.026124 283.406079,108.539921 C283.720637,107.796819 283.961267,107.22359 284.124345,106.832522 L284.310615,106.38507 L284.359176,106.267244 L284.372222,106.235438 L284.376571,106.226041 C284.377296,106.223872 284.378021,106.221704 276.835867,103.132193 Z" id="Path" stroke="#FFFFFF" stroke-width="2.25" fill="#FFFFFF"></path>
                <path d="M151,117 C151,117 116.683921,116.196065 102.939705,129.940314 C89.1962117,143.68384 90.0001446,178 90.0001446,178 C90.0001446,178 90.8040775,143.68384 77.0598612,129.940314 C63.3158618,116.196065 29,117 29,117 C29,117 63.3158618,117.803935 77.0598612,104.059686 C90.8040775,90.31616 90.0001446,56 90.0001446,56 C90.0001446,56 89.1962117,90.31616 102.939705,104.059686 C116.683921,117.803935 151,117 151,117 Z" id="Path" fill="#FFFFFF"></path>
            </g>
        </g>
    </g>
</svg>