<?xml version="1.0" encoding="utf-8"?>
<!-- Generator: Adobe Illustrator 23.0.0, SVG Export Plug-In . SVG Version: 6.00 Build 0)  -->
<svg version="1.1" id="_图层_2" xmlns="http://www.w3.org/2000/svg" xmlns:xlink="http://www.w3.org/1999/xlink" x="0px" y="0px"
	 viewBox="0 0 36.8 37" style="enable-background:new 0 0 36.8 37;" xml:space="preserve">
<style type="text/css">
	.st0{fill:#00DCFF;}
	.st1{fill:#006AFF;}
</style>
<g>
	<path class="st0" d="M14.9,14.8L8.5,34.5h13.7l-6.4-19.7C15.7,14.4,15,14.4,14.9,14.8L14.9,14.8z"/>
	<path class="st0" d="M5.5,20.6c-0.1-0.5-0.8-0.5-1,0L0,34.5h4l3-9.2L5.5,20.6L5.5,20.6z"/>
	<path class="st1" d="M12.6,11c-0.1-0.5-0.8-0.5-1,0L4,34.5h4.5l5.9-18.1C14.3,16.4,12.6,11,12.6,11z"/>
	<path class="st0" d="M30.6,18c-0.1-0.5-0.8-0.5-1,0l-1.5,4.7L32,34.5h4L30.6,18L30.6,18z"/>
	<path class="st1" d="M21.7,2.8c-0.1-0.5-0.8-0.5-1,0l-4.4,13.6l5.9,18.1H32L21.7,2.8z"/>
</g>
</svg>
