<?xml version="1.0" encoding="utf-8"?>
<!-- Generator: Adobe Illustrator 23.0.0, SVG Export Plug-In . SVG Version: 6.00 Build 0)  -->
<svg version="1.1" id="图层_1" xmlns="http://www.w3.org/2000/svg" xmlns:xlink="http://www.w3.org/1999/xlink" x="0px" y="0px"
	 viewBox="0 0 23.3 23.3" style="enable-background:new 0 0 23.3 23.3;" xml:space="preserve">
<style type="text/css">
	.st0{fill:#00CDFA;}
	.st1{fill:url(#SVGID_1_);}
	.st2{fill:#3A00FF;}
	.st3{fill:#FFFFFF;}
</style>
<path class="st0" d="M7.6,4.4h12.9l0.2-0.8c0.3-1.3-0.7-2.5-2-2.5H6.2c-1.6,0-3,1.1-3.4,2.7L0,16.5c-0.3,1.3,0.7,2.5,2,2.5h0.8
	L5.6,6C5.8,5.1,6.6,4.4,7.6,4.4z"/>
<linearGradient id="SVGID_1_" gradientUnits="userSpaceOnUse" x1="2.584" y1="9.8946" x2="23.309" y2="9.8946" gradientTransform="matrix(1 0 0 -1 0 23.1908)">
	<stop  offset="0" style="stop-color:#FFB3FF"/>
	<stop  offset="0.5335" style="stop-color:#FF76DF"/>
	<stop  offset="1" style="stop-color:#C239C6"/>
</linearGradient>
<path class="st1" d="M21.3,4.4h-0.8l-2.8,12.9c-0.2,0.9-1,1.6-2,1.6H2.8l-0.2,0.8c-0.3,1.3,0.7,2.5,2,2.5h12.5c1.6,0,3-1.1,3.4-2.7
	l2.7-12.6C23.5,5.6,22.6,4.4,21.3,4.4z"/>
<path class="st2" d="M17.7,17.3l2.8-12.9H7.6c-1,0-1.8,0.7-2,1.6L2.8,18.9h12.9C16.7,18.9,17.5,18.2,17.7,17.3z"/>
<path class="st3" d="M7,14L6.1,9.1h1.5l0.5,3l1.5-3h1l0.6,3l1.4-3h1.5L11.5,14h-1.2l-0.6-2.8L8.3,14H7z"/>
<path class="st3" d="M13.3,13.2l0.8-0.9c0.3,0.4,0.8,0.6,1.3,0.6c0.3,0,0.6-0.1,0.7-0.4c0-0.1-0.1-0.3-0.3-0.4
	c-0.1,0-0.2-0.1-0.4-0.1c-0.4-0.1-0.5-0.2-0.8-0.4C14.2,11.4,14,11,14,10.4C14.2,9.5,15,9,16,9c0.7,0,1.3,0.2,1.8,0.7L17,10.5
	c-0.3-0.3-0.7-0.4-1.1-0.4c-0.3,0-0.5,0.1-0.6,0.3c0,0.2,0.1,0.3,0.3,0.4c0.1,0,0.2,0.1,0.4,0.2c0.2,0.1,0.4,0.1,0.5,0.2
	c0.5,0.2,1,0.7,0.9,1.4c-0.1,0.5-0.3,0.8-0.7,1.1c-0.4,0.3-0.9,0.4-1.4,0.4C14.5,14.1,13.8,13.8,13.3,13.2z"/>
</svg>
