<?xml version="1.0" encoding="utf-8"?>
<!-- Generator: Adobe Illustrator 23.0.0, SVG Export Plug-In . SVG Version: 6.00 Build 0)  -->
<svg version="1.1" id="图层_1" xmlns="http://www.w3.org/2000/svg" xmlns:xlink="http://www.w3.org/1999/xlink" x="0px" y="0px"
	 viewBox="0 0 31.5 31.5" style="enable-background:new 0 0 31.5 31.5;" xml:space="preserve">
<style type="text/css">
	.st0{clip-path:url(#SVGID_2_);}
	.st1{fill:#12142F;}
	.st2{clip-path:url(#SVGID_4_);}
	.st3{clip-path:url(#SVGID_6_);}
	.st4{fill-rule:evenodd;clip-rule:evenodd;fill:url(#SVGID_7_);}
	.st5{fill-rule:evenodd;clip-rule:evenodd;fill:url(#SVGID_8_);}
	.st6{fill:#FFFFFF;}
	.st7{fill:url(#SVGID_9_);}
</style>
<g>
	<g>
		<defs>
			<path id="SVGID_1_" d="M7.2,0h17.1c4,0,7.2,3.2,7.2,7.2v17.1c0,4-3.2,7.2-7.2,7.2H7.2c-4,0-7.2-3.2-7.2-7.2V7.2
				C0,3.2,3.2,0,7.2,0z"/>
		</defs>
		<clipPath id="SVGID_2_">
			<use xlink:href="#SVGID_1_"  style="overflow:visible;"/>
		</clipPath>
		<g class="st0">
			<path class="st1" d="M7.2,0h17.1c4,0,7.2,3.2,7.2,7.2v17.1c0,4-3.2,7.2-7.2,7.2H7.2c-4,0-7.2-3.2-7.2-7.2V7.2C0,3.2,3.2,0,7.2,0z
				"/>
			<g>
				<g>
					<defs>
						<rect id="SVGID_3_" y="0" width="31.5" height="31.5"/>
					</defs>
					<clipPath id="SVGID_4_">
						<use xlink:href="#SVGID_3_"  style="overflow:visible;"/>
					</clipPath>
					<g class="st2">
						<g>
							<g>
								<defs>
									<path id="SVGID_5_" d="M7.2,0h17.1c4,0,7.2,3.2,7.2,7.2v17.1c0,4-3.2,7.2-7.2,7.2H7.2c-4,0-7.2-3.2-7.2-7.2V7.2
										C0,3.2,3.2,0,7.2,0z"/>
								</defs>
								<clipPath id="SVGID_6_">
									<use xlink:href="#SVGID_5_"  style="overflow:visible;"/>
								</clipPath>
								<g class="st3">
									<rect y="0" class="st1" width="31.5" height="31.5"/>
								</g>
							</g>
						</g>
					</g>
				</g>
			</g>
			
				<linearGradient id="SVGID_7_" gradientUnits="userSpaceOnUse" x1="17.2871" y1="545.3706" x2="26.7791" y2="554.7748" gradientTransform="matrix(1 0 0 1 0 -534.0001)">
				<stop  offset="0" style="stop-color:#0167FF"/>
				<stop  offset="1" style="stop-color:#01FF85"/>
			</linearGradient>
			<path class="st4" d="M15.4,5.1c1.1-0.6,2.5-0.2,3.1,0.9l8.8,15.7c0.6,1.1,0.2,2.5-0.9,3.1s-2.5,0.2-3.1-0.9L14.5,8.2
				C13.9,7.1,14.3,5.7,15.4,5.1z"/>
			
				<linearGradient id="SVGID_8_" gradientUnits="userSpaceOnUse" x1="14.2608" y1="546.0486" x2="7.787" y2="557.9363" gradientTransform="matrix(1 0 0 1 0 -534.0001)">
				<stop  offset="0" style="stop-color:#0167FF"/>
				<stop  offset="1" style="stop-color:#FF00C7"/>
			</linearGradient>
			<path class="st5" d="M17.4,5.2c1.1,0.6,1.6,1.9,1.1,3.1l-7.6,15.6C10.3,25,9,25.5,7.8,25c-1.1-0.6-1.6-1.9-1.1-3.1l7.6-15.6
				C14.9,5.1,16.3,4.6,17.4,5.2z"/>
			<path class="st6" d="M8.1,11.7c-1-1.5-3.2-0.7-3.6-2.3c0,0-1.5,3.9,0.8,5.1C7.5,15.7,9.1,13.2,8.1,11.7z"/>
			
				<linearGradient id="SVGID_9_" gradientUnits="userSpaceOnUse" x1="8.2843" y1="548.395" x2="25.9214" y2="558.3052" gradientTransform="matrix(1 0 0 1 0 -534.0001)">
				<stop  offset="0" style="stop-color:#FFFFFF"/>
				<stop  offset="1" style="stop-color:#01FF85"/>
			</linearGradient>
			<path class="st7" d="M8.4,16.9c-0.7-0.4-2-1.6-1.1-3.1s2.5-1,3.2-0.6c0.6,0.4,12,8.1,15,10.1c0.4,0.3,0.5,0.8,0.3,1.3
				C25.5,25,25,25.2,24.5,25C21.2,23.3,9,17.2,8.4,16.9z"/>
		</g>
	</g>
</g>
</svg>
