<?xml version="1.0" encoding="utf-8"?>
<!-- Generator: Adobe Illustrator 24.0.1, SVG Export Plug-In . SVG Version: 6.00 Build 0)  -->
<svg version="1.1" id="图层_1" xmlns="http://www.w3.org/2000/svg" xmlns:xlink="http://www.w3.org/1999/xlink" x="0px" y="0px"
	 viewBox="0 0 55 55" style="enable-background:new 0 0 55 55;" xml:space="preserve">
<style type="text/css">
	.st0{fill:url(#SVGID_1_);}
	.st1{fill:url(#SVGID_2_);}
	.st2{fill:#187E28;}
	.st3{fill:#858C8C;}
</style>
<g>
	
		<linearGradient id="SVGID_1_" gradientUnits="userSpaceOnUse" x1="65.4476" y1="74.918" x2="65.4476" y2="75.8551" gradientTransform="matrix(36.5915 0 0 -32.4267 -2373.8057 2465.5339)">
		<stop  offset="0" style="stop-color:#78D431"/>
		<stop  offset="1" style="stop-color:#9EEE69"/>
		<stop  offset="1" style="stop-color:#9EEE69"/>
	</linearGradient>
	<path class="st0" d="M2.7,21c0,4.6,2.5,8.8,6.3,11.6c0.3,0.2,0.5,0.6,0.5,1c0,0.1-0.1,0.3-0.1,0.4c-0.3,1.1-0.8,3-0.8,3.1
		c-0.1,0.2-0.1,0.3-0.1,0.5c0,0.3,0.3,0.6,0.6,0.6c0.1,0,0.2-0.1,0.3-0.1l4-2.3c0.3-0.2,0.6-0.3,1-0.3c0.2,0,0.4,0,0.6,0.1
		c1.9,0.6,3.9,0.9,6,0.9c10.1,0,18.3-6.9,18.3-15.3S31.1,5.7,21,5.7S2.7,12.5,2.7,21"/>
	
		<linearGradient id="SVGID_2_" gradientUnits="userSpaceOnUse" x1="65.0872" y1="74.7716" x2="65.0872" y2="75.7073" gradientTransform="matrix(30.4194 0 0 -27.2444 -1941.8488 2082.1667)">
		<stop  offset="0" style="stop-color:#E4E6E6"/>
		<stop  offset="1" style="stop-color:#F5F5FF"/>
	</linearGradient>
	<path class="st1" d="M38.1,45.3c1.7,0,3.4-0.2,5-0.7c0.1-0.1,0.3-0.1,0.5-0.1c0.3,0,0.6,0.1,0.8,0.2l3.3,1.9
		c0.1,0.1,0.2,0.1,0.3,0.1c0.3,0,0.5-0.2,0.5-0.5c0-0.1-0.1-0.2-0.1-0.4c0-0.1-0.5-1.6-0.7-2.6c-0.1-0.1-0.1-0.2-0.1-0.3
		c0-0.3,0.2-0.6,0.5-0.9c3.2-2.3,5.2-5.8,5.2-9.7c0-7.1-6.8-12.9-15.2-12.9s-15.2,5.7-15.2,12.9C22.9,39.5,29.7,45.3,38.1,45.3z"/>
	<path class="st2" d="M17.3,16c0,1.3-1,2.4-2.4,2.4s-2.4-1-2.4-2.4c0-1.3,1-2.4,2.4-2.4S17.3,14.7,17.3,16 M29.5,16
		c0,1.3-1,2.4-2.4,2.4s-2.4-1-2.4-2.4c0-1.3,1-2.4,2.4-2.4S29.5,14.7,29.5,16"/>
	<path class="st3" d="M41.2,28.5c0,1.2,0.9,2.1,2.1,2.1s2.1-0.9,2.1-2.1s-0.9-2.1-2.1-2.1S41.2,27.3,41.2,28.5 M31.1,28.5
		c0,1.2,0.9,2.1,2.1,2.1s2.1-0.9,2.1-2.1s-0.9-2.1-2.1-2.1S31.1,27.3,31.1,28.5"/>
</g>
</svg>
