<?xml version="1.0" encoding="utf-8"?>
<!-- Generator: Adobe Illustrator 24.0.1, SVG Export Plug-In . SVG Version: 6.00 Build 0)  -->
<svg version="1.1" id="图层_1" xmlns="http://www.w3.org/2000/svg" xmlns:xlink="http://www.w3.org/1999/xlink" x="0px" y="0px"
	 viewBox="0 0 30 30" style="enable-background:new 0 0 30 30;" xml:space="preserve">
<style type="text/css">
	.st0{fill:#EF4126;}
	.st1{fill:#8690A8;}
</style>
<circle class="st0" cx="14.9" cy="16.5" r="2.2"/>
<path class="st1" d="M25.4,12.8L19,0l-4,8.3L11,0L4.6,12.8c-3.8,7.7,1.5,16.9,10,17.2c0.1,0,0.2,0,0.4,0c0.1,0,0.2,0,0.4,0
	C23.9,29.7,29.1,20.5,25.4,12.8z M15,14.4l1.2,2.4c0.4,0.9-0.1,1.9-1.1,2H15h-0.1c-0.9-0.1-1.5-1.1-1.1-2L15,14.4z M15.3,26.8
	c-0.1,0-0.2,0-0.3,0s-0.2,0-0.3,0c-6.4-0.2-10.4-7.2-7.5-13L11,6l2.6,5.3l-2.2,4.4c-1.3,2.7,0.5,5.9,3.4,6.1c0.1,0,0.2,0,0.2,0
	c0.1,0,0.2,0,0.2,0c3-0.2,4.7-3.4,3.4-6.1l-2.2-4.4L19,6l3.8,7.8C25.7,19.6,21.7,26.6,15.3,26.8z"/>
</svg>
