<?xml version="1.0" encoding="utf-8"?>
<!-- Generator: Adobe Illustrator 23.0.0, SVG Export Plug-In . SVG Version: 6.00 Build 0)  -->
<svg version="1.1" id="图层_1" xmlns="http://www.w3.org/2000/svg" xmlns:xlink="http://www.w3.org/1999/xlink" x="0px" y="0px"
	 viewBox="0 0 33.5 33.5" style="enable-background:new 0 0 33.5 33.5;" xml:space="preserve">
<style type="text/css">
	.st0{fill-rule:evenodd;clip-rule:evenodd;fill:#2B8CF7;}
</style>
<title>分组 19</title>
<desc>Created with Sketch.</desc>
<path id="Clip-6" class="st0" d="M28.6,3.6c0,1.3,1,2.3,2.3,2.3c1.3,0,2.3-1,2.3-2.3c0-1.3-1-2.3-2.3-2.3
	C29.6,1.3,28.6,2.3,28.6,3.6z"/>
<path id="Fill-27" class="st0" d="M20.5,15.9c-1.1,0-2.1-0.9-2.1-2.1s0.9-2.1,2.1-2.1c1.1,0,2.1,0.9,2.1,2.1S21.7,15.9,20.5,15.9
	 M20.2,21.2c-0.1,0.1-1.8,3.4-6.3,3.4c-3.7,0-5.5-3.3-5.6-3.4c-0.2-0.4-0.1-0.8,0.3-1c0.4-0.2,0.8-0.1,1,0.3
	c0.1,0.1,1.5,2.6,4.3,2.6c3.6,0,5-2.6,5-2.6c0.2-0.4,0.7-0.5,1-0.3C20.2,20.4,20.4,20.9,20.2,21.2 M6.3,13.9c0-1.1,0.9-2.1,2.1-2.1
	c1.1,0,2.1,0.9,2.1,2.1s-0.9,2.1-2.1,2.1C7.2,15.9,6.3,15,6.3,13.9 M30.1,29.2L28.3,26c0,0,0,0,0,0V9c0-1.6-1.7-3-3.8-3.1L4.2,5
	C2.1,5,0.4,6.6,0.4,8.7V29c0,2.1,1.7,3.5,3.8,3.1c10.5-1.7,17.3-2.8,20.3-3.4l5,1.3c0.1,0,0.3,0,0.4-0.1
	C30.1,29.8,30.2,29.5,30.1,29.2"/>
</svg>
