<?xml version="1.0" encoding="utf-8"?>
<!-- Generator: Adobe Illustrator 23.0.0, SVG Export Plug-In . SVG Version: 6.00 Build 0)  -->
<svg version="1.1" id="图层_1" xmlns="http://www.w3.org/2000/svg" xmlns:xlink="http://www.w3.org/1999/xlink" x="0px" y="0px"
	 viewBox="0 0 65.2 65.2" style="enable-background:new 0 0 65.2 65.2;" xml:space="preserve">
<style type="text/css">
	.st0{fill:#FF9C00;}
	.st1{fill:#1977FD;}
</style>
<path id="路径_5312" class="st0" d="M25,37c0-6.6-5.4-12-12-12s-12,5.4-12,12c0,6.5,5.2,11.8,11.8,12v0h10.5
	c0.8,0,1.5-0.7,1.5-1.5l0,0v-9C25,38,25,37.5,25,37z"/>
<path id="路径_5313" class="st0" d="M23.4,17.3c0-3.3-2.6-5.9-5.9-5.9c-3.3,0-5.9,2.6-5.9,5.9c0,3.2,2.6,5.8,5.8,5.9v0h5.2
	c0.4,0,0.8-0.3,0.8-0.8c0,0,0,0,0,0V18C23.4,17.8,23.4,17.6,23.4,17.3z"/>
<path id="路径_5314" class="st1" d="M28,30.9c0-10,8.1-18.1,18.1-18.1s18.1,8.1,18.1,18.1c0,9.9-7.9,17.9-17.8,18.1V49H30.4
	c-1.3,0-2.3-1-2.3-2.3c0,0,0,0,0,0V33C28,32.3,28,31.6,28,30.9z"/>
</svg>
