<?xml version="1.0" encoding="utf-8"?>
<!-- Generator: Adobe Illustrator 24.0.1, SVG Export Plug-In . SVG Version: 6.00 Build 0)  -->
<svg version="1.1" id="图层_1" xmlns="http://www.w3.org/2000/svg" xmlns:xlink="http://www.w3.org/1999/xlink" x="0px" y="0px"
	 viewBox="0 0 30 30" style="enable-background:new 0 0 30 30;" xml:space="preserve">
<style type="text/css">
	.st0{filter:url(#Adobe_OpacityMaskFilter);}
	.st1{fill-rule:evenodd;clip-rule:evenodd;fill:#FFFFFF;}
	.st2{mask:url(#mask-2_1_);}
	.st3{fill:#226BF3;}
</style>
<title>分组 copy@1x</title>
<desc>Created with Sketch.</desc>
<defs>
	<filter id="Adobe_OpacityMaskFilter" filterUnits="userSpaceOnUse" x="3.5" y="3.5" width="23.1" height="23">
		<feColorMatrix  type="matrix" values="1 0 0 0 0  0 1 0 0 0  0 0 1 0 0  0 0 0 1 0"/>
	</filter>
</defs>
<mask maskUnits="userSpaceOnUse" x="3.5" y="3.5" width="23.1" height="23" id="mask-2_1_">
	<g class="st0">
		<rect id="path-1_2_" x="3.5" y="3.5" class="st1" width="175.6" height="23"/>
	</g>
</mask>
<g id="MaskLayers" class="st2">
	<g id="logo-白色">
		<g id="编组">
			<path id="Combined-Shape" class="st3" d="M26.5,19.1c0,0-0.7-0.1-4.1-1.1c-0.9-0.3-2.1-0.7-3.5-1.3c0.8-1.4,1.5-3,1.9-4.8h-4.5
				v-1.6h5.6V9.3h-5.6V6.5H14c-0.4,0-0.4,0.4-0.4,0.4v2.3H8v0.9h5.7v1.6H9v0.9h9c-0.3,1.1-0.7,2.2-1.3,3.2c-3-1-6.1-1.7-8-1.2
				c-1.2,0.3-2.1,0.8-2.5,1.4c-2.2,2.6-0.6,6.6,3.9,6.6c2.7,0,5.3-1.5,7.4-4c3,1.5,9,3.9,9,3.9v0.2c0,2.1-1.6,3.7-3.7,3.7H7.2
				c-2.1,0-3.7-1.6-3.7-3.7V7.2c0-2.1,1.6-3.7,3.7-3.7h15.7c2.1,0,3.7,1.6,3.7,3.7V19.1L26.5,19.1z M9.7,21.2
				c-3.6,0-4.7-2.8-2.9-4.3c0.6-0.5,1.6-0.7,2.2-0.8c2.1-0.2,4.1,0.6,6.4,1.7C13.9,19.8,11.8,21.2,9.7,21.2z"/>
		</g>
	</g>
</g>
</svg>
