<?xml version="1.0" encoding="utf-8"?>
<!-- Generator: Adobe Illustrator 23.0.0, SVG Export Plug-In . SVG Version: 6.00 Build 0)  -->
<svg version="1.1" id="图层_1" xmlns="http://www.w3.org/2000/svg" xmlns:xlink="http://www.w3.org/1999/xlink" x="0px" y="0px"
	 viewBox="0 0 48.2 48.2" style="enable-background:new 0 0 48.2 48.2;" xml:space="preserve">
<style type="text/css">
	.st0{fill-rule:evenodd;clip-rule:evenodd;fill:#3762FF;}
	.st1{fill-rule:evenodd;clip-rule:evenodd;fill:#1041F3;}
</style>
<path class="st0" d="M6.9,28.7c0-2.8,1.6-5.5,4.8-7.7c3.2-2.2,7.7-3.6,12.8-3.6s9.6,1.4,12.8,3.6c1.6,1.1,2.8,2.4,3.6,3.7
	c1-1.8,1.4-3.7,1.2-5.6c0-0.1,0-0.3,0-0.4c-0.7-0.6-1.4-1.1-2.1-1.7c-4.1-2.8-9.6-4.4-15.6-4.4c-6,0-11.5,1.6-15.6,4.4
	c-4.1,2.8-6.9,6.9-6.9,11.7S4.9,37.6,9,40.4c4.1,2.8,9.6,4.4,15.6,4.4c6,0,11.5-1.6,15.6-4.4c4.1-2.8,6.9-6.9,6.9-11.7
	c0-3.1-1.2-5.8-3-8.2c-0.1,2.1-0.9,4.2-2.1,6.1c0.2,0.7,0.3,1.4,0.3,2.1c0,2.8-1.6,5.5-4.8,7.7c-3.2,2.2-7.7,3.6-12.8,3.6
	s-9.6-1.4-12.8-3.6C8.5,34.2,6.9,31.4,6.9,28.7L6.9,28.7z"/>
<path class="st1" d="M6.9,23c-1.3,3.7-1,7,0.7,9.3c1.7,2.4,4.7,3.8,8.6,3.8c3.9,0,8.4-1.4,12.6-4.4c4.2-2.9,7-6.7,8.3-10.4
	c1.3-3.7,1-7-0.7-9.3c-1.7-2.4-4.7-3.8-8.6-3.8c-3.9,0-8.4,1.4-12.6,4.4C11,15.6,8.2,19.4,6.9,23z M2.2,21.4
	c1.7-4.7,5.2-9.3,10.1-12.8c4.9-3.5,10.4-5.3,15.4-5.3c5,0,9.8,1.8,12.6,5.8c2.9,4,3,9.1,1.3,13.8c-1.7,4.7-5.2,9.3-10.1,12.8
	c-4.9,3.5-10.4,5.3-15.4,5.3c-5,0-9.8-1.8-12.6-5.8C0.7,31.2,0.5,26.1,2.2,21.4L2.2,21.4z"/>
</svg>
