<?xml version="1.0" encoding="utf-8"?>
<!-- Generator: Adobe Illustrator 23.0.0, SVG Export Plug-In . SVG Version: 6.00 Build 0)  -->
<svg version="1.1" id="图层_1" xmlns="http://www.w3.org/2000/svg" xmlns:xlink="http://www.w3.org/1999/xlink" x="0px" y="0px"
	 viewBox="0 0 30 29" style="enable-background:new 0 0 30 29;" xml:space="preserve">
<style type="text/css">
	.st0{fill:#C4BC1A;stroke:#FFFF9C;stroke-width:0.5;}
</style>
<path class="st0" d="M23.4,15l5.4-4.9C28.9,10,29,10,29.1,9.9C29.6,9.5,30,8.8,30,8.1c0-0.7-0.2-1.4-0.7-1.8L24,1
	c-0.9-0.9-2.3-1-3.2-0.2c-1.6,1.2-3.6,1.9-5.6,1.9c-2.1,0-4-0.7-5.6-1.9C8.5,0,7.1,0.1,6.2,1L1,6.2C0.5,6.7,0.2,7.4,0.3,8.1
	c0,0.7,0.4,1.4,0.9,1.8c1.7,1.4,3.6,2.6,5.7,3.4l-5.4,4.9c-0.1,0.1-0.2,0.1-0.2,0.2c-0.5,0.5-0.9,1.1-0.9,1.8c0,0.7,0.2,1.4,0.7,1.8
	l5.6,5.6c0.4,0.4,0.9,0.6,1.3,0.6c0.4,0,0.9-0.1,1.2-0.4c3.3-2.7,8.2-2.8,11.6-0.2c1,0.7,2.3,0.6,3.2-0.2l5.3-5.3
	c0.5-0.5,0.7-1.2,0.7-1.8c0-0.7-0.4-1.4-0.9-1.8C27.4,16.9,25.4,15.8,23.4,15L23.4,15z M7.4,26.1l-5.2-5.2c-0.2-0.2-0.2-0.4-0.2-0.6
	c0-0.2,0.1-0.4,0.3-0.6l0.3-0.3c3.5-2.8,7.7-4.3,11.9-4.5c0.3,0,0.5,0,0.8,0c0.3,0,0.5,0,0.8,0c1.5,0.1,2.9,0.3,4.4,0.6L8.5,26.2
	C8.2,26.5,7.7,26.4,7.4,26.1L7.4,26.1z M22.3,1.9c0.2,0,0.4,0.1,0.6,0.2l5.2,5.2c0.2,0.2,0.2,0.4,0.2,0.6c0,0.2-0.1,0.4-0.3,0.6
	l-0.3,0.3c-3.4,2.7-7.5,4.3-11.9,4.5c-0.5,0-1,0-1.5,0c-1.5-0.1-2.9-0.3-4.3-0.6L21.7,2.1C21.9,2,22.1,1.9,22.3,1.9z M2.2,8.6
	C2,8.5,1.9,8.3,1.9,8c0-0.2,0.1-0.4,0.2-0.6l5.3-5.3C7.6,2,7.8,1.9,8,1.9c0.2,0,0.3,0.1,0.5,0.2c1.9,1.5,4.2,2.2,6.6,2.2
	c0.7,0,1.3-0.1,1.9-0.2l-8.9,8C6,11.3,4,10.1,2.2,8.6L2.2,8.6z M28.1,20.9l-5.3,5.3c-0.3,0.3-0.7,0.3-1,0.1
	c-2.5-1.9-5.7-2.6-8.6-2.1l8.9-8c2.1,0.8,4.2,1.9,6,3.5c0.2,0.2,0.3,0.4,0.3,0.6C28.4,20.5,28.3,20.7,28.1,20.9L28.1,20.9z"/>
</svg>
